<svg width="284" height="82" viewBox="0 0 284 82" fill="none" xmlns="http://www.w3.org/2000/svg">
<path d="M282.416 72.543C282.416 76.9129 278.801 80.4525 274.329 80.4525H9.67389C5.20422 80.4525 1.57617 76.9129 1.57617 72.543V9.46677C1.57617 5.09895 5.20422 1.54688 9.67389 1.54688H274.327C278.801 1.54688 282.414 5.09895 282.414 9.46677L282.416 72.543Z" fill="black"/>
<path d="M273.477 1.64256C278.347 1.64256 282.31 5.50425 282.31 10.25V71.75C282.31 76.4957 278.347 80.3574 273.477 80.3574H10.5184C5.64836 80.3574 1.68557 76.4957 1.68557 71.75V10.25C1.68557 5.50425 5.64836 1.64256 10.5184 1.64256H273.477ZM273.477 0H10.5184C4.73589 0 0 4.61507 0 10.25V71.75C0 77.3849 4.73589 82 10.5184 82H273.477C279.26 82 283.996 77.3849 283.996 71.75V10.25C283.996 4.61507 279.26 0 273.477 0Z" fill="#A6A6A6"/>
<path d="M63.3816 40.557C63.3206 33.9498 68.9332 30.7354 69.1898 30.5858C66.0112 26.0696 61.0844 25.4526 59.353 25.4034C55.2151 24.979 51.2013 27.8162 49.0934 27.8162C46.9435 27.8162 43.6975 25.4444 40.1991 25.5141C35.6972 25.5817 31.4857 28.1217 29.1759 32.0659C24.4089 40.108 27.9641 51.9263 32.5312 58.4268C34.8158 61.6105 37.4854 65.1652 40.9796 65.0401C44.398 64.9028 45.675 62.9163 49.8003 62.9163C53.8877 62.9163 55.0868 65.0401 58.6504 64.9602C62.3192 64.9028 64.629 61.7622 66.8337 58.5498C69.4738 54.9008 70.5341 51.3072 70.5761 51.1227C70.4899 51.094 63.451 48.4761 63.3816 40.557Z" fill="white"/>
<path d="M56.6498 21.1271C58.4884 18.8864 59.7464 15.8381 59.3972 12.7446C56.7361 12.8594 53.4081 14.5384 51.4916 16.7298C49.7961 18.6609 48.2814 21.8261 48.6727 24.8027C51.662 25.02 54.7313 23.3329 56.6498 21.1271Z" fill="white"/>
<path d="M103.186 20.5183C103.186 22.9312 102.443 24.7475 100.96 25.9672C99.5866 27.0927 97.6344 27.6564 95.1058 27.6564C93.852 27.6564 92.7791 27.6031 91.8809 27.4965V14.313C93.0526 14.1285 94.3148 14.0342 95.678 14.0342C98.0867 14.0342 99.9022 14.5446 101.127 15.5655C102.498 16.7197 103.186 18.3699 103.186 20.5183ZM100.861 20.5778C100.861 19.0136 100.437 17.8144 99.5866 16.978C98.7367 16.1436 97.4956 15.7254 95.861 15.7254C95.1668 15.7254 94.5757 15.7705 94.0855 15.8648V25.8873C94.3569 25.9283 94.8534 25.9467 95.5749 25.9467C97.2621 25.9467 98.5642 25.4896 99.4814 24.5753C100.399 23.661 100.861 22.3285 100.861 20.5778Z" fill="white"/>
<path d="M115.511 22.6259C115.511 24.1122 115.076 25.3299 114.205 26.2852C113.292 27.2671 112.083 27.7571 110.572 27.7571C109.116 27.7571 107.957 27.2876 107.093 26.3446C106.23 25.4037 105.799 24.2167 105.799 22.7858C105.799 21.2893 106.243 20.0614 107.135 19.1081C108.027 18.1549 109.226 17.6772 110.736 17.6772C112.192 17.6772 113.362 18.1467 114.247 19.0876C115.089 20.0019 115.511 21.1827 115.511 22.6259ZM113.225 22.6956C113.225 21.8039 113.027 21.0392 112.634 20.4017C112.171 19.6309 111.512 19.2455 110.656 19.2455C109.771 19.2455 109.097 19.6309 108.635 20.4017C108.239 21.0392 108.043 21.8162 108.043 22.7346C108.043 23.6263 108.241 24.391 108.635 25.0285C109.112 25.7993 109.777 26.1847 110.635 26.1847C111.477 26.1847 112.137 25.7932 112.613 25.008C113.021 24.3582 113.225 23.5874 113.225 22.6956Z" fill="white"/>
<path d="M132.038 17.874L128.935 27.5377H126.916L125.63 23.3414C125.304 22.2938 125.039 21.2524 124.833 20.2192H124.793C124.602 21.2811 124.336 22.3205 123.996 23.3414L122.63 27.5377H120.588L117.67 17.874H119.936L121.057 22.4681C121.328 23.5546 121.551 24.5898 121.73 25.5697H121.77C121.934 24.762 122.205 23.7329 122.588 22.4886L123.996 17.8761H125.792L127.141 22.3902C127.467 23.491 127.732 24.5509 127.936 25.5718H127.997C128.146 24.5775 128.371 23.5177 128.67 22.3902L129.873 17.8761H132.038V17.874Z" fill="white"/>
<path d="M143.468 27.5375H141.263V22.0025C141.263 20.2969 140.598 19.4441 139.265 19.4441C138.61 19.4441 138.082 19.6778 137.672 20.1473C137.266 20.6167 137.06 21.1702 137.06 21.8037V27.5355H134.855V20.6352C134.855 19.7865 134.828 18.866 134.775 17.8697H136.713L136.816 19.3806H136.877C137.134 18.9111 137.516 18.5237 138.019 18.2141C138.617 17.8533 139.286 17.6709 140.018 17.6709C140.943 17.6709 141.713 17.962 142.325 18.5462C143.087 19.2617 143.468 20.3297 143.468 21.7484V27.5375Z" fill="white"/>
<path d="M149.546 27.5378H147.344V13.4399H149.546V27.5378Z" fill="white"/>
<path d="M162.527 22.6259C162.527 24.1122 162.092 25.3299 161.221 26.2852C160.308 27.2671 159.096 27.7571 157.588 27.7571C156.13 27.7571 154.971 27.2876 154.108 26.3446C153.246 25.4037 152.814 24.2167 152.814 22.7858C152.814 21.2893 153.258 20.0614 154.15 19.1081C155.042 18.1549 156.241 17.6772 157.75 17.6772C159.208 17.6772 160.375 18.1467 161.263 19.0876C162.104 20.0019 162.527 21.1827 162.527 22.6259ZM160.238 22.6956C160.238 21.8039 160.041 21.0392 159.647 20.4017C159.186 19.6309 158.526 19.2455 157.672 19.2455C156.784 19.2455 156.111 19.6309 155.65 20.4017C155.255 21.0392 155.059 21.8162 155.059 22.7346C155.059 23.6263 155.257 24.391 155.65 25.0285C156.128 25.7993 156.793 26.1847 157.651 26.1847C158.492 26.1847 159.151 25.7932 159.626 25.008C160.036 24.3582 160.238 23.5874 160.238 22.6956Z" fill="white"/>
<path d="M173.196 27.5377H171.216L171.052 26.4246H170.991C170.314 27.3122 169.348 27.7571 168.094 27.7571C167.158 27.7571 166.401 27.4639 165.831 26.8817C165.313 26.3528 165.055 25.6948 165.055 24.9137C165.055 23.7329 165.56 22.833 166.576 22.2098C167.59 21.5866 169.016 21.2811 170.852 21.2955V21.1151C170.852 19.842 170.167 19.2065 168.793 19.2065C167.815 19.2065 166.952 19.4464 166.208 19.922L165.759 18.5116C166.681 17.956 167.819 17.6772 169.161 17.6772C171.753 17.6772 173.053 19.0097 173.053 21.6747V25.2335C173.053 26.1991 173.101 26.9678 173.196 27.5377ZM170.907 24.2167V22.7264C168.475 22.6854 167.259 23.3352 167.259 24.6739C167.259 25.1782 167.398 25.5554 167.682 25.8075C167.966 26.0597 168.328 26.1847 168.759 26.1847C169.243 26.1847 169.695 26.0351 170.108 25.7378C170.522 25.4385 170.777 25.0593 170.871 24.5939C170.894 24.4894 170.907 24.3623 170.907 24.2167Z" fill="white"/>
<path d="M185.724 27.5378H183.768L183.665 25.9859H183.604C182.979 27.1667 181.915 27.7571 180.419 27.7571C179.224 27.7571 178.229 27.3 177.44 26.3857C176.651 25.4714 176.258 24.2844 176.258 22.8269C176.258 21.2627 176.685 19.9958 177.543 19.0282C178.374 18.1262 179.392 17.6752 180.604 17.6752C181.936 17.6752 182.868 18.1119 183.398 18.9872H183.44V13.4399H185.646V24.9343C185.646 25.8752 185.672 26.7424 185.724 27.5378ZM183.44 23.4624V21.8511C183.44 21.5723 183.419 21.3468 183.379 21.1746C183.255 20.658 182.987 20.2234 182.581 19.8728C182.171 19.5223 181.677 19.346 181.107 19.346C180.284 19.346 179.641 19.6637 179.167 20.3013C178.698 20.9388 178.46 21.7527 178.46 22.7469C178.46 23.7022 178.685 24.4771 179.138 25.0737C179.615 25.7092 180.259 26.0269 181.065 26.0269C181.788 26.0269 182.367 25.7625 182.807 25.2315C183.231 24.7416 183.44 24.1512 183.44 23.4624Z" fill="white"/>
<path d="M204.58 22.6259C204.58 24.1122 204.144 25.3299 203.273 26.2852C202.36 27.2671 201.153 27.7571 199.64 27.7571C198.187 27.7571 197.028 27.2876 196.161 26.3446C195.298 25.4037 194.867 24.2167 194.867 22.7858C194.867 21.2893 195.311 20.0614 196.203 19.1081C197.095 18.1549 198.294 17.6772 199.807 17.6772C201.26 17.6772 202.432 18.1467 203.316 19.0876C204.157 20.0019 204.58 21.1827 204.58 22.6259ZM202.295 22.6956C202.295 21.8039 202.097 21.0392 201.704 20.4017C201.239 19.6309 200.583 19.2455 199.725 19.2455C198.841 19.2455 198.168 19.6309 197.703 20.4017C197.307 21.0392 197.112 21.8162 197.112 22.7346C197.112 23.6263 197.31 24.391 197.703 25.0285C198.18 25.7993 198.845 26.1847 199.704 26.1847C200.545 26.1847 201.208 25.7932 201.683 25.008C202.089 24.3582 202.295 23.5874 202.295 22.6956Z" fill="white"/>
<path d="M216.432 27.5375H214.23V22.0025C214.23 20.2969 213.565 19.4441 212.229 19.4441C211.575 19.4441 211.047 19.6778 210.639 20.1473C210.231 20.6167 210.027 21.1702 210.027 21.8037V27.5355H207.82V20.6352C207.82 19.7865 207.795 18.866 207.742 17.8697H209.678L209.781 19.3806H209.842C210.1 18.9111 210.483 18.5237 210.984 18.2141C211.583 17.8533 212.25 17.6709 212.985 17.6709C213.908 17.6709 214.678 17.962 215.29 18.5462C216.054 19.2617 216.432 20.3297 216.432 21.7484V27.5375Z" fill="white"/>
<path d="M231.268 19.4832H228.841V24.1777C228.841 25.3708 229.272 25.9674 230.126 25.9674C230.521 25.9674 230.85 25.9346 231.108 25.8669L231.165 27.4967C230.73 27.6566 230.157 27.7365 229.453 27.7365C228.582 27.7365 227.904 27.4782 227.414 26.9616C226.922 26.445 226.678 25.5758 226.678 24.3561V19.4832H225.229V17.874H226.678V16.1028L228.838 15.4673V17.8719H231.266V19.4832H231.268Z" fill="white"/>
<path d="M242.941 27.5378H240.734V22.0438C240.734 20.3115 240.069 19.4444 238.737 19.4444C237.715 19.4444 237.017 19.9466 236.634 20.9511C236.569 21.1623 236.531 21.4206 236.531 21.724V27.5357H234.328V13.4399H236.531V19.264H236.573C237.267 18.2041 238.262 17.6752 239.552 17.6752C240.465 17.6752 241.22 17.9663 241.819 18.5506C242.566 19.2783 242.941 20.3607 242.941 21.7916V27.5378Z" fill="white"/>
<path d="M254.981 22.2486C254.981 22.634 254.951 22.9579 254.899 23.2224H248.287C248.316 24.1777 248.632 24.9054 249.244 25.4097C249.803 25.8607 250.525 26.0862 251.409 26.0862C252.387 26.0862 253.279 25.9345 254.082 25.6291L254.427 27.1215C253.487 27.5192 252.38 27.718 251.099 27.718C249.564 27.718 248.354 27.2773 247.479 26.3958C246.6 25.5143 246.164 24.3314 246.164 22.8472C246.164 21.3897 246.57 20.1761 247.388 19.2085C248.242 18.1753 249.397 17.6587 250.855 17.6587C252.282 17.6587 253.365 18.1753 254.097 19.2085C254.688 20.0285 254.981 21.0432 254.981 22.2486ZM252.877 21.6931C252.894 21.0555 252.749 20.5061 252.45 20.0428C252.067 19.4463 251.484 19.147 250.695 19.147C249.976 19.147 249.389 19.4381 248.941 20.0223C248.575 20.4877 248.358 21.0432 248.287 21.6931H252.877Z" fill="white"/>
<path d="M112.85 64.5827H108.072L105.455 56.5692H96.3589L93.8661 64.5827H89.2148L98.227 37.3013H103.793L112.85 64.5827ZM104.666 53.2072L102.3 46.0835C102.049 45.3557 101.58 43.6419 100.888 40.9441H100.804C100.528 42.1044 100.085 43.8182 99.4744 46.0835L97.1499 53.2072H104.666Z" fill="white"/>
<path d="M136.026 54.5057C136.026 57.8513 135.098 60.4958 133.243 62.4371C131.581 64.1653 129.517 65.0283 127.054 65.0283C124.395 65.0283 122.485 64.0976 121.321 62.2362H121.237V72.599H116.752V51.3876C116.752 49.2843 116.695 47.1257 116.586 44.9117H120.53L120.781 48.0297H120.865C122.361 45.6804 124.63 44.5078 127.677 44.5078C130.058 44.5078 132.046 45.4242 133.636 47.2589C135.231 49.0957 136.026 51.5106 136.026 54.5057ZM131.457 54.6656C131.457 52.7509 131.015 51.1724 130.127 49.9301C129.157 48.6345 127.855 47.9867 126.223 47.9867C125.116 47.9867 124.111 48.3475 123.213 49.0588C122.312 49.7763 121.723 50.7132 121.448 51.8735C121.309 52.4147 121.239 52.8575 121.239 53.206V56.486C121.239 57.9169 121.689 59.1243 122.59 60.1104C123.49 61.0964 124.66 61.5884 126.099 61.5884C127.788 61.5884 129.103 60.9529 130.043 59.686C130.986 58.4171 131.457 56.7443 131.457 54.6656Z" fill="white"/>
<path d="M159.245 54.5057C159.245 57.8513 158.317 60.4958 156.459 62.4371C154.8 64.1653 152.736 65.0283 150.272 65.0283C147.613 65.0283 145.703 64.0976 144.542 62.2362H144.458V72.599H139.973V51.3876C139.973 49.2843 139.916 47.1257 139.807 44.9117H143.751L144.001 48.0297H144.086C145.579 45.6804 147.849 44.5078 150.897 44.5078C153.276 44.5078 155.264 45.4242 156.859 47.2589C158.447 49.0957 159.245 51.5106 159.245 54.5057ZM154.675 54.6656C154.675 52.7509 154.232 51.1724 153.344 49.9301C152.374 48.6345 151.076 47.9867 149.441 47.9867C148.333 47.9867 147.329 48.3475 146.429 49.0588C145.529 49.7763 144.942 50.7132 144.666 51.8735C144.529 52.4147 144.458 52.8575 144.458 53.206V56.486C144.458 57.9169 144.908 59.1243 145.804 60.1104C146.705 61.0944 147.874 61.5884 149.317 61.5884C151.007 61.5884 152.321 60.9529 153.262 59.686C154.204 58.4171 154.675 56.7443 154.675 54.6656Z" fill="white"/>
<path d="M185.204 56.9324C185.204 59.253 184.377 61.1411 182.717 62.5986C180.893 64.1915 178.354 64.9869 175.092 64.9869C172.079 64.9869 169.664 64.4211 167.836 63.2874L168.875 59.6446C170.844 60.8049 173.005 61.3871 175.359 61.3871C177.048 61.3871 178.363 61.014 179.307 60.2719C180.248 59.5298 180.717 58.5335 180.717 57.2912C180.717 56.1842 180.33 55.2514 179.553 54.495C178.781 53.7385 177.492 53.0354 175.691 52.3855C170.789 50.6041 168.341 47.9944 168.341 44.5627C168.341 42.32 169.199 40.4812 170.918 39.0503C172.63 37.6173 174.915 36.9019 177.772 36.9019C180.319 36.9019 182.435 37.3344 184.125 38.1975L183.003 41.7604C181.426 40.924 179.642 40.5058 177.645 40.5058C176.068 40.5058 174.835 40.885 173.951 41.6394C173.205 42.3139 172.83 43.1359 172.83 44.1097C172.83 45.188 173.257 46.0797 174.115 46.7808C174.862 47.4286 176.219 48.1297 178.188 48.8862C180.597 49.8312 182.366 50.9362 183.504 52.2031C184.638 53.4659 185.204 55.0464 185.204 56.9324Z" fill="white"/>
<path d="M200.032 48.1908H195.089V57.7418C195.089 60.171 195.959 61.3846 197.705 61.3846C198.507 61.3846 199.172 61.317 199.698 61.1817L199.822 64.5006C198.938 64.8225 197.775 64.9844 196.334 64.9844C194.563 64.9844 193.178 64.4576 192.179 63.4059C191.184 62.3522 190.683 60.5851 190.683 58.1026V48.1867H187.738V44.9067H190.683V41.3049L195.089 40.0093V44.9067H200.032V48.1908Z" fill="white"/>
<path d="M222.339 54.585C222.339 57.6088 221.451 60.0913 219.68 62.0327C217.822 64.0314 215.357 65.0277 212.283 65.0277C209.321 65.0277 206.963 64.0704 205.204 62.1557C203.446 60.241 202.566 57.824 202.566 54.911C202.566 51.8626 203.471 49.3657 205.286 47.4244C207.098 45.481 209.542 44.5093 212.616 44.5093C215.578 44.5093 217.961 45.4666 219.76 47.3834C221.481 49.2427 222.339 51.6433 222.339 54.585ZM217.685 54.7265C217.685 52.9122 217.288 51.3563 216.482 50.0586C215.542 48.4883 214.198 47.7052 212.456 47.7052C210.653 47.7052 209.283 48.4904 208.343 50.0586C207.537 51.3583 207.14 52.9389 207.14 54.8085C207.14 56.6227 207.537 58.1787 208.343 59.4743C209.313 61.0446 210.668 61.8277 212.416 61.8277C214.128 61.8277 215.472 61.0282 216.442 59.4333C217.269 58.111 217.685 56.5387 217.685 54.7265Z" fill="white"/>
<path d="M236.916 48.7554C236.472 48.6755 235.998 48.6345 235.502 48.6345C233.924 48.6345 232.704 49.2146 231.846 50.377C231.099 51.402 230.724 52.6976 230.724 54.2617V64.5835H226.241L226.284 51.1068C226.284 48.8395 226.227 46.7751 226.115 44.9137H230.022L230.186 48.6775H230.31C230.783 47.384 231.53 46.3426 232.552 45.5615C233.552 44.8584 234.631 44.5078 235.794 44.5078C236.209 44.5078 236.583 44.5365 236.916 44.5878V48.7554Z" fill="white"/>
<path d="M256.975 53.8167C256.975 54.5998 256.923 55.2599 256.811 55.799H243.356C243.409 57.7424 244.059 59.2287 245.308 60.2537C246.442 61.17 247.908 61.6292 249.709 61.6292C251.701 61.6292 253.519 61.3197 255.153 60.6985L255.856 63.7325C253.946 64.5443 251.691 64.9482 249.089 64.9482C245.958 64.9482 243.501 64.0503 241.713 62.2565C239.929 60.4628 239.035 58.054 239.035 55.0323C239.035 52.066 239.866 49.5957 241.53 47.6257C243.272 45.5224 245.626 44.4707 248.588 44.4707C251.497 44.4707 253.7 45.5224 255.196 47.6257C256.38 49.2964 256.975 51.3628 256.975 53.8167ZM252.699 52.683C252.728 51.3874 252.436 50.2681 251.828 49.3231C251.051 48.1074 249.859 47.5006 248.253 47.5006C246.787 47.5006 245.594 48.0931 244.684 49.2821C243.937 50.2271 243.493 51.3608 243.356 52.681H252.699V52.683Z" fill="white"/>
</svg>
