<svg width="756" height="762" viewBox="0 0 756 762" fill="none" xmlns="http://www.w3.org/2000/svg">
<path d="M305.754 684.775L297.562 734.305C312.91 738.915 328.996 740.557 344.959 739.144C367.514 736.706 393.613 741.468 554.814 741.468C567.691 741.468 583.503 740.897 583.503 738.534C583.503 736.172 577.674 722.456 576.493 713.96C575.311 705.464 570.32 678.527 566.548 670.945C562.777 663.363 453.849 609.185 406.528 633.188C359.208 657.191 305.754 684.775 305.754 684.775Z" fill="#FF9C9F"/>
<path d="M474.651 527.071C474.947 528.422 475.087 529.803 475.07 531.186C475.07 531.834 473.965 532.481 473.127 533.015C470.041 535.034 398.413 584.259 398.222 583.65C396.508 576.868 391.898 584.107 436.627 552.522C459.906 536.139 469.507 529.929 472.594 527.871C473.432 527.3 474.46 526.766 474.651 527.071Z" fill="#D9D9D9"/>
<path d="M437.503 538.086C441.656 535.533 441.999 534.047 433.693 533.323C431.026 533.095 391.479 530.885 384.164 530.885C379.477 530.885 379.973 529.247 378.182 524.294C377.648 522.884 378.182 523.227 387.44 523.532C399.746 523.951 458.801 525.094 468.517 526.389C466.84 527.913 395.708 575.576 395.517 574.967C392.66 565.937 392.164 565.975 393.384 565.937C398.565 565.937 398.527 566.47 403.175 562.737C406.261 560.07 434.341 539.953 437.503 538.086Z" fill="#D9D9D9"/>
<path d="M433.123 536.138C431.104 538.5 400.09 560.522 398.566 561.436C396.014 562.922 390.946 562.96 390.222 561.132C387.636 555.099 385.496 548.885 383.822 542.539C380.926 533.547 381.193 533.928 384.926 533.928C401.271 534.728 428.589 535.338 433.123 536.138Z" fill="#D9D9D9"/>
<path d="M260.91 496.668C260.643 509.012 249.785 514.384 241.365 508.631C229.935 501.011 229.935 487.257 236.754 480.856C243.574 474.456 259.081 479.104 260.91 496.668Z" fill="#D9D9D9"/>
<path d="M390.448 575.761C394.03 585.972 394.03 585.553 391.896 585.667L351.586 585.439C353.161 583.738 354.985 582.286 356.996 581.133C359.055 580.029 361.018 578.755 362.864 577.323C363.448 576.775 363.871 576.076 364.086 575.303C364.301 574.531 364.3 573.714 364.083 572.942C363.664 570.808 365.035 571.227 369.341 569.132C370.084 568.777 370.716 568.227 371.17 567.541C371.624 566.854 371.882 566.057 371.917 565.234C371.952 564.412 371.763 563.596 371.37 562.873C370.976 562.15 370.393 561.548 369.684 561.131C355.51 552.749 323.011 579.99 310.743 572.561C314.172 569.132 318.706 568.103 325.983 561.131C333.045 554.929 339.629 548.205 345.681 541.014C349.491 535.985 343.471 532.289 337.451 533.889C331.702 535.521 326.552 538.791 322.63 543.3C319.392 547.986 314.362 548.596 306.057 552.863C299.542 556.254 288.683 565.208 276.148 557.778C270.357 554.311 274.472 548.977 278.587 543.605C293.026 524.555 281.025 516.059 273.786 525.736C263.766 539.109 271.195 528.822 256.984 545.319C253.402 549.51 254.698 551.034 250.126 565.779C244.068 585.362 259.003 581.476 221.932 579.647C221.932 579.647 193.662 577.133 186.613 576.218C184.289 575.914 182.803 575.19 177.393 558.578C176.669 556.368 171.678 544.786 169.43 538.766C164.21 525.05 151.942 486.836 136.893 448.012C130.073 430.41 134.988 426.066 147.865 423.628C170.116 419.437 271.614 422.218 294.284 424.047C358.52 429.343 333.07 412.846 390.448 575.761ZM228.599 496.513C232.409 519.945 263.918 522.536 265.099 497.313C263.994 466.148 223.799 466.376 228.599 496.513Z" fill="#D9D9D9"/>
<path d="M473.279 99.2487C476.06 102.259 479.603 101.42 478.651 103.059C473.012 113.46 476.936 117.88 469.621 112.241C466.687 110.107 471.907 97.7247 473.279 99.2487Z" fill="#FF9C9F"/>
<path d="M246.242 585.945C248.223 586.212 248.223 586.212 248.223 588.65C247.548 592.426 247.484 596.285 248.032 600.08C245.987 598.788 244.475 596.802 243.776 594.485C243.076 592.169 243.234 589.678 244.222 587.469C244.527 585.755 244.603 585.717 246.242 585.945Z" fill="#FFC280"/>
<path d="M290.362 607.085C292.572 604.875 306.783 604.342 304.954 606.361C281.142 633.031 251.995 624.611 243.994 616.382C236.793 608.762 233.936 609.562 229.631 604.228C224.449 597.789 222.239 595.884 221.325 592.15C219.382 584.53 218.124 583.882 220.639 584.187C242.47 586.892 239.003 583.12 238.317 592.417C238.051 595.96 240.337 598.437 245.937 605.066C248.324 607.247 250.872 609.247 253.557 611.048C259.611 614.938 266.712 616.879 273.903 616.61C279.084 616.344 286.171 611.352 290.362 607.085Z" fill="#FFC280"/>
<path d="M409.728 581.827C420.396 575.007 420.053 572.683 419.215 577.826C416.433 594.857 423.025 619.736 418.681 652.159C417.258 659.063 416.95 666.151 417.767 673.152C418.986 679.363 417.31 685.382 416.624 694.717C416.624 695.631 416.357 696.203 415.519 696.393C413.773 696.894 411.938 696.998 410.147 696.698C397.143 694.132 383.879 693.135 370.637 693.726C346.787 693.726 348.615 689.345 326.784 684.849C318.059 683.058 321.298 685.954 292.837 679.286C289.675 678.563 294.818 666.79 299.238 640.577C304.038 611.811 306.515 611.888 310.211 606.935C312.192 604.306 315.011 608.84 327.127 604.496C336.309 601.22 344.234 600.991 348.806 596.876C350.406 595.428 353.302 594.514 353.416 592.076C353.416 591.237 353.759 590.933 355.245 590.818C356.731 590.704 394.564 591.085 395.402 590.818C398.831 590.171 401.003 587.389 409.728 581.827Z" fill="#FFC280"/>
<path d="M525.78 427.788C526.276 435.18 528.181 443.6 520.485 445.695C511.837 447.527 502.982 448.194 494.157 447.676C487.86 446.671 481.463 446.428 475.107 446.953C469.24 447.219 461.277 447.638 462.268 441.39C464.478 427.179 461.772 396.394 461.734 395.67C461.734 392.47 462.115 391.174 464.668 391.517C467.201 391.786 469.755 391.786 472.288 391.517C477.355 391.06 486.042 390.869 489.89 394.222C492.291 396.318 494.919 397.461 497.51 395.518C500.109 393.557 503.14 392.251 506.349 391.708C512.896 390.755 519.509 390.335 526.123 390.45C525.183 402.875 525.069 415.348 525.78 427.788ZM502.654 440.78C503.111 443.143 506.692 443.295 506.464 440.056C504.063 419.673 508.369 397.461 503.759 397.423C501.93 397.423 501.777 425.883 501.968 429.274C501.769 433.118 501.948 436.972 502.501 440.78H502.654ZM482.308 441.161C483.032 429.312 481.775 434.303 481.584 401.309C481.584 399.747 481.584 397.499 480.213 397.156C478.841 396.813 478.308 397.88 478.232 399.099C477.459 413.233 477.701 427.405 478.956 441.504C478.917 443.524 482.042 443.447 482.156 441.161H482.308Z" fill="#FFC280"/>
<path d="M529.361 367.321C529.844 373.121 529.184 378.959 527.418 384.504C525.894 389.19 517.969 384.504 505.968 387.247C502.022 387.751 498.263 389.231 495.033 391.552C492.823 393.153 494.157 389.495 484.86 387.971C474.649 386.333 468.096 387.971 463.219 386.904C456.285 385.266 458.647 376.198 458.724 376.198C457.962 360.692 455.142 364.082 496.557 362.977C527.761 362.139 528.942 362.177 529.361 367.321ZM497.776 382.104C498.195 377.722 490.651 377.646 491.413 382.751C491.53 383.57 491.959 384.311 492.61 384.82C493.261 385.329 494.084 385.567 494.906 385.483C495.728 385.399 496.486 385.001 497.021 384.371C497.556 383.741 497.827 382.929 497.776 382.104Z" fill="#FFC280"/>
<path d="M408.813 281.937C409.235 284.318 408.998 286.768 408.127 289.024C405.613 275.918 394.183 286.509 391.973 299.692C388.773 318.437 389.382 319.961 388.392 318.475C376.2 299.997 379.933 313.637 373.837 292.605C372.039 288.076 368.518 284.445 364.046 282.509C361.76 281.328 359.131 277.48 359.855 276.375C364.274 269.86 360.807 268.145 368.503 258.696C370.1 256.686 371.915 254.859 373.914 253.248C373.154 256.087 373.404 259.101 374.62 261.777C375.836 264.452 377.943 266.622 380.581 267.917C385.42 270.888 383.896 275.156 392.735 276.756C403.06 278.699 408.051 278.737 408.813 281.937ZM382.143 305.102C382.143 309.75 388.468 308.912 386.944 304.378C386.372 302.626 385.648 302.168 383.82 302.435C382.753 302.702 382.296 303.464 382.296 305.178L382.143 305.102Z" fill="#FFC280"/>
<path d="M672.008 142.306C688.086 143.525 700.964 147.411 700.507 163.87C700.202 174.843 702.221 170.081 690.563 167.109C678.904 164.137 671.018 163.299 648.158 172.1C642.481 174.31 626.479 180.977 619.697 187.988C619.397 188.285 619.182 188.658 619.074 189.067C618.967 189.475 618.972 189.905 619.087 190.312C619.087 190.96 619.773 191.722 621.411 190.845C633.222 184.368 666.522 163.299 691.515 172.862C712.356 180.787 701.688 197.97 698.488 195.722C684.962 186.692 648.043 192.674 631.051 195.303C627.85 195.798 629.146 198.084 631.051 198.237C645.033 199.38 700.888 187.95 698.754 207.304C695.744 234.584 656.082 264.797 635.089 286.667C625.336 296.801 614.325 317.947 595.618 338.33C577.825 357.723 572.377 375.287 565.747 369.915C529.247 340.388 524.371 296.039 521.018 294.515C520.749 294.38 520.448 294.324 520.149 294.352C519.849 294.38 519.564 294.492 519.326 294.675C519.087 294.858 518.905 295.105 518.8 295.386C518.695 295.668 518.671 295.974 518.732 296.268C521.818 328.843 561.937 382.336 571.005 375.097C571.094 406.693 569.198 438.264 565.328 469.623C560.375 504.332 555.117 515.343 555.994 528.373C560.108 590.324 564.642 576.074 568.948 606.097C572.948 633.91 572.491 621.337 582.664 657.456C586.474 671.02 585.712 669.8 584.34 670.715C566.395 682.564 570.129 680.43 551.46 683.554C531.229 686.983 537.706 697.88 490.881 693.956C471.259 692.317 484.975 690.146 456.591 695.975C448.475 697.651 450.723 697.842 444.894 697.804C440.741 697.804 439.827 698.147 439.141 695.937C430.378 666.638 438.112 682.754 425.539 642.292C422.91 633.91 425.539 627.433 424.549 618.823C424.358 617.26 423.406 603.202 423.329 599.468C422.606 570.055 424.663 570.893 427.863 568.607C485.013 527.84 478.232 536.488 478.041 526.125C478.041 521.401 466.611 523.839 431.483 521.248C427.978 520.982 427.673 521.668 427.444 519.686C425.882 487.873 428.473 480.443 428.282 469.699C428.054 452.783 420.929 450.878 422.339 428.589C423.939 402.834 424.549 413.616 422.529 386.146C422.225 382.031 422.186 372.925 421.882 368.391C420.749 360.472 420.037 352.498 419.748 344.503C419.748 330.367 423.558 288.838 434.645 279.733C445.732 270.627 446.494 276.418 456.324 266.817C467.754 255.387 469.697 253.786 474.764 245.252C477.089 241.442 475.145 239.994 473.012 237.632C474.592 236.799 476.341 236.338 478.126 236.283C479.911 236.229 481.685 236.582 483.313 237.317C484.941 238.052 486.38 239.149 487.519 240.524C488.659 241.899 489.47 243.516 489.89 245.252C491.605 251.386 493.7 252.034 496.481 259.159C504.33 280.418 478.803 286.781 475.145 300.192C473.653 304.917 470.9 309.146 467.183 312.422C465.811 313.984 463.373 306.974 463.068 304.802C462.285 302.11 460.875 299.642 458.953 297.601C450.723 287.314 449.047 274.246 434.95 285.333C431.14 288.229 426.339 302.669 429.768 303.507C433.197 304.345 433.578 290.743 438.569 288.267C441.579 286.781 442.989 283.771 445.542 286.552C450.8 292.191 452.209 296.992 456.972 302.859C458.229 304.345 463.22 324.424 468.973 316.956C470.497 314.975 472.402 313.146 474.002 311.356C480.479 303.393 477.812 300.307 483.185 295.392C492.367 287.353 499.91 280.456 502.235 270.512C502.728 268.91 502.846 267.215 502.577 265.559C502.082 263.388 501.93 261.178 501.434 258.968C500.939 256.758 498.501 254.206 500.939 254.282C515.455 254.663 515.493 256.111 522.047 252.834C547.421 240.223 529.667 244.833 571.386 226.164C591.236 217.363 595.541 204.295 599.885 205.704C604.228 207.114 607.505 205.704 617.03 202.885C618.097 202.58 619.24 202.466 619.849 200.827C619.941 200.592 619.985 200.342 619.979 200.089C619.973 199.837 619.917 199.589 619.814 199.358C619.712 199.128 619.564 198.92 619.38 198.747C619.197 198.574 618.98 198.44 618.744 198.351C615.62 197.208 603.047 205.971 600.19 199.837C597.713 194.427 596.075 191.645 598.628 188.14C611.315 170.957 607.543 179.53 620.611 162.994C626.848 155.623 634.789 149.886 643.746 146.281C652.703 142.676 662.404 141.311 672.008 142.306ZM536.525 273.637C540.335 351.513 567.386 340.997 558.775 335.282C539.725 322.519 542.43 269.179 538.087 260.34C537.477 259.12 535.382 258.32 534.886 261.025C534.62 262.588 536.144 265.978 536.525 273.637ZM530.467 387.594C532.867 383.784 533.667 374.449 533.591 369.687C533.591 357.533 534.772 357.266 475.488 359.209C457.581 359.781 453.162 356.58 454.381 381.612C454.686 388.203 458.42 388.394 457.962 390.565C456.324 398.719 458.343 401.348 458.42 404.777C458.801 433.618 459.258 434.495 458.153 440.553C457.847 441.617 457.765 442.733 457.913 443.831C458.061 444.928 458.435 445.983 459.012 446.929C459.588 447.874 460.355 448.69 461.263 449.323C462.171 449.957 463.201 450.396 464.287 450.611C474.231 453.316 474.574 449.201 493.929 452.173C496.672 452.63 519.227 450.992 519.532 450.954C533.743 448.439 529.743 432.628 529.705 431.904C528.871 421.066 528.693 410.188 529.171 399.328C529.59 393.118 528.295 391.061 530.467 387.594ZM465.697 303.393C466.611 306.022 470.688 304.917 470.612 302.25C469.354 296.039 464.363 298.973 465.849 303.393H465.697ZM437.541 661.723C435.407 667.781 443.713 669.343 443.332 662.638C443.294 659.513 439.065 657.837 437.693 661.723H437.541ZM432.816 467.756C432.867 468.524 433.22 469.24 433.799 469.748C434.378 470.255 435.135 470.512 435.902 470.461C436.67 470.411 437.387 470.057 437.894 469.478C438.401 468.9 438.658 468.143 438.608 467.375C438.673 466.946 438.642 466.508 438.516 466.093C438.39 465.678 438.172 465.296 437.878 464.977C437.585 464.657 437.223 464.407 436.82 464.246C436.417 464.085 435.983 464.017 435.55 464.046C435.117 464.075 434.697 464.202 434.319 464.415C433.941 464.629 433.617 464.925 433.369 465.281C433.121 465.637 432.956 466.045 432.887 466.473C432.818 466.901 432.846 467.34 432.969 467.756H432.816ZM437.579 509.056C438.227 505.513 433.769 504.523 432.702 505.932C428.816 511.762 436.626 515.076 437.731 509.056H437.579ZM432.626 622.137C433.054 622.163 433.484 622.103 433.889 621.961C434.294 621.82 434.667 621.599 434.986 621.312C435.305 621.025 435.564 620.677 435.747 620.289C435.931 619.901 436.035 619.48 436.055 619.051C436.086 618.185 435.777 617.34 435.193 616.699C434.608 616.058 433.796 615.671 432.931 615.622C429.768 615.47 428.397 622.175 432.778 622.137H432.626ZM432.893 580.227C432.893 578.437 432.131 577.636 429.845 577.255C426.035 578.284 426.416 583.771 429.845 583.923C431.788 584.152 432.854 582.932 433.045 580.38L432.893 580.227ZM432.893 425.998C432.893 423.979 432.092 423.065 429.921 422.836C428.435 422.836 427.178 423.255 426.949 426.189C426.72 430.266 432.588 430.99 432.854 426.151L432.893 425.998ZM432.016 385.079C432.016 380.85 425.806 379.897 425.692 384.85C425.606 385.688 425.854 386.526 426.382 387.182C426.909 387.838 427.674 388.26 428.511 388.356C428.948 388.398 429.389 388.349 429.806 388.211C430.223 388.074 430.607 387.851 430.933 387.557C431.259 387.263 431.52 386.905 431.7 386.504C431.88 386.104 431.975 385.67 431.978 385.231L432.016 385.079ZM423.749 346.331C423.749 350.56 430.035 349.913 429.768 345.303C429.578 342.255 423.558 342.293 423.749 346.331Z" fill="#FFC280"/>
<path d="M422.912 512.174C423.331 523.985 427.103 521.509 400.052 520.632C375.744 519.794 377.192 520.251 376.315 517.851C350.979 445.461 350.56 429.84 336.386 424.773C323.737 420.239 313.526 422.182 313.107 419.363C310.745 391.74 316.117 388.082 313.107 370.823C313.107 369.604 310.288 368.423 310.402 371.928C310.66 379.573 310.213 387.225 309.069 394.788C306.707 412.428 310.44 420.277 307.583 420.239C298.439 420.239 270.969 418.067 237.06 417.038C236.069 417.038 236.412 416.734 236.641 416.353C240.908 410.104 242.775 405.418 247.271 407.437C251.133 408.734 255.32 408.687 259.151 407.304C262.983 405.92 266.235 403.282 268.378 399.817C268.378 399.551 271.312 391.892 271.35 391.816C272.074 389.683 271.845 391.816 285.942 391.816C295.048 391.816 304.573 376.576 303.049 366.899C301.83 358.784 304.573 354.631 297.41 346.744C284.761 332.799 273.445 341.334 272.455 354.897C272.455 356.688 270.512 356.307 270.092 355.354C268.949 352.688 267.921 349.182 263.806 348.916C262.358 348.916 262.091 348.497 266.092 341.524C270.092 334.552 273.331 332.228 277.522 330.818C284.304 328.532 283.885 323.198 288.342 321.522C312.65 312.568 303.582 303.196 351.55 283.917C355.627 282.317 356.084 280.869 356.808 282.164C360.618 288.527 368.238 286.851 370.448 298.128C370.958 303.665 373.511 308.813 377.611 312.568C384.583 318.512 386.374 330.361 391.327 324.379C396.28 318.398 392.889 292.528 402.757 287.879C404.928 293.823 402.414 310.739 412.548 318.055C419.102 322.893 413.844 331.275 416.892 366.785C422.073 426.906 413.806 429.802 419.444 450.185C428.169 480.589 421.159 463.406 422.912 512.174Z" fill="#FFC280"/>
<path d="M436.208 247.994C440.742 247.46 441.161 250.623 440.399 252.947C440.333 253.416 440.155 253.862 439.879 254.248C439.603 254.633 439.238 254.946 438.814 255.16C438.391 255.373 437.923 255.481 437.449 255.474C436.975 255.466 436.51 255.344 436.093 255.118C434.874 254.661 433.845 253.785 433.464 255.118C433.083 256.452 434.912 259.157 432.245 261.062C430.95 261.976 428.664 262.053 426.949 258.471C426.779 258.096 426.498 257.781 426.144 257.57C425.79 257.359 425.379 257.261 424.968 257.29C422.568 257.29 424.244 261.329 420.32 262.7C417.234 263.805 415.557 262.243 414.529 258.89C413.843 256.68 411.747 256.909 410.947 258.7C409.804 261.329 404.47 262.51 403.746 258.243C403.175 254.89 404.204 253.632 400.737 253.175C399.955 253.229 399.18 252.998 398.556 252.524C397.931 252.05 397.5 251.366 397.342 250.598C397.184 249.83 397.309 249.031 397.695 248.349C398.081 247.667 398.702 247.148 399.441 246.889C401.346 246.089 403.937 250.165 406.452 246.508C406.915 245.627 407.704 244.962 408.651 244.656C409.598 244.35 410.628 244.427 411.519 244.869C412.794 245.667 413.854 246.766 414.605 248.07C415.1 248.908 415.9 249.06 416.319 248.451C416.875 247.52 417.226 246.48 417.348 245.403C418.034 242.888 420.777 241.174 422.72 243.231C424.663 245.289 424.435 247.346 426.187 247.536C427.94 247.727 427.673 246.851 428.931 244.869C431.255 241.059 433.845 241.44 434.188 245.25C434.341 247.651 434.341 248.222 436.208 247.994Z" fill="#585858"/>
<path d="M484.137 66.7915C504.177 62.9815 502.768 89.9563 498.882 87.6322C497.586 86.8702 496.596 87.4036 496.519 85.7272C496.331 83.6736 495.639 81.6983 494.504 79.9762C493.37 78.2542 491.828 76.8386 490.015 75.8551C488.203 74.8716 486.175 74.3504 484.113 74.3379C482.051 74.3253 480.018 74.8217 478.193 75.7831C475.26 77.4976 455.333 57.9904 435.217 50.1799C425.082 46.3699 420.319 44.0458 417.576 42.979C416.389 42.4226 415.1 42.1153 413.79 42.076C412.479 42.0367 411.175 42.2662 409.956 42.7504C407.592 43.464 405.453 44.7764 403.746 46.5604C402.26 48.694 399.403 45.1888 394.335 48.8464C393.421 49.4941 391.44 50.3704 391.287 52.1992C391.135 54.028 389.192 53.9899 387.782 54.79C383.4 57.076 375.971 62.41 374.333 67.1725C373.38 69.9591 371.743 72.4615 369.57 74.4496C366.294 78.8311 372.656 82.0696 376.847 80.4313C380.757 78.7353 384.092 75.9431 386.449 72.3922C387.934 70.5253 389.535 70.6396 394.907 70.5634C396.659 70.5634 396.774 71.0206 398.069 72.1636C393.649 75.9736 381.953 75.2878 376.695 85.3081C374.371 89.6896 373.19 89.1181 368.846 95.5189C367.513 97.5001 368.122 101.043 373.799 101.462C375.601 101.664 377.424 101.422 379.111 100.758C380.797 100.094 382.296 99.0279 383.477 97.6525C391.516 90.8326 387.287 90.6802 394.907 90.9469C399.431 90.8306 403.903 89.9415 408.127 88.318C409.347 87.9751 428.32 101.386 438.607 103.863C445.539 105.421 452.611 106.264 459.715 106.377C461.315 106.377 466.077 108.74 465.125 109.768C458.648 117.122 454.495 111.407 450.152 111.026C445.808 110.645 444.399 113.273 439.369 111.026C437.236 110.111 438.417 105.311 434.835 108.13C433.264 109.171 431.377 109.627 429.504 109.418C427.63 109.209 425.89 108.349 424.587 106.987C423.291 105.539 420.777 104.891 420.777 107.216C421.032 108.197 421.012 109.231 420.719 110.202C420.427 111.173 419.872 112.045 419.116 112.722C418.361 113.399 417.433 113.855 416.436 114.039C415.438 114.224 414.409 114.13 413.461 113.769C411.404 113.235 411.366 109.959 409.651 110.264C406.908 110.911 410.833 120.894 400.774 117.884C399.897 117.551 399.096 117.042 398.424 116.388C397.751 115.734 397.219 114.948 396.862 114.08C396.505 113.213 396.33 112.281 396.347 111.342C396.365 110.404 396.575 109.479 396.964 108.625C397.764 107.444 398.145 105.92 396.964 105.12C394.107 103.177 393.154 111.33 387.02 105.73C385.306 104.168 384.658 105.311 383.896 107.482C383.202 109.446 381.82 111.092 380.005 112.115C378.191 113.138 376.067 113.468 374.028 113.045C370.218 112.245 367.78 106.377 365.494 107.939C361.988 110.34 373.342 120.284 361.684 129.885C353.416 136.667 354.064 124.627 354.064 124.513C354.029 124.234 353.915 123.97 353.736 123.753C353.557 123.535 353.32 123.373 353.053 123.285C352.785 123.198 352.498 123.188 352.225 123.257C351.952 123.325 351.705 123.47 351.511 123.675C350.292 124.703 350.101 127.218 346.101 129.085C339.966 131.904 333.947 121.465 340.614 117.236C345.262 114.34 344.424 114.15 341.338 112.702C340.532 112.395 339.817 111.888 339.261 111.228C338.706 110.567 338.328 109.776 338.164 108.929C338 108.082 338.055 107.207 338.324 106.387C338.592 105.567 339.066 104.829 339.7 104.244C340.233 103.672 341.491 102.872 340.843 101.577C340.195 100.281 339.395 100.015 338.138 100.091C331.775 100.51 326.708 90.2992 333.147 82.984C333.881 82.0282 334.906 81.3368 336.067 81.0139C337.228 80.6909 338.463 80.7539 339.585 81.1933C341.376 81.4219 342.405 80.1265 341.567 78.4882C335.966 67.7821 348.158 57.4189 356.807 66.0295C357.683 66.9439 357.988 68.2774 360.083 67.5535C362.179 66.8296 361.303 65.1151 360.655 63.172C359.727 60.7938 359.739 58.152 360.687 55.782C361.635 53.412 363.449 51.491 365.76 50.4085C369.799 49.1131 377.19 55.4758 374.942 48.3511C369.304 31.3585 393.992 19.2427 400.469 35.5114C401.269 37.6069 402.717 38.7118 403.708 36.883C405.918 33.073 405.918 28.9201 411.099 26.1769C416.281 23.4337 419.1 22.1002 422.91 25.9864C426.72 29.8726 426.339 36.121 429.692 32.7301C438.112 24.31 439.446 38.7499 442.913 38.7499C446.38 38.7499 443.865 34.2922 451.104 29.9488C456.552 26.7103 461.048 25.2244 465.544 29.644C472.173 36.1972 467.754 42.9409 469.125 45.8746C471.183 50.2561 475.183 39.2452 480.327 42.0646C481.93 43.1476 483.221 44.6326 484.07 46.371C484.919 48.1094 485.297 50.0403 485.166 51.9706C485.813 60.2383 472.021 69.0394 484.137 66.7915Z" fill="#585858"/>
<path d="M366.064 563.575C368.655 565.404 366.674 566.318 362.749 567.766C343.433 575.043 339.889 579.196 323.468 586.587C320.116 588.073 319.277 588.454 320.001 589.864C322.592 595.045 356.158 573.481 359.968 573.481C360.844 573.481 361.225 573.976 360.921 574.814C360.311 576.529 358.292 577.177 355.968 578.358C346.214 583.463 343.052 590.854 326.821 593.826C324.63 594.237 322.467 594.785 320.344 595.464C319.544 595.731 319.506 596.455 319.62 597.217C319.735 597.979 320.116 598.436 324.954 597.56C341.756 594.474 335.241 591.273 348.767 590.854C351.205 590.854 349.795 592.912 346.176 594.664C342.892 595.989 339.533 597.121 336.118 598.055C313.981 605.675 306.361 599.655 294.474 601.56C281.711 603.542 279.806 616.572 264.451 610.019C246.163 602.399 253.898 589.978 252.64 582.015C251.612 575.652 253.136 573.405 255.955 561.632C258.775 549.859 254.088 553.364 278.244 526.542C281.368 523.074 284.835 529.818 273.824 543.991C270.281 548.563 267.347 552.526 270.662 557.784C273.976 563.041 286.93 569.518 303.618 559.003C314.096 552.373 318.858 554.24 325.907 546.315C332.193 539.038 344.423 535.648 341.604 539.305C336.575 545.858 332.346 547.611 327.545 553.25C317.906 564.489 308.495 565.289 305.638 571.309C303.923 574.814 311.048 581.634 327.469 576.262C337.451 572.985 352.462 563.765 361.225 562.889C362.871 562.688 364.54 562.924 366.064 563.575Z" fill="#C49E91"/>
<path d="M640.08 128.205C644.767 129.767 664.16 136.777 659.13 137.539C620.535 143.75 620.497 161.123 604.152 174.42C597.408 179.868 596.837 184.707 594.398 183.374C558.813 164.324 570.053 166.533 531.648 144.016C474.498 110.412 478.308 113.27 479.032 110.907C482.537 98.2201 485.623 104.621 492.29 97.3057C499.568 89.3428 487.147 88.1236 521.17 99.2869C568.186 114.717 608.076 117.727 640.08 128.205Z" fill="#C49E91"/>
<path d="M489.129 124.738C490.118 132.259 489.873 139.89 488.406 147.332C487.758 150.608 486.5 145.579 484.1 147.675C483.639 148.157 483.382 148.798 483.382 149.465C483.382 150.132 483.639 150.774 484.1 151.256C484.9 152.247 484.9 152.247 483.872 152.932C481.471 154.494 482.538 155.333 477.356 156.285C467.412 158.114 467.679 158.876 467.26 157.314C463.45 143.903 422.797 143.826 417.235 158.876C416.016 162.229 412.548 156.819 405.309 161.657C402.68 163.41 405.309 149.084 378.639 153.313C367.628 155.066 369.838 160.933 363.78 135.406C363.133 132.625 364.695 132.777 365.076 132.32C376.506 117.957 365.838 114.68 373.458 116.737C375.824 117.3 378.308 117.094 380.548 116.148C382.789 115.203 384.669 113.567 385.917 111.48C386.412 110.603 386.793 110.337 387.822 110.87C391.632 112.813 393.27 110.07 393.041 112.165C392.051 120.928 405.271 126.605 410.605 118.719C411.482 117.461 411.405 117.461 412.853 117.728C414.74 118.176 416.716 118.073 418.546 117.431C420.376 116.79 421.984 115.636 423.178 114.108C424.512 112.432 423.635 111.327 425.617 112.432C430.913 115.48 433.237 112.432 435.37 113.537C437.155 114.71 439.174 115.478 441.287 115.787C443.4 116.097 445.555 115.94 447.6 115.328C450.687 113.994 453.468 117.461 457.583 117.537C465.431 117.537 465.203 113.042 467.489 115.175C474.461 121.462 478.461 117.957 479.642 117.766C480.176 117.766 482.424 118.833 482.538 119.366C482.652 119.9 482.538 120.585 482.957 121.614C483.256 122.082 483.722 122.418 484.261 122.552C484.799 122.687 485.369 122.61 485.853 122.338C487.682 121.5 488.71 122.224 489.129 124.738ZM482.348 129.539C482.307 129.835 482.331 130.137 482.417 130.423C482.503 130.709 482.649 130.974 482.846 131.199C483.042 131.425 483.285 131.605 483.557 131.729C483.829 131.852 484.125 131.916 484.424 131.916C484.723 131.916 485.019 131.852 485.291 131.729C485.563 131.605 485.806 131.425 486.002 131.199C486.199 130.974 486.345 130.709 486.431 130.423C486.517 130.137 486.541 129.835 486.5 129.539C486.424 126.224 482.424 126.529 482.348 129.539ZM482.538 140.207C482.548 140.716 482.757 141.2 483.12 141.556C483.484 141.913 483.972 142.112 484.481 142.112C484.856 142.104 485.221 141.986 485.529 141.773C485.837 141.559 486.075 141.259 486.214 140.91C486.352 140.561 486.384 140.179 486.307 139.812C486.229 139.445 486.045 139.11 485.777 138.847C485.509 138.584 485.169 138.407 484.801 138.336C484.432 138.266 484.051 138.306 483.706 138.451C483.36 138.596 483.064 138.84 482.857 139.153C482.649 139.465 482.538 139.832 482.538 140.207ZM481.052 145.96C481.078 145.705 481.054 145.447 480.98 145.201C480.906 144.955 480.784 144.726 480.621 144.528C480.458 144.329 480.257 144.165 480.03 144.045C479.804 143.924 479.555 143.85 479.3 143.826C478.782 143.794 478.272 143.962 477.875 144.295C477.477 144.628 477.224 145.102 477.166 145.617C477.092 145.898 477.08 146.191 477.132 146.477C477.184 146.762 477.297 147.033 477.465 147.27C477.633 147.507 477.851 147.704 478.104 147.847C478.356 147.99 478.637 148.076 478.926 148.099C479.216 148.122 479.507 148.08 479.778 147.978C480.05 147.876 480.296 147.716 480.499 147.508C480.702 147.3 480.856 147.051 480.952 146.776C481.048 146.502 481.082 146.211 481.052 145.922V145.96ZM475.223 123.938C475.223 127.139 479.719 126.986 479.681 123.938C479.614 123.397 479.354 122.897 478.947 122.534C478.54 122.17 478.014 121.967 477.468 121.963C476.923 121.958 476.394 122.152 475.981 122.509C475.568 122.865 475.298 123.36 475.223 123.9V123.938ZM477.89 136.968C478.186 137.009 478.488 136.985 478.774 136.899C479.06 136.813 479.325 136.667 479.55 136.47C479.775 136.274 479.956 136.031 480.08 135.759C480.203 135.487 480.267 135.191 480.267 134.892C480.267 134.593 480.203 134.297 480.08 134.025C479.956 133.753 479.775 133.51 479.55 133.314C479.325 133.117 479.06 132.971 478.774 132.885C478.488 132.799 478.186 132.775 477.89 132.816C477.587 132.757 477.274 132.766 476.975 132.842C476.675 132.919 476.397 133.06 476.158 133.257C475.92 133.453 475.728 133.7 475.597 133.98C475.465 134.259 475.397 134.564 475.397 134.873C475.397 135.182 475.465 135.487 475.597 135.766C475.728 136.046 475.92 136.293 476.158 136.489C476.397 136.686 476.675 136.827 476.975 136.904C477.274 136.98 477.587 136.989 477.89 136.93V136.968ZM476.252 152.399C476.133 151.985 475.883 151.621 475.54 151.361C475.196 151.102 474.777 150.962 474.347 150.962C473.916 150.962 473.497 151.102 473.153 151.361C472.81 151.621 472.56 151.985 472.442 152.399C472.357 152.694 472.343 153.004 472.399 153.306C472.455 153.607 472.58 153.891 472.765 154.136C472.95 154.381 473.189 154.58 473.463 154.716C473.738 154.853 474.04 154.924 474.347 154.924C474.653 154.924 474.956 154.853 475.23 154.716C475.505 154.58 475.744 154.381 475.928 154.136C476.113 153.891 476.238 153.607 476.294 153.306C476.35 153.004 476.336 152.694 476.252 152.399ZM473.775 140.969C473.805 140.543 473.708 140.119 473.494 139.749C473.281 139.38 472.961 139.083 472.577 138.897C472.193 138.711 471.763 138.644 471.34 138.705C470.918 138.767 470.524 138.953 470.209 139.241C469.894 139.528 469.672 139.904 469.572 140.318C469.473 140.733 469.5 141.168 469.65 141.568C469.8 141.967 470.066 142.312 470.415 142.559C470.763 142.805 471.177 142.941 471.603 142.95C471.888 142.982 472.176 142.955 472.449 142.871C472.723 142.787 472.976 142.648 473.194 142.462C473.412 142.276 473.589 142.048 473.715 141.791C473.841 141.535 473.914 141.255 473.927 140.969H473.775ZM469.584 132.435C472.175 132.435 472.823 127.824 469.584 127.863C469.284 127.873 468.989 127.942 468.715 128.066C468.442 128.19 468.195 128.367 467.99 128.586C467.785 128.805 467.625 129.063 467.519 129.344C467.413 129.625 467.364 129.925 467.374 130.225C467.384 130.525 467.453 130.82 467.577 131.094C467.702 131.367 467.878 131.614 468.098 131.819C468.317 132.024 468.575 132.184 468.856 132.29C469.137 132.395 469.436 132.445 469.736 132.435H469.584ZM469.241 121.309C469.241 120.723 469.008 120.161 468.594 119.747C468.18 119.332 467.617 119.1 467.031 119.1C466.445 119.1 465.883 119.332 465.469 119.747C465.054 120.161 464.822 120.723 464.822 121.309C464.822 121.916 465.062 122.497 465.491 122.926C465.92 123.354 466.501 123.595 467.108 123.595C467.714 123.595 468.295 123.354 468.724 122.926C469.153 122.497 469.394 121.916 469.394 121.309H469.241ZM452.477 145.96C454.306 145.96 457.24 143.293 453.773 141.502C447.677 138.764 441.386 136.484 434.951 134.682C432.375 134.564 429.827 135.258 427.667 136.667C425.506 138.075 423.843 140.126 422.912 142.531C421.997 145.617 426.455 145.312 427.255 142.95C428.3 141.225 429.918 139.921 431.825 139.267C433.733 138.612 435.81 138.648 437.694 139.369C445.772 142.264 450.534 145.77 452.63 145.96H452.477ZM395.213 137.159C402.185 139.788 402.147 132.015 391.403 132.168C384.964 132.168 379.973 135.254 370.296 144.779C369.727 145.353 369.376 146.108 369.305 146.913C369.305 147.827 370.334 148.017 371.057 148.17C375.477 149.084 383.402 132.701 395.213 137.159Z" fill="#C49E91"/>
<path d="M448.78 60.962C475.945 80.012 474.611 78.4118 473.468 79.7072C471.668 81.6266 470.396 83.9794 469.775 86.5366C469.154 89.0938 469.206 91.7682 469.925 94.2995C470.954 96.3188 469.925 97.0808 466.572 104.167C465.582 106.263 466.001 103.558 459.676 102.986C445.77 101.729 440.131 102.3 428.968 96.0521C407.822 84.2411 409.918 84.0506 402.298 86.4128C394.678 88.775 390.068 85.9556 386.41 90.2228C381.343 96.1283 379.247 99.4049 373.723 98.681C371.437 98.3762 371.475 97.2713 372.199 96.2807C373.113 95.0243 374.093 93.8162 375.132 92.6612C381.19 86.3366 378.942 85.6508 384.124 82.1456C392.735 76.3544 395.173 79.9358 400.583 74.9828C403.707 72.1253 401.993 66.4103 392.544 67.1342C383.629 67.1342 387.286 69.5345 377.304 76.8116C375.323 78.2594 371.894 77.4593 372.961 76.0115C381.343 64.5815 374.332 69.3059 386.981 59.5904C388.865 58.4292 390.965 57.6643 393.154 57.3425C394.982 56.8472 394.906 57.3425 407.441 62.2955C411.251 63.7814 415.861 62.0288 405.346 57.5711C401.909 56.0547 398.369 54.7815 394.754 53.7611C393.763 53.4944 395.021 52.2371 396.697 51.3227C397.96 50.6594 399.415 50.4573 400.812 50.7512C402.893 51.0368 404.922 51.6274 406.832 52.5038C410.642 53.9897 413.766 54.5231 418.49 56.3138C420.548 57.0758 422.033 55.1708 420.014 53.7611C417.08 51.6656 413.575 52.199 406.451 48.6176C407.656 47.4071 409.145 46.5182 410.782 46.0323C412.42 45.5464 414.153 45.479 415.823 45.8363C421.538 47.3603 424.319 50.1035 433.349 53.4563C438.815 55.233 444.008 57.759 448.78 60.962Z" fill="#C49E91"/>
<path d="M468.821 245.934C469.926 248.182 452.095 265.593 447.37 268.222C445.961 269.061 442.798 269.632 441.503 270.28C424.129 278.928 425.806 285.748 421.196 300.76C419.367 306.818 419.71 318.476 418.033 316.8C410.413 309.18 407.861 308.989 411.594 293.292C414.299 281.862 415.1 275.576 403.441 273.899C384.391 271.118 389.382 271.842 389.344 262.012C389.344 261.212 389.916 242.162 390.03 241.4C391.807 242.745 393.254 244.478 394.259 246.467C394.678 247.458 394.259 248.182 393.878 250.049C393.672 250.909 393.653 251.804 393.822 252.673C393.99 253.541 394.342 254.364 394.855 255.086C395.367 255.807 396.028 256.411 396.792 256.856C397.557 257.302 398.408 257.579 399.288 257.669C401.574 257.669 399.021 265.022 406.527 265.289C410.87 265.746 411.747 262.088 413.08 263.955C413.716 264.915 414.561 265.719 415.553 266.306C416.544 266.892 417.655 267.246 418.803 267.342C419.951 267.437 421.105 267.271 422.179 266.856C423.254 266.441 424.22 265.788 425.006 264.946C426.606 263.384 426.644 264.946 430.416 265.708C431.853 265.917 433.316 265.579 434.516 264.761C435.716 263.942 436.564 262.703 436.893 261.288C436.976 260.831 437.223 260.42 437.588 260.132C437.953 259.844 438.41 259.7 438.874 259.726C443.294 259.155 443.827 254.049 443.789 253.363C443.789 249.896 454.914 248.715 464.858 239.533C469.583 235.152 468.478 235.723 468.44 239C468.031 241.31 468.162 243.683 468.821 245.934Z" fill="#C49E91"/>
<path d="M499.112 169.543C499.112 166.838 499.645 160.17 494.616 156.093C493.125 155.201 491.395 154.791 489.662 154.921C487.93 155.051 486.28 155.713 484.938 156.817C483.343 158.39 482.087 160.273 481.248 162.351C480.409 164.428 480.005 166.655 480.062 168.895C480.062 170.571 477.852 172.286 477.166 170.571C476.48 168.857 476.747 168.095 477.471 162.951C477.737 161.084 476.823 162.266 472.099 163.904C462.878 167.142 475.451 184.516 447.715 188.783C441.08 189.475 434.374 188.853 427.979 186.954C415.596 182.116 419.406 166.342 414.034 164.933C410.224 163.866 405.995 166.19 406.643 168.514C407.582 170.728 407.893 173.157 407.544 175.536C407.194 177.914 406.197 180.151 404.662 182.001C400.052 186.688 396.546 190.231 400.052 195.451C401.161 197.003 402.674 198.221 404.428 198.973C406.181 199.726 408.106 199.983 409.996 199.718C417.882 199.718 417.959 193.355 421.426 196.289C424.893 199.223 430.722 197.508 428.284 192.822C427.331 190.993 426.379 190.65 427.331 189.317C429.655 186.116 436.208 194.765 430.951 199.68C426.798 203.49 422.797 201.509 419.521 200.213C410.491 208.709 393.194 203.109 394.641 190.841C394.908 188.555 385.955 195.679 373.801 192.669C371.743 192.174 371.553 192.326 371.553 194.346C372.172 203.553 374.403 212.58 378.144 221.016C382.907 230.236 393.384 238.542 396.165 243.266C397.385 245.514 398.528 242.161 402.719 244.181C403.519 244.562 404.319 245.171 404.738 244.6C405.157 244.028 405.652 242.618 407.862 241.856C408.819 241.526 409.846 241.45 410.842 241.637C411.837 241.824 412.767 242.268 413.539 242.923C414.377 243.495 414.72 243.19 415.787 242.047C416.465 241.154 417.371 240.459 418.41 240.037C419.45 239.615 420.583 239.48 421.692 239.647C423.674 239.99 424.588 241.818 425.502 243.114C425.807 243.647 425.921 244.638 426.874 243.114C427.544 241.89 428.498 240.845 429.655 240.066C430.995 239.441 432.524 239.359 433.922 239.837C436.628 240.942 436.475 243.647 436.97 244.904C436.97 245.324 437.885 244.447 439.599 244.904C445.124 246.238 439.599 250.048 454.039 241.971C485.053 224.483 472.594 187.564 483.376 191.945C485.018 192.838 486.907 193.173 488.756 192.898C490.605 192.623 492.314 191.754 493.625 190.421C498.159 185.354 499.683 176.439 499.112 169.543ZM430.989 221.244C404.547 219.187 403.747 224.102 399.366 223.607C396.356 223.264 399.099 218.73 415.444 216.406C422.531 216.596 426.874 215.72 431.903 217.93C433.58 218.692 432.513 221.359 430.989 221.244ZM434.265 228.026C432.894 227.645 430.798 227.569 431.332 225.435C431.404 225.123 431.597 224.852 431.868 224.681C432.139 224.51 432.466 224.453 432.779 224.521C439.142 225.283 438.723 215.415 441.657 220.101C442.724 221.816 438.152 228.598 434.342 228.026H434.265ZM494.616 164.933C492.749 165.618 490.806 160.703 489.206 165.123C487.866 168.162 487.468 171.533 488.063 174.8C488.901 176.744 493.054 176.02 493.93 179.982C494.16 181.032 494.024 182.129 493.546 183.092C493.068 184.055 492.276 184.826 491.301 185.278C489.929 185.926 487.986 186.573 487.72 184.973C487.339 182.725 491.187 183.487 491.072 180.935C490.958 178.382 480.9 181.468 485.662 165.39C489.206 153.35 497.168 163.828 494.616 164.933Z" fill="#C49E91"/>
<path d="M705.117 176.211C707.115 178.629 708.41 181.55 708.861 184.654C709.311 187.759 708.899 190.927 707.67 193.813C705.765 199.643 701.535 198.766 702.869 201.433C708.66 213.854 686.524 242.124 677.151 252.221C663.626 266.889 651.167 275.081 639.966 288.568C615.925 317.219 619.163 319.963 601.866 338.555C589.026 352.233 587.807 354.519 577.101 371.55C574.396 375.817 576.872 421.423 570.433 466.8C560.108 539.533 552.793 507.567 572.719 598.092C575.234 609.522 574.51 618.705 580.339 632.382C582.054 636.383 582.282 637.488 587.35 655.585C592.188 672.997 593.065 670.825 576.644 681.227C571.157 684.694 573.329 680.541 577.406 706.03C581.749 733.309 586.55 734.262 586.169 739.596C585.94 742.682 582.625 742.529 581.673 740.244C571.195 714.374 573.1 701.61 568.224 686.142C567.843 684.96 568.719 686.142 551.841 688.428C544.221 689.456 537.058 694.333 530.009 697.152C520.941 700.962 516.674 699.4 495.719 698.638C491.336 699.062 486.912 698.792 482.613 697.838C475.564 695.857 470.116 698.067 462.344 699.819C425.806 707.973 438.226 701.077 425.463 657.414C423.139 649.489 423.672 648.956 422.567 656.919C421.78 663.318 421.908 669.797 422.948 676.159C422.708 682.216 422.161 688.256 421.31 694.257C420.929 706.22 402.26 698.067 378.79 697.838C357.531 697.838 362.598 700.658 336.88 692.39C321.907 687.589 321.031 689.38 308.839 687.437C307.01 687.132 306.515 690.561 305.791 697.991C304.381 712.088 301.485 717.536 300.228 728.013C300.174 730.169 299.736 732.298 298.933 734.3C298.696 734.697 298.349 735.017 297.932 735.218C297.516 735.42 297.05 735.495 296.592 735.434C296.133 735.373 295.703 735.179 295.354 734.876C295.004 734.573 294.752 734.174 294.627 733.728C293.98 729.918 304.61 686.218 302.59 685.799C282.245 681.379 285.636 689.99 296.99 630.439C299.123 619.009 299.695 618.514 298.59 619.009C289.484 624.115 280.035 630.135 268.643 629.182C258.89 628.344 247.498 627.01 240.602 619.581C232.982 611.351 219.342 607.846 215.57 584.491C215.57 583.31 216.065 582.967 199.682 581.9C188.671 581.176 181.813 582.205 178.384 573.251C173.355 560.259 132.055 452.665 130.035 438.987C128.016 425.309 134.188 419.937 152.019 418.527C191.872 415.327 205.359 418.032 202.616 416.241C200.452 414.633 198.065 413.349 195.529 412.431C192.481 411.364 192.367 409.612 190.691 408.012C187.909 405.306 187.49 410.945 178.003 408.774C176.301 408.161 174.795 407.102 173.642 405.708C172.489 404.314 171.732 402.636 171.45 400.849C170.917 394.143 170.421 394.943 169.812 393.762C168.783 391.857 167.031 398.449 156.248 394.6C149.39 392.2 150.533 386.599 149.771 382.561C149.276 379.932 144.094 382.18 142.151 384.352C141.144 385.768 139.844 386.952 138.341 387.823C136.837 388.694 135.164 389.233 133.434 389.403C131.704 389.572 129.958 389.369 128.314 388.807C126.67 388.244 125.165 387.336 123.901 386.142C117.386 380.122 123.101 373.912 118.224 371.131C111.29 367.321 110.795 362.33 111.138 353.872C111.557 344.689 114.948 343.47 117.843 341.565C120.164 341.263 122.523 341.539 124.71 342.37C126.897 343.201 128.844 344.561 130.378 346.328C133.388 349.795 125.654 337.374 136.208 332.116C143.523 328.306 146.38 329.411 149.276 330.516C155.181 332.764 155.105 336.384 158.649 345.756C161.201 352.5 154 353.148 162.459 358.253C163.449 358.825 168.669 359.891 172.517 361.111C181.585 363.968 172.098 378.37 180.48 377.875C183.345 377.809 186.16 378.631 188.54 380.227C190.92 381.823 192.749 384.115 193.777 386.79C197.587 399.211 201.968 401.039 201.13 398.944C200.58 396.001 200.749 392.968 201.625 390.105C204.597 384.009 197.282 377.493 191.757 374.865C186.233 372.236 187.681 364.311 191.376 361.377C191.681 361.149 191.757 360.539 191.834 360.082C191.91 359.625 191.834 359.548 191.567 359.282C190.5 354.557 188.595 357.148 177.775 352.767C176.329 352.193 175.02 351.321 173.935 350.207C172.849 349.093 172.011 347.763 171.475 346.302C170.939 344.842 170.718 343.285 170.825 341.734C170.932 340.182 171.366 338.671 172.098 337.298C174.803 332.345 176.479 331.85 175.184 331.164C169.164 327.887 173.431 320.115 168.135 321.906C161.087 324.268 150.724 320.686 149.619 314.286C149.314 312.419 147.371 310.78 145.504 312.304C143.637 313.828 143.066 317.334 138.722 317.6C137.389 317.6 133.274 321.41 129.35 318.591C112.89 306.475 131.864 291.921 127.445 290.283C120.396 287.806 123.025 301.713 113.5 301.027C97.2314 299.922 109.042 288.378 97.841 292.835C90.221 295.96 82.1057 285.939 78.4481 278.281C77.2389 276.042 76.6098 273.536 76.6181 270.991C76.6264 268.446 77.2718 265.944 78.4954 263.712C79.719 261.481 81.4819 259.592 83.6233 258.217C85.7646 256.841 88.2162 256.025 90.7544 255.84C91.8593 255.84 92.9642 256.145 92.2403 255.04C81.1532 237.438 92.5451 236.828 101.918 232.485C106.528 230.313 106.871 228.103 105.728 222.998C105.664 222.717 105.533 222.456 105.347 222.236C103.175 218.655 103.099 224.255 96.1265 224.979C90.3353 225.627 90.221 223.227 87.7826 219.76C81.5723 225.055 86.0681 228.37 80.1626 236.447C78.7529 238.467 77.1908 246.811 64.1225 242.124C62.1789 241.256 60.6298 239.694 59.7791 237.743C52.1591 223.608 60.0839 220.179 57.8741 215.835C56.9597 214.045 55.7405 210.006 54.788 208.52C53.2051 205.835 52.4151 202.757 52.5095 199.642C52.6039 196.527 53.5788 193.502 55.3214 190.918C57.3407 188.746 65.3798 182.193 67.2086 180.745C71.0186 177.735 73.8761 178.421 84.2393 177.85C85.4966 177.85 86.1443 178.307 85.7252 173.201C85.3061 168.096 90.2591 169.163 87.935 167.791C77.1908 161.39 78.5624 153.123 84.125 142.074C85.1918 139.978 86.2205 139.026 90.983 139.75C94.5263 140.321 95.4407 138.911 101.079 135.94C101.88 135.52 101.765 135.178 100.813 133.501C97.3457 127.138 100.47 118.261 103.899 116.851C109.461 114.299 116.777 111.937 121.92 114.299C133.769 119.861 134.531 120.928 136.284 124.433C137.313 126.567 137.122 123.786 142.494 123.557C150.495 123.252 154.381 142.302 144.209 152.056C141.123 155.028 139.179 154.151 138.837 157.657C138.227 164.21 141.961 165.962 139.637 172.897C138.913 174.992 139.98 176.707 136.436 179.107C125.006 186.422 126.873 190.08 126.987 196.404C126.987 197.09 126.987 197.776 128.016 197.852C129.045 197.928 130.112 197.852 130.226 196.823C130.874 192.442 138.189 188.746 141.656 188.899C143.332 188.899 139.37 180.136 145.466 174.954C152.667 168.782 155.067 166.991 166.078 169.734C178.575 172.858 174.765 184.669 175.146 191.451C175.146 194.042 177.241 194.156 179.604 194.156C181.966 194.156 181.966 194.842 187.833 197.319C195.872 200.671 197.053 207.339 194.767 211.53C190.957 218.35 187.147 231.571 177.241 233.018C174.765 233.399 175.946 234.085 174.727 238.657C173.568 241.608 171.712 244.234 169.316 246.311C166.921 248.388 164.058 249.854 160.973 250.582C154.115 251.23 154.077 249.706 153.619 252.526C153.475 255.377 152.95 258.196 152.057 260.908C150.8 264.184 148.552 264.718 150.571 268.108C153.505 272.757 158.191 262.089 166.078 263.232C179.604 265.251 176.822 278.738 178.08 280.148C179.337 281.558 183.147 279.081 185.7 283.044C187.071 285.139 190.424 286.854 188.557 293.026C186.347 300.265 183.985 301.751 186.157 307.656C188.062 312.8 202.959 309.866 205.207 326.706C205.199 327.815 205.275 328.923 205.435 330.021C207.34 328.345 207.569 323.011 220.294 325.258C220.599 321.182 221.056 317.638 221.361 315.505C222.504 307.885 236.601 307.885 232.296 299.427C229.057 293.254 210.465 287.578 227.267 255.802C228.257 253.973 224.676 251.992 222.39 243.763C218.961 231.151 229.515 231.532 222.733 220.903C218.847 216.806 216.668 211.384 216.637 205.739C215.996 201.682 216.164 197.538 217.132 193.547C217.932 190.308 225.285 189.737 227.076 189.737C228.105 189.737 228.524 189.737 228.791 185.279C229.438 174.916 213.779 163.714 227.305 146.912C230.048 143.521 235.115 143.102 239.382 142.531C243.65 141.959 246.05 144.779 249.327 147.751C250.889 145.122 252.032 142.531 254.622 141.464C258.09 140.054 259.537 137.273 266.052 137.387C274.206 137.387 272.415 151.98 273.025 152.627C277.368 158.342 285.636 145.236 293.789 152.627C299.923 158.076 301.943 158.647 302.667 165.581C303.505 173.468 298.514 177.278 300.533 181.126C302.438 186.098 302.573 191.574 300.914 196.633C299.542 199.833 298.666 201.243 287.769 207.758C280.149 212.444 269.52 207.758 268.415 211.568C267.31 215.378 270.129 215.988 268.91 222.388C267.881 227.913 263.919 226.77 263.424 231.913C263.195 234.428 268.148 235.495 271.539 235.076C277.406 234.314 280.53 233.399 282.969 237.438C297.028 261.327 257.442 263.575 263.69 270.471C266.624 273.671 271.92 278.091 271.958 285.711C272.185 288.305 271.847 290.918 270.967 293.369C265.367 304.265 263.69 305.561 259.804 307.847C256.69 309.8 253.414 311.483 250.012 312.876C247.872 313.487 245.937 314.667 244.414 316.291C242.891 317.914 241.836 319.921 241.364 322.096C240.487 328.611 242.964 330.059 240.068 332.612C238.548 334.685 236.753 336.544 234.734 338.136C230.391 341.413 229.21 346.061 226.124 347.356C217.132 351.166 230.696 354.976 225.019 361.758C219.342 368.54 215.227 369.378 214.503 371.74C213.436 375.208 212.522 376.922 214.96 379.36C217.545 382.022 219.086 385.525 219.304 389.228C221.437 395.02 211.684 399.401 216.37 405.421C219.304 409.231 217.742 413.041 220.18 411.25C222.618 409.459 222.276 408.697 223.723 405.535C228.067 396.163 223.723 398.258 231.343 382.675C233.629 378.027 239.916 376.046 238.963 369.721C237.706 360.958 238.544 353.071 246.812 350.671C250.203 349.566 252.489 348.499 255.346 350.671C258.204 352.843 256.985 350.176 259.652 344.689C263.462 337.069 268.567 328.192 277.292 326.325C281.102 325.449 281.75 320.953 286.169 318.324C298.323 311.123 287.274 321.029 310.782 301.636C331.546 284.53 345.72 282.586 353.987 278.776C355.587 278.091 354.635 277.024 356.464 273.938C360.921 266.318 357.835 265.441 364.96 256.831C372.58 247.611 374.409 247.534 384.01 244.639C386.106 244.029 385.991 245.439 386.144 241.972C386.563 233.095 377.914 235.876 370.294 212.673C368.391 206.027 367.556 199.121 367.818 192.213C368.351 189.851 366.941 190.765 362.865 184.898C358.934 178.988 357.257 171.862 358.14 164.819C359.283 160.247 361.112 159.676 365.341 157.199C357.721 134.835 361.226 135.635 358.14 135.825C351.054 136.244 352.578 129.844 349.53 131.749C341.91 136.549 332.385 130.834 334.29 119.823C335.052 115.442 338.633 116.204 337.261 114.794C331.089 108.508 337.642 104.469 334.556 103.364C323.126 98.9825 325.107 79.6277 335.737 77.6084C339.166 76.9607 333.528 71.36 340.233 63.4733C344.843 57.9869 351.32 59.1299 356.426 60.7301C356.73 54.7865 358.026 50.0621 363.627 47.357C368.313 45.0711 371.247 48.3476 370.942 45.9854C369.57 26.0211 391.63 17.3343 401.841 30.4788C403.593 32.6885 402.565 23.9637 414.871 20.5728C425.73 17.5629 427.901 28.8786 429.654 27.6594C431.234 26.6863 433.094 26.2702 434.937 26.4774C436.781 26.6846 438.502 27.503 439.827 28.8024C442.379 31.736 442.532 33.0314 443.408 31.8884C454.228 17.9439 472.402 21.6396 472.935 37.8701C472.935 38.4797 472.935 40.5372 473.888 39.7371C481.775 33.8316 492.633 45.0329 487.756 58.787C487.109 60.7682 484.823 62.597 487.49 62.597C491.58 62.5716 495.544 64.0092 498.667 66.6501C501.79 69.2911 503.866 72.9615 504.52 76.9988C506.387 86.3714 501.777 88.7336 504.139 89.648C547.726 106.374 588.531 110.413 627.774 120.509C653.415 127.1 660.426 131.139 664.007 133.654C666.522 135.904 669.776 137.152 673.151 137.159C689.572 138.759 702.297 142.15 704.774 158.609C706.793 172.02 702.907 172.897 705.117 176.211ZM700.507 163.829C700.964 147.37 688.086 143.483 672.008 142.264C662.375 141.31 652.655 142.728 643.697 146.394C634.738 150.06 626.812 155.862 620.611 163.295C607.543 179.831 611.315 171.296 598.627 188.441C596.075 191.947 597.713 194.728 600.189 200.138C602.666 205.548 614.82 198.309 618.135 198.538C618.439 198.548 618.736 198.63 619.001 198.779C619.267 198.927 619.493 199.137 619.661 199.39C619.829 199.644 619.933 199.934 619.966 200.237C619.999 200.539 619.959 200.845 619.849 201.129C619.239 202.767 618.096 202.881 617.03 203.186C607.657 205.967 603.733 207.263 599.885 206.005C596.037 204.748 591.236 217.664 571.386 226.465C529.476 245.02 547.421 240.41 522.046 253.135C515.493 256.412 515.455 254.964 500.939 254.583C498.501 254.583 500.939 256.717 501.434 259.269C501.93 261.822 502.082 263.689 502.577 265.861C502.846 267.516 502.728 269.211 502.234 270.814C500.063 280.758 492.519 287.654 483.184 295.693C477.622 300.608 480.479 303.694 474.002 311.657C472.402 313.6 470.497 315.467 468.973 317.257C463.22 324.877 458.191 304.646 456.972 303.16C452.057 297.293 450.647 292.492 445.542 286.854C442.989 284.072 441.732 287.082 438.569 288.568C433.578 291.083 433.311 304.684 429.768 303.808C426.225 302.932 431.254 288.568 434.95 285.634C449.047 274.547 450.761 287.616 458.953 297.903C460.875 299.944 462.285 302.411 463.068 305.104C463.487 307.123 465.811 314.133 467.182 312.724C470.935 309.384 473.69 305.072 475.145 300.265C478.955 286.854 504.33 280.491 496.481 259.231C493.852 252.106 491.604 251.611 489.89 245.325C489.47 243.589 488.659 241.972 487.519 240.597C486.379 239.221 484.941 238.125 483.313 237.39C481.685 236.655 479.911 236.301 478.126 236.356C476.341 236.41 474.592 236.872 473.012 237.705C475.145 240.029 477.088 241.515 474.764 245.325C469.697 253.859 467.83 255.612 456.324 266.889C446.494 276.49 445.465 270.699 434.645 279.805C423.825 288.911 419.9 330.516 419.748 344.575C420.037 352.57 420.749 360.544 421.881 368.464C422.186 372.998 422.224 382.104 422.529 386.218C424.548 413.689 423.939 402.906 422.339 428.662C420.929 450.95 428.054 452.855 428.282 469.772C428.282 480.516 425.882 487.945 427.444 519.759C427.444 521.74 427.977 521.054 431.483 521.321C466.573 523.912 477.927 521.321 478.041 526.198C478.041 536.599 485.089 527.912 427.863 568.679C424.663 570.965 422.605 570.127 423.329 599.54C423.329 603.35 424.358 617.333 424.548 618.895C425.577 627.506 422.91 634.135 425.539 642.365C438.112 682.827 430.378 666.711 439.141 696.009C439.827 698.219 440.741 697.838 444.894 697.876C450.723 697.876 448.475 697.876 456.591 696.048C485.051 690.142 471.335 692.238 490.881 694.028C537.705 697.838 531.228 687.056 551.46 683.627C570.129 680.503 566.395 682.636 584.34 670.787C585.711 669.873 586.435 671.092 582.663 657.528C572.491 621.257 572.948 633.983 568.947 606.17C564.642 576.147 560.108 590.396 555.993 528.446C555.117 515.53 560.375 504.405 565.328 469.695C569.197 438.337 571.093 406.766 571.005 375.169C561.937 382.408 521.818 328.916 518.732 296.341C518.671 296.046 518.695 295.74 518.8 295.459C518.905 295.177 519.087 294.931 519.325 294.748C519.564 294.565 519.849 294.453 520.149 294.425C520.448 294.396 520.749 294.453 521.018 294.588C524.37 296.112 529.247 340.308 565.747 369.988C572.376 375.36 577.825 357.796 595.617 338.403C614.325 318.019 625.335 296.874 635.089 286.739C656.082 264.87 695.744 234.657 698.754 207.377C700.888 188.022 645.033 199.452 631.05 198.309C629.069 198.309 627.774 195.871 631.05 195.376C648.043 192.747 684.962 186.765 698.487 195.795C701.688 197.966 712.356 180.783 691.515 172.935C666.522 163.372 633.222 184.365 621.411 190.918C619.773 191.794 619.278 190.918 619.087 190.384C618.971 189.978 618.967 189.548 619.074 189.139C619.182 188.73 619.396 188.358 619.697 188.06C626.478 181.05 642.557 174.382 648.157 172.173C671.017 163.181 678.637 164.172 690.563 167.182C702.488 170.191 700.202 174.84 700.507 163.829ZM659.321 137.54C664.197 136.778 644.805 129.92 640.271 128.205C608.267 117.69 568.338 114.718 521.513 99.2873C487.49 88.124 499.91 89.3432 492.633 97.3061C485.966 104.621 482.88 98.2205 479.374 110.908C478.727 113.27 474.764 110.413 531.99 144.017C570.395 166.534 559.156 164.172 594.741 183.374C597.18 184.708 597.751 179.869 604.495 174.421C620.687 161.124 620.725 143.75 659.321 137.54ZM594.132 204.215C596.227 202.272 596.456 203.567 595.084 200.176C593.418 196.761 592.897 192.9 593.598 189.165C594.093 186.994 591.007 188.479 567.157 172.401C563.347 169.772 492.328 121.919 493.243 126.681C493.643 132.497 493.374 138.339 492.443 144.093C491.528 150.227 490.652 150.989 492.443 151.294C507.683 153.961 503.111 176.554 500.063 186.536C499.678 188.723 498.731 190.772 497.315 192.482C495.899 194.192 494.062 195.504 491.985 196.29C489.483 196.904 486.868 196.904 484.365 196.29C482.918 196.29 482.308 197.585 482.156 198.805C478.574 225.475 467.601 234.199 476.326 232.675C478.373 232.244 480.49 232.262 482.529 232.729C484.569 233.196 486.482 234.101 488.137 235.381C493.471 238.924 495.11 250.24 498.348 250.163C507.987 249.935 515.15 251.268 518.77 249.592C536.334 241.515 539.382 236.6 548.488 231.837C574.548 218.159 568.833 227.913 594.132 204.215ZM498.882 87.6287C502.692 89.9528 504.177 63.0542 484.137 66.788C472.021 69.0359 485.813 60.2348 485.166 52.0814C485.297 50.1512 484.919 48.2203 484.07 46.4818C483.221 44.7434 481.93 43.2584 480.327 42.1754C475.183 39.2417 471.183 50.2526 469.125 45.9854C467.754 43.0517 472.173 36.3081 465.544 29.7549C461.048 25.3353 456.552 26.8212 451.104 30.0597C443.865 34.3268 446.151 38.8226 443.027 38.8608C439.903 38.8988 438.15 24.3066 429.806 32.7267C426.453 36.1175 427.482 30.174 423.024 25.983C418.567 21.792 416.014 23.5446 411.061 25.983C406.108 28.4214 405.879 32.9553 403.86 36.8796C402.87 38.7084 401.422 37.6034 400.622 35.5079C394.335 19.2393 369.456 31.355 375.095 48.3476C377.419 55.4723 369.951 49.1096 365.913 50.405C363.561 51.4681 361.707 53.3909 360.729 55.7787C359.751 58.1665 359.725 60.838 360.655 63.2447C361.302 65.1878 362.064 67.0547 360.083 67.6262C358.102 68.1977 357.683 67.0166 356.807 66.1022C348.272 57.4916 336.08 67.8548 341.567 78.5609C342.405 80.1992 341.567 81.4946 339.585 81.266C338.463 80.8266 337.228 80.7637 336.067 81.0866C334.906 81.4096 333.881 82.101 333.147 83.0567C326.593 90.3719 331.775 100.583 338.138 100.164C339.395 100.164 340.157 100.164 340.843 101.65C341.529 103.135 340.233 103.745 339.7 104.317C339.066 104.902 338.592 105.64 338.324 106.46C338.055 107.28 338 108.155 338.164 109.002C338.328 109.849 338.706 110.64 339.261 111.3C339.817 111.961 340.531 112.468 341.338 112.775C344.386 114.223 345.148 114.413 340.614 117.309C333.947 121.462 339.966 131.977 346.101 129.158C350.101 127.291 350.292 124.776 351.511 123.748C351.704 123.543 351.952 123.398 352.225 123.329C352.498 123.26 352.785 123.27 353.053 123.358C353.32 123.446 353.557 123.608 353.736 123.825C353.915 124.043 354.029 124.306 354.063 124.586C354.063 124.586 353.492 136.74 361.683 129.958C373.113 120.357 361.95 110.413 365.493 108.012C367.779 106.45 370.065 112.318 374.028 113.118C376.067 113.541 378.191 113.21 380.005 112.187C381.82 111.165 383.202 109.519 383.896 107.555C384.658 105.383 385.305 104.24 387.02 105.802C393.078 111.403 394.107 103.25 396.964 105.193C398.145 105.993 397.764 107.517 396.964 108.698C396.575 109.552 396.365 110.477 396.347 111.415C396.33 112.353 396.505 113.285 396.862 114.153C397.219 115.021 397.751 115.806 398.424 116.461C399.096 117.115 399.896 117.624 400.774 117.956C410.832 121.042 406.908 111.06 409.651 110.336C411.366 109.955 411.404 113.308 413.461 113.842C414.409 114.203 415.438 114.297 416.436 114.112C417.433 113.927 418.361 113.472 419.116 112.795C419.872 112.118 420.427 111.246 420.719 110.275C421.012 109.303 421.032 108.27 420.777 107.288C420.472 104.964 423.177 105.612 424.587 107.06C425.89 108.422 427.63 109.282 429.504 109.491C431.377 109.7 433.264 109.244 434.835 108.203C438.417 105.383 437.236 110.184 439.369 111.098C444.399 113.194 446.075 110.603 450.152 111.098C454.228 111.594 458.648 117.194 465.125 109.841C466.077 108.812 461.315 106.526 459.715 106.45C452.611 106.337 445.539 105.494 438.607 103.936C428.511 101.459 409.537 88.0478 408.127 88.3907C403.903 90.0143 399.431 90.9034 394.907 91.0196C387.287 90.7529 391.516 91.0196 383.477 97.7252C382.296 99.1006 380.797 100.167 379.111 100.831C377.424 101.495 375.601 101.737 373.799 101.535C368.122 101.116 367.513 97.7252 368.846 95.5916C373.19 89.0384 374.371 89.7623 376.695 85.3808C381.953 75.3605 393.649 76.0463 398.069 72.2363C396.774 71.0933 396.659 70.598 394.907 70.6361C389.535 70.6361 387.934 70.6361 386.448 72.4649C384.128 76.013 380.834 78.8173 376.962 80.5421C372.771 82.028 366.408 78.9419 369.684 74.5604C371.763 72.5681 373.32 70.0952 374.218 67.3595C375.857 62.7113 383.286 57.263 387.668 54.977C389.077 54.1769 391.02 54.1388 391.173 52.3862C391.325 50.6336 393.306 49.6811 394.221 49.0334C399.288 45.2234 402.146 49.0335 403.632 46.7474C405.339 44.9635 407.478 43.651 409.842 42.9375C411.06 42.4533 412.365 42.2237 413.676 42.263C414.986 42.3024 416.275 42.6097 417.462 43.166C420.205 44.2328 425.082 46.4426 435.102 50.3669C455.067 57.9869 475.221 77.6465 478.079 75.9701C479.903 75.0088 481.937 74.5124 483.999 74.5249C486.061 74.5375 488.088 75.0586 489.901 76.0421C491.713 77.0257 493.255 78.4412 494.39 80.1632C495.524 81.8853 496.217 83.8607 496.405 85.9142C496.596 87.4001 497.586 86.8667 498.882 87.6287ZM493.624 190.27C498.158 185.355 499.682 176.44 499.263 169.544C499.263 166.839 499.796 160.171 494.767 156.094C493.276 155.202 491.546 154.792 489.813 154.922C488.081 155.052 486.431 155.714 485.089 156.818C483.466 158.378 482.182 160.255 481.317 162.333C480.452 164.411 480.024 166.645 480.06 168.896C480.06 170.572 477.85 172.287 477.165 170.572C476.479 168.858 476.745 168.096 477.469 162.952C477.736 161.086 476.822 162.267 472.097 163.905C462.877 167.143 475.45 184.517 447.713 188.784C441.663 189.327 435.565 188.89 429.654 187.489C415.671 184.022 419.405 166.343 414.033 164.934C410.223 163.867 405.994 166.191 406.641 168.515C407.58 170.729 407.892 173.158 407.542 175.537C407.193 177.915 406.196 180.152 404.66 182.002C400.05 186.689 396.545 190.232 400.05 195.452C401.16 197.004 402.673 198.222 404.426 198.974C406.179 199.727 408.105 199.984 409.994 199.719C417.881 199.719 417.995 193.356 421.424 196.29C424.853 199.224 430.721 197.509 428.282 192.823C427.33 190.994 426.339 190.613 427.33 189.318C429.578 186.079 436.245 194.728 430.949 199.681C426.796 203.491 422.796 201.51 419.519 200.214C410.49 208.711 393.192 203.11 394.64 190.842C394.907 188.556 385.953 195.68 373.799 192.67C371.742 192.175 371.551 192.328 371.551 194.347C372.17 203.554 374.401 212.581 378.143 221.017C382.905 230.237 393.383 238.543 396.164 243.267C397.383 245.515 398.526 242.162 402.717 244.182C403.517 244.563 404.317 245.172 404.736 244.601C405.156 244.029 405.651 242.62 407.861 241.858C408.818 241.527 409.845 241.451 410.841 241.638C411.836 241.825 412.766 242.269 413.538 242.924C414.376 243.496 414.719 243.191 415.785 242.048C416.464 241.155 417.37 240.46 418.409 240.038C419.448 239.616 420.582 239.481 421.691 239.648C423.672 239.991 424.587 241.819 425.501 243.115C425.806 243.648 425.92 244.639 426.873 243.115C427.531 241.883 428.487 240.835 429.654 240.067C430.314 239.747 431.032 239.562 431.764 239.523C432.497 239.484 433.23 239.591 433.921 239.838C436.626 240.943 436.474 243.648 436.969 244.906C436.969 245.325 437.883 244.486 439.598 244.906C445.122 246.239 439.598 250.049 454.038 241.972C485.051 224.484 472.593 187.565 483.375 191.947C485.033 192.821 486.931 193.13 488.78 192.827C490.63 192.525 492.331 191.627 493.624 190.27ZM488.404 147.331C489.872 139.89 490.117 132.259 489.128 124.738C488.709 122.224 487.718 121.5 485.928 122.338C485.444 122.61 484.874 122.687 484.336 122.552C483.797 122.418 483.331 122.082 483.032 121.614C482.499 120.585 483.032 120.204 482.613 119.366C482.194 118.528 480.251 117.69 479.717 117.766C478.536 117.956 474.536 121.576 467.563 115.175C465.163 113.041 465.506 117.613 457.657 117.537C453.543 117.537 450.761 113.994 447.675 115.327C445.629 115.94 443.475 116.096 441.362 115.787C439.249 115.478 437.229 114.71 435.445 113.537C433.388 112.356 430.987 115.48 425.691 112.432C423.71 111.327 424.587 112.432 423.253 114.108C422.059 115.636 420.451 116.789 418.621 117.431C416.791 118.073 414.815 118.176 412.928 117.728C411.48 117.461 411.556 117.461 410.68 118.718C405.346 126.605 392.125 120.928 393.116 112.165C393.345 110.07 391.668 112.813 387.896 110.87C386.868 110.336 386.487 110.603 385.991 111.479C384.736 113.597 382.83 115.253 380.558 116.2C378.286 117.147 375.768 117.336 373.38 116.737C365.76 114.68 376.504 117.956 364.998 132.32C364.617 132.777 363.055 132.625 363.703 135.406C369.761 161.009 367.513 155.066 378.562 153.313C405.232 149.084 402.527 163.41 405.232 161.657C412.471 156.818 415.938 162.229 417.157 158.876C422.72 143.636 463.372 143.902 467.182 157.314C467.601 158.876 467.182 158.114 477.279 156.285C482.46 155.332 481.394 154.494 483.794 152.932C484.823 152.246 484.823 152.246 484.023 151.256C483.561 150.774 483.304 150.132 483.304 149.465C483.304 148.798 483.561 148.156 484.023 147.674C486.499 145.579 487.68 150.608 488.404 147.331ZM485.889 97.3823C494.233 94.0295 495.681 81.4565 487.109 78.6752C485.424 78.2463 483.663 78.2075 481.961 78.5618C480.258 78.916 478.659 79.6539 477.285 80.7194C475.911 81.7848 474.798 83.1497 474.031 84.7102C473.264 86.2706 472.863 87.9855 472.859 89.7242C472.631 86.6381 472.212 102.869 485.889 97.3823ZM478.65 103.174C479.603 101.421 476.06 102.259 473.278 99.3635C471.907 97.8395 466.687 110.222 469.468 112.47C476.936 118.109 473.012 113.575 478.65 103.174ZM475.069 531.189C475.088 529.806 474.948 528.425 474.65 527.074C474.65 526.769 473.431 527.303 472.593 527.874C469.506 529.932 459.905 536.142 436.626 552.525C391.897 584.11 396.507 576.871 398.221 583.653C398.221 584.262 470.04 535.037 473.126 533.018C473.964 532.484 475.031 531.837 475.069 531.189ZM473.469 79.5515C474.612 78.2561 475.945 79.7801 448.78 60.8063C443.932 57.5412 438.647 54.9759 433.083 53.1863C424.053 49.7573 421.272 47.0141 415.557 45.5663C413.887 45.2091 412.153 45.2764 410.516 45.7623C408.879 46.2483 407.389 47.1371 406.184 48.3476C413.309 51.929 416.814 51.3956 419.748 53.4911C421.767 54.9008 420.281 56.8058 418.224 56.0438C413.499 54.2531 410.604 53.7197 406.565 52.2338C404.656 51.3574 402.627 50.7669 400.545 50.4812C399.149 50.1874 397.694 50.3895 396.431 51.0527C394.754 51.9671 393.497 53.2244 394.488 53.4911C398.103 54.5116 401.642 55.7848 405.079 57.3011C415.595 61.7588 410.947 63.5114 407.175 62.0255C394.64 57.1106 394.716 56.5772 392.887 57.0725C390.699 57.3944 388.598 58.1593 386.715 59.3204C374.066 69.0359 381.076 64.2734 372.694 75.7415C371.628 77.1893 375.057 77.9894 377.038 76.5416C387.134 69.2645 383.477 66.8642 392.278 66.8642C401.727 66.1403 403.441 71.8553 400.317 74.7128C394.907 79.6658 392.468 76.0844 383.858 81.8756C378.6 85.3808 380.924 86.0666 374.866 92.3912C373.826 93.5463 372.847 94.7544 371.932 96.0107C371.208 97.0013 371.17 98.1062 373.456 98.411C378.981 99.1349 381.076 95.8583 386.144 89.9528C389.954 85.7237 393.992 88.6574 402.031 86.1428C410.07 83.6282 407.708 83.9711 428.701 95.7821C439.865 102.031 445.503 101.459 459.41 102.716C465.735 103.288 465.315 105.993 466.306 103.897C469.659 96.8108 470.688 96.0488 469.659 94.0295C468.994 91.4924 468.996 88.8268 469.664 86.2905C470.331 83.7541 471.642 81.433 473.469 79.5515ZM447.37 268.223C452.095 265.594 469.926 248.182 468.821 245.934C468.119 243.599 467.989 241.13 468.44 238.733C468.44 235.419 469.583 234.923 464.858 239.267C454.914 248.449 443.637 249.63 443.789 253.097C443.789 253.783 443.294 258.888 438.874 259.46C438.41 259.434 437.953 259.578 437.588 259.866C437.223 260.153 436.976 260.565 436.893 261.022C436.564 262.436 435.716 263.676 434.516 264.495C433.316 265.313 431.853 265.651 430.416 265.441C426.606 264.756 426.606 263.117 425.006 264.679C424.22 265.522 423.254 266.175 422.179 266.59C421.105 267.005 419.951 267.171 418.803 267.076C417.655 266.98 416.544 266.626 415.553 266.039C414.562 265.453 413.716 264.649 413.08 263.689C411.747 261.822 410.871 265.48 406.527 265.022C398.907 264.756 401.574 257.402 399.288 257.402C397.659 257.229 396.164 256.419 395.129 255.149C394.095 253.879 393.604 252.251 393.764 250.621C393.954 248.639 394.754 247.496 394.259 246.353C393.254 244.364 391.807 242.631 390.03 241.286C390.03 242.048 389.344 261.098 389.344 261.898C389.344 271.728 384.239 271.004 403.441 273.785C415.29 275.462 414.3 281.939 411.48 293.369C407.67 309.066 410.49 309.409 417.919 316.876C419.595 318.553 419.253 306.894 421.081 300.836C425.691 285.939 424.015 279.119 441.389 270.356C442.798 269.632 445.961 269.061 447.37 268.223ZM462.61 176.021C463.989 172.915 464.621 169.529 464.456 166.135C464.29 162.741 463.332 159.433 461.658 156.475C457.848 150.951 443.065 150.608 433.045 152.665C421.92 154.837 414.947 159.333 424.129 178.916C428.244 187.717 458.115 188.098 462.534 176.021H462.61ZM440.474 252.945C441.236 250.621 440.817 247.458 436.283 247.992C434.493 248.22 434.493 247.496 434.264 245.477C433.921 241.667 431.292 241.438 429.006 245.096C427.749 247.077 427.711 247.915 426.263 247.763C424.815 247.611 424.663 245.401 422.796 243.458C420.929 241.515 418.11 243.115 417.424 245.629C417.302 246.707 416.951 247.746 416.395 248.677C415.976 249.287 415.176 249.135 414.681 248.296C413.93 246.993 412.87 245.894 411.594 245.096C410.703 244.653 409.674 244.577 408.727 244.883C407.78 245.189 406.99 245.854 406.527 246.734C404.013 250.544 401.422 246.315 399.517 247.115C398.777 247.375 398.157 247.894 397.771 248.576C397.385 249.258 397.259 250.057 397.418 250.825C397.576 251.592 398.007 252.276 398.631 252.75C399.255 253.224 400.03 253.456 400.812 253.402C404.279 253.859 403.251 255.116 403.822 258.469C404.584 262.584 409.88 261.555 411.023 258.926C411.823 257.136 413.919 256.907 414.604 259.117C415.633 262.393 417.309 263.956 420.396 262.927C424.206 261.555 422.643 257.593 425.044 257.517C425.455 257.488 425.865 257.585 426.22 257.796C426.574 258.008 426.855 258.322 427.025 258.698C428.739 262.279 430.835 262.203 432.321 261.289C434.988 259.384 433.159 256.755 433.54 255.345C433.921 253.935 434.95 254.735 436.169 255.345C436.599 255.558 437.075 255.663 437.555 255.65C438.035 255.636 438.504 255.505 438.921 255.268C439.339 255.032 439.692 254.696 439.949 254.291C440.207 253.885 440.361 253.423 440.398 252.945H440.474ZM433.578 533.399C441.998 534.123 441.655 535.608 437.388 538.161C434.34 540.028 406.146 560.221 402.87 562.812C398.221 566.622 398.259 565.822 393.078 566.012C391.859 566.012 392.354 566.012 395.211 575.042C395.211 575.652 466.535 527.988 468.211 526.464C458.496 525.169 399.631 524.026 387.134 523.607C378.028 523.302 377.343 522.959 377.876 524.369C379.667 529.322 379.171 530.96 383.858 530.96C391.363 530.884 430.911 533.094 433.578 533.399ZM400.05 520.635C427.025 521.511 423.253 523.988 422.91 512.177C421.234 463.409 428.206 480.592 419.824 450.226C414.185 429.843 422.453 426.947 417.271 366.826C414.223 331.316 419.481 322.934 412.928 318.096C402.793 310.476 405.308 293.864 403.136 287.92C393.116 292.569 396.431 318.4 391.706 324.42C386.982 330.44 384.963 318.553 377.99 312.609C373.891 308.854 371.337 303.706 370.827 298.169C368.618 286.739 360.807 288.568 357.188 282.205C356.464 280.91 356.007 282.205 351.93 283.958C303.81 303.237 313.03 312.609 288.722 321.563C284.264 323.239 284.683 328.573 277.902 330.859C273.672 332.269 270.624 334.441 266.472 341.565C262.319 348.69 262.662 348.88 264.186 348.957C268.3 349.223 269.329 352.767 270.472 355.396C270.891 356.348 272.72 356.729 272.834 354.938C273.825 341.375 285.141 332.84 297.79 346.785C304.953 354.672 302.209 358.824 303.429 366.94C304.953 376.693 295.428 391.667 286.322 391.857C272.225 392.162 272.453 389.876 271.729 391.857C271.729 391.857 268.91 399.477 268.758 399.858C266.615 403.323 263.363 405.961 259.531 407.345C255.699 408.728 251.512 408.775 247.65 407.478C243.154 405.421 241.287 410.145 237.02 416.394C236.792 416.775 236.449 417.041 237.439 417.079C267.043 417.994 294.589 420.242 307.962 420.28C310.82 420.28 307.086 412.66 309.448 394.829C310.593 387.266 311.039 379.614 310.782 371.969C310.782 368.464 313.296 369.645 313.487 370.864C316.383 388.123 311.01 391.781 313.487 419.404C313.754 422.223 324.117 420.28 336.766 424.814C350.939 429.881 351.358 445.426 376.695 517.892C377.19 520.254 375.78 519.797 400.05 520.635ZM419.1 577.785C419.938 572.642 420.281 574.966 409.613 581.786C400.888 587.348 398.717 590.13 395.288 590.853C394.449 590.853 356.464 590.663 355.13 590.853C353.797 591.044 353.34 591.273 353.301 592.111C353.301 594.549 350.292 595.464 348.691 596.911C344.119 601.064 336.195 601.293 327.012 604.531C314.897 608.875 312.077 604.531 310.096 606.97C306.286 611.923 303.924 611.847 299.123 640.612C294.742 666.825 289.56 678.712 292.722 679.322C321.183 685.989 317.945 683.132 326.67 684.884C348.501 689.38 346.672 693.762 370.523 693.762C383.764 693.17 397.029 694.167 410.032 696.733C411.823 697.033 413.659 696.929 415.404 696.429C416.243 696.238 416.471 695.667 416.509 694.752C417.195 685.418 418.872 679.512 417.652 673.188C416.835 666.186 417.144 659.099 418.567 652.194C422.91 619.886 416.433 594.854 419.1 577.823V577.785ZM398.45 561.402C399.974 560.488 430.987 538.542 433.007 536.104C428.473 535.304 401.155 534.694 384.81 533.894C381 533.894 381 533.513 383.705 542.505C385.38 548.851 387.519 555.065 390.106 561.097C391.135 562.964 396.012 562.926 398.564 561.44L398.45 561.402ZM408.013 289.063C408.929 286.807 409.206 284.342 408.813 281.939C408.051 278.662 403.06 278.624 392.735 276.757C383.896 275.157 385.42 270.89 380.581 267.918C377.943 266.623 375.836 264.453 374.62 261.778C373.404 259.103 373.154 256.088 373.914 253.249C371.914 254.86 370.1 256.687 368.503 258.698C360.883 268.147 364.274 269.861 359.855 276.376C359.131 277.481 361.76 281.329 364.046 282.51C368.518 284.447 372.039 288.078 373.837 292.607C379.933 313.638 376.2 299.998 388.392 318.477C389.382 319.963 388.773 318.477 391.973 299.693C394.183 286.587 405.613 275.995 408.127 289.102L408.013 289.063ZM401.727 176.516C405.117 155.828 390.868 152.78 371.018 158.952C373.445 164.822 374.068 171.281 372.809 177.507C372.351 180.517 372.809 183.679 371.932 186.727C370.561 192.67 399.593 190.156 401.841 176.554L401.727 176.516ZM391.782 585.634C393.916 585.634 393.916 585.939 390.335 575.728C333.185 412.774 358.407 429.31 294.17 424.09C271.501 422.261 170.002 419.48 147.752 423.671C134.874 426.109 129.959 430.453 136.779 448.055C152.019 486.879 164.097 525.093 169.317 538.809C171.564 544.829 176.556 556.411 177.279 558.621C182.88 575.309 184.29 575.994 186.69 576.299C193.739 577.214 221.933 579.69 222.009 579.728C259.08 581.557 244.145 585.443 250.203 565.86C254.775 551.115 253.479 549.591 257.061 545.4C271.272 528.903 263.843 539.19 273.863 525.817C281.102 516.139 292.913 524.75 278.664 543.686C274.549 549.058 270.434 554.392 276.225 557.859C288.76 565.479 299.619 556.335 306.134 552.944C314.439 548.677 319.469 548.067 322.707 543.381C326.629 538.872 331.779 535.602 337.528 533.97C343.548 532.37 349.491 536.104 345.758 541.095C339.666 548.37 333.03 555.171 325.908 561.44C318.783 568.298 314.249 569.327 310.668 572.87C322.936 580.185 355.435 552.944 369.608 561.44C370.318 561.857 370.901 562.459 371.294 563.182C371.688 563.905 371.877 564.722 371.842 565.544C371.807 566.366 371.548 567.163 371.094 567.85C370.64 568.537 370.008 569.087 369.265 569.441C364.96 571.384 363.588 570.965 364.008 573.251C364.225 574.023 364.226 574.84 364.011 575.613C363.796 576.385 363.373 577.084 362.788 577.633C360.942 579.064 358.98 580.339 356.921 581.443C354.91 582.595 353.085 584.047 351.511 585.748L391.782 585.634ZM368.084 185.584C370.37 180.859 369.684 159.562 365.798 161.162C355.74 165.315 364.389 183.069 368.199 185.622L368.084 185.584ZM362.75 567.689C366.56 566.241 368.656 565.326 366.065 563.498C364.53 562.886 362.861 562.689 361.226 562.926C352.463 563.802 337.452 573.023 327.47 576.299C311.049 581.671 303.924 574.852 305.638 571.346C308.61 565.326 317.907 564.526 327.546 553.287C332.346 547.648 336.576 545.895 341.605 539.342C344.424 535.532 332.194 539.076 325.908 546.353C319.011 554.277 314.097 552.411 303.619 559.04C286.931 569.556 274.015 563.04 270.663 557.821C267.31 552.601 270.282 548.601 273.825 544.029C284.836 529.855 281.445 523.112 278.244 526.579C254.089 553.249 258.699 550.201 255.956 561.669C253.213 573.137 251.613 575.69 252.641 582.052C253.899 590.015 246.164 602.245 264.452 610.056C279.692 616.609 281.712 603.579 294.475 601.598C306.362 599.693 313.982 605.674 336.118 598.092C339.534 597.158 342.892 596.026 346.177 594.702C349.987 592.835 351.206 590.701 348.768 590.892C335.585 591.311 341.376 594.702 324.955 597.597C320.116 598.473 319.697 598.169 319.621 597.254C319.545 596.34 319.621 595.768 320.345 595.502C322.468 594.822 324.631 594.275 326.822 593.863C343.129 590.892 346.177 583.538 355.968 578.395C358.293 577.214 360.312 576.566 360.921 574.852C361.226 574.013 360.921 573.518 359.969 573.518C356.159 573.518 322.593 595.083 320.002 589.901C319.278 588.491 320.002 588.11 323.469 586.624C340.005 579.119 343.434 575.08 362.75 567.689ZM304.8 606.36C306.629 604.341 292.418 604.874 290.208 607.084C286.017 611.351 278.778 616.342 273.711 616.609C266.52 616.878 259.419 614.936 253.365 611.046C250.679 609.246 248.132 607.246 245.745 605.065C240.183 598.435 237.897 595.959 238.125 592.416C238.811 583.119 242.278 586.891 220.447 584.186C217.932 583.881 219.189 584.186 221.133 592.149C222.047 595.959 224.257 597.788 229.438 604.227C233.744 609.561 236.601 608.875 243.802 616.38C251.994 624.61 281.178 633.183 304.8 606.36ZM296.647 377.76C300.876 370.826 299.047 369.035 298.704 358.71C298.399 349.985 283.464 337.031 278.13 348.614C274.587 356.234 278.397 359.053 273.139 360.044C267.881 361.034 267.272 358.901 265.176 354.329C264.262 352.233 262.128 353.148 259.004 354.329C252.908 356.691 253.937 351.776 249.022 353.567C236.83 357.948 244.145 369.759 242.164 374.103C238.773 381.723 237.63 379.36 235.268 383.094C231.708 388.162 229.648 394.131 229.324 400.315C228.105 406.03 224.447 415.555 218.58 415.06C213.398 414.603 215.989 410.907 213.246 407.44C211.867 405.323 211.201 402.821 211.345 400.298C211.489 397.776 212.435 395.366 214.046 393.419C219.075 388.123 210.236 380.961 209.703 377.494C209.382 375.583 209.496 373.625 210.037 371.764C210.578 369.904 211.531 368.19 212.827 366.749C216.151 364.668 219.143 362.099 221.704 359.129C222.885 357.834 222.39 357.148 221.133 355.815C220.322 355.031 219.709 354.067 219.344 353.001C218.979 351.934 218.872 350.797 219.032 349.681C219.192 348.565 219.614 347.504 220.264 346.583C220.914 345.662 221.773 344.909 222.771 344.385C224.465 343.486 225.907 342.176 226.962 340.575C231.267 334.441 229.019 338.708 236.868 329.945C238.659 327.925 236.258 328.992 237.516 320.839C239.725 306.475 255.613 310.209 262.052 300.265C267.234 292.302 268.338 290.321 267.881 286.511C267.866 284.159 267.32 281.842 266.285 279.731C265.249 277.62 263.75 275.77 261.9 274.319C257.67 270.775 258.547 264.718 261.9 263.498C264.224 262.66 268.3 259.688 271.31 258.164C276.301 255.84 281.864 252.449 281.864 247.192C281.864 243.991 280.149 237.857 276.416 238.352C274.434 238.581 270.739 239.076 268.796 239.076C264.224 239.076 259.004 236.447 259.652 231.837C260.947 222.693 267.272 224.217 265.252 218.121C264.297 215.358 264.19 212.372 264.948 209.549C265.141 208.55 265.694 207.658 266.501 207.04C267.309 206.422 268.315 206.121 269.329 206.196C274.846 207.091 280.501 206.553 285.75 204.634C293.827 200.824 302.247 194.309 296.609 182.269C293.789 176.287 303.429 166.762 296.075 160.171C281.407 147.027 285.179 162.876 271.577 156.856C267.538 155.066 269.977 150.646 268.415 144.817C268.253 144.1 267.913 143.436 267.427 142.886C266.942 142.335 266.325 141.915 265.635 141.664C264.944 141.414 264.202 141.341 263.476 141.453C262.75 141.564 262.064 141.856 261.48 142.302C259.234 143.372 257.091 144.648 255.08 146.112C250.393 153.237 252.336 152.704 251.727 154.875C251.752 155.125 251.727 155.378 251.655 155.619C251.582 155.859 251.463 156.083 251.304 156.278C251.144 156.473 250.948 156.634 250.727 156.753C250.505 156.872 250.263 156.946 250.012 156.971C249.762 156.996 249.51 156.971 249.269 156.899C249.028 156.826 248.804 156.707 248.61 156.547C248.415 156.388 248.254 156.192 248.135 155.971C248.016 155.749 247.942 155.506 247.917 155.256C244.297 145.693 240.297 145.503 233.706 147.636C230.789 148.902 228.399 151.138 226.941 153.963C225.483 156.789 225.046 160.032 225.705 163.143C227.876 176.478 234.887 177.621 231.229 191.985C229.857 197.395 220.218 189.127 219.799 199.033C218.999 220.217 233.248 219.645 227.19 232.523C220.675 246.391 233.896 250.011 230.353 257.555C215.646 288.797 229.172 286.777 235.382 297.445C235.99 298.778 236.315 300.223 236.336 301.688C236.357 303.153 236.074 304.606 235.504 305.956C234.935 307.306 234.092 308.523 233.028 309.531C231.964 310.538 230.703 311.314 229.324 311.809C219.532 316.229 228.333 328.535 220.98 329.068C217.894 329.297 205.74 321.982 206.578 346.48C206.769 350.976 204.711 350.29 204.254 349.528C202.65 344.607 201.827 339.464 201.816 334.288C201.816 326.44 202.083 325.22 198.006 319.391C195.948 316.495 193.739 315.581 187.414 313.6C181.089 311.619 180.251 301.941 183.375 296.645C184.252 295.121 186.081 289.94 185.166 288.53C181.928 283.463 181.089 284.263 178.194 284.301C175.298 284.339 174.384 281.824 174.117 278.205C173.889 270.585 169.317 266.775 164.211 267.004C163.106 267.004 162.306 267.461 157.925 270.814C148.59 278.129 144.78 267.346 146.19 264.298C148.895 257.821 149.428 258.012 149.619 255.421C150.038 249.02 150.648 247.001 153.848 246.887C156.987 247.144 160.146 246.782 163.144 245.82C168.097 242.734 172.365 238.39 171.679 232.561C170.879 225.856 176.632 232.561 182.613 225.246C186.255 220.224 189.238 214.757 191.491 208.977C194.539 202.805 180.747 197.852 177.203 197.928C166.65 198.195 174.612 181.469 169.964 176.745C165.316 172.02 157.01 170.191 151.829 174.725C150.571 175.83 146.38 178.535 145.885 181.24C144.78 186.765 146.076 186.232 146.228 191.413C146.303 191.848 146.243 192.296 146.057 192.696C145.871 193.097 145.568 193.431 145.187 193.654C144.806 193.878 144.366 193.98 143.926 193.947C143.486 193.914 143.066 193.748 142.723 193.471C142.146 193.019 141.435 192.774 140.703 192.774C139.971 192.774 139.261 193.019 138.684 193.471C138.151 193.852 133.503 195.185 133.312 199.262C133.312 201.281 131.217 201.624 127.749 201.624C122.682 201.624 123.33 197.204 123.025 190.194C123.025 185.012 129.235 178.764 132.474 177.164C142.037 171.944 129.769 154.913 137.77 151.713C142.418 149.846 144.132 145.846 146.19 141.007C146.838 139.445 146.571 137.959 146.19 133.12C145.809 128.281 142.38 126.491 140.322 127.9C131.102 134.187 136.093 126.796 129.654 122.795C124.816 119.747 118.529 116.242 114.414 117.537C105.651 120.357 105.766 120.128 105.194 121.119C99.4031 131.177 110.223 135.635 104.508 138.797C101.328 140.948 97.8136 142.558 94.1072 143.56C89.6495 144.093 88.4684 142.34 87.6302 144.474C85.2299 150.456 84.2774 147.141 84.3155 157.809C84.3155 161.162 91.9355 165.01 94.1072 166.953C94.4563 167.22 94.7242 167.578 94.8807 167.989C95.0372 168.4 95.076 168.846 94.9929 169.277C94.9098 169.709 94.708 170.108 94.4102 170.431C94.1123 170.754 93.7303 170.988 93.3071 171.106C89.8781 171.906 89.9924 173.582 89.9924 175.487C89.9924 178.154 95.2502 176.783 92.0117 181.774C90.8306 183.565 89.9924 181.507 84.125 181.774C74.2571 182.155 72.695 181.774 69.2279 184.555C59.5505 192.48 57.7979 193.585 57.0359 197.776C56.693 200.024 55.931 200.862 57.0359 203.681C61.3793 213.359 63.8558 216.94 61.1507 222.274C58.8647 226.77 61.3793 232.828 64.1606 237.057C65.2274 238.695 66.6371 239.152 70.6757 239.8C74.7143 240.448 76.5431 235.685 78.6386 232.409C80.7341 229.132 80.1245 228.027 81.6485 220.979C81.9533 219.645 81.9914 219.493 86.7158 216.331C87.2319 216.103 87.7921 215.993 88.3559 216.008C88.9198 216.023 89.4732 216.164 89.9762 216.419C90.4793 216.674 90.9194 217.038 91.2648 217.484C91.6102 217.93 91.8523 218.447 91.9736 218.998C93.4595 222.808 97.1171 221.55 101.194 218.121C103.67 216.026 108.814 216.864 109.804 222.731C112.281 235.647 102.832 235.876 94.1072 240.257C89.2304 242.734 92.2403 247.382 94.8311 251.687C97.1171 255.497 100.508 253.364 99.4031 256.678C99.2661 257.225 98.9855 257.725 98.5903 258.127C98.1951 258.529 97.6996 258.818 97.1552 258.964C96.0852 259.308 94.9635 259.463 93.8405 259.422C92.1668 259.25 90.4759 259.434 88.8779 259.96C87.28 260.486 85.8111 261.344 84.567 262.476C83.323 263.609 82.3318 264.991 81.6582 266.533C80.9846 268.074 80.6437 269.741 80.6579 271.423C80.6579 277.1 86.6777 284.911 92.0879 288.301C96.4313 291.083 96.1646 287.501 103.899 287.692C108.052 287.692 107.252 291.769 107.48 292.797C107.745 293.626 108.192 294.384 108.789 295.017C109.385 295.65 110.115 296.142 110.927 296.456C111.738 296.771 112.609 296.899 113.476 296.833C114.343 296.767 115.185 296.507 115.938 296.074C118.72 293.407 118.072 292.835 119.215 290.587C123.901 281.786 136.627 286.587 131.598 294.016C130.683 295.35 125.273 304.837 126.721 308.342C128.169 311.847 132.169 317.524 135.141 314.857C138.113 312.19 139.179 314.857 141.199 311.238C141.869 309.989 142.89 308.963 144.135 308.286C145.381 307.609 146.797 307.311 148.209 307.428C149.924 307.428 150.724 308.723 152.019 309.523C153.315 310.323 152.857 313.333 154.343 314.895C160.592 320.763 165.773 317.753 171.298 317.334C176.822 316.915 172.86 324.954 178.918 328.459C179.43 328.797 179.852 329.255 180.149 329.792C180.446 330.329 180.609 330.93 180.624 331.543C180.639 332.157 180.506 332.765 180.235 333.316C179.964 333.867 179.565 334.344 179.07 334.707C176.441 336.65 173.584 341.832 175.717 345.147C179.07 350.328 188.671 352.043 190.957 352.119C193.967 352.119 195.263 355.929 195.872 359.053C196.863 363.93 194.12 363.13 192.443 367.321C192.206 368.096 192.239 368.929 192.536 369.684C192.834 370.438 193.379 371.069 194.082 371.474C197.225 373.156 200.07 375.344 202.502 377.951C211.188 386.218 202.083 392.772 205.321 399.096C207.683 403.706 197.701 407.974 192.558 394.067C190.233 387.59 190.386 386.218 188.748 385.114C186.436 382.975 183.436 381.732 180.289 381.608C178.885 381.702 177.49 381.315 176.334 380.512C175.178 379.709 174.329 378.537 173.927 377.189C173.058 374.293 172.953 371.222 173.622 368.273C173.622 361.873 165.659 365.987 156.553 358.482C153.353 355.853 155.143 353.338 155.334 350.138C155.524 346.937 155.334 347.166 152.019 337.984C151.28 336.539 150.147 335.332 148.752 334.503C147.356 333.674 145.755 333.256 144.132 333.298C131.407 337.374 133.731 339.279 135.979 348.538C136.703 351.662 133.503 354.938 130.302 351.814C128.492 349.414 126.226 347.394 123.635 345.871C113.119 340.651 112.205 362.939 119.139 366.749C129.959 372.655 119.482 378.179 128.092 384.047C132.626 387.095 136.741 384.39 140.437 380.427C144.132 376.465 151.867 375.779 152.781 379.208C154.8 387.057 153.81 387.476 156.058 389.457C158.306 391.438 159.868 390.905 161.163 391.324C164.173 392.505 165.773 390.105 168.555 389.266C177.127 386.714 171.26 401.611 179.032 405.04C183.452 407.021 185.014 403.44 187.909 403.401C195.225 403.401 192.672 407.783 199.339 409.917C206.959 412.355 206.35 416.698 208.445 416.813C209.893 416.813 229.4 417.613 230.505 416.813C242.469 406.221 235.115 401.306 252.222 404.354C255.287 404.648 258.359 403.866 260.911 402.141C263.462 400.417 265.334 397.859 266.205 394.905C268.91 380.427 279.692 390.905 287.731 387.285C291.768 385.204 294.968 381.802 296.799 377.646L296.647 377.76ZM248.222 588.644C248.222 586.205 248.222 586.205 246.24 585.939C244.259 585.672 244.526 585.939 244.031 587.31C243.043 589.519 242.884 592.01 243.584 594.326C244.284 596.643 245.795 598.629 247.841 599.921C247.371 596.166 247.5 592.359 248.222 588.644Z" fill="#000001"/>
<path d="M558.775 335.279C567.386 340.994 540.487 351.509 536.525 273.633C536.144 266.013 534.62 262.584 534.887 261.022C535.382 258.317 537.477 259.117 538.087 260.336C542.43 269.175 539.649 322.515 558.775 335.279Z" fill="#000001"/>
<path d="M533.592 369.57C533.592 374.333 532.868 383.705 530.468 387.477C528.067 391.249 529.515 393.002 529.172 398.907C528.694 409.767 528.872 420.645 529.706 431.483C529.706 432.397 533.744 448.209 519.533 450.533C519.228 450.533 496.673 452.209 493.93 451.752C474.575 448.78 474.232 452.895 464.288 450.19C463.202 449.975 462.172 449.536 461.264 448.902C460.356 448.268 459.589 447.453 459.013 446.507C458.436 445.562 458.062 444.507 457.914 443.41C457.767 442.312 457.848 441.196 458.154 440.131C459.259 434.074 458.802 433.197 458.421 404.356C458.421 400.927 456.325 398.298 457.964 390.144C458.421 387.973 454.687 387.782 454.382 381.191C453.163 356.159 457.583 359.359 475.49 358.788C534.773 357.264 533.402 357.531 533.592 369.57ZM527.42 384.391C529.205 378.85 529.865 373.008 529.363 367.208C528.944 362.065 527.763 362.026 496.559 362.865C455.144 363.97 457.964 360.579 458.726 376.085C458.726 376.085 456.287 385.153 463.221 386.791C468.098 387.934 474.651 386.258 484.862 387.858C494.159 389.382 492.825 393.04 495.035 391.44C498.265 389.118 502.023 387.638 505.97 387.134C518.162 384.81 525.781 389.192 527.42 384.505V384.391ZM520.333 445.77C527.953 443.675 526.124 435.255 525.629 427.863C524.821 415.418 524.821 402.933 525.629 390.487C519.015 390.372 512.402 390.792 505.855 391.744C502.646 392.288 499.614 393.594 497.016 395.554C494.463 397.498 491.834 396.355 489.396 394.259C485.586 390.906 476.861 391.097 471.794 391.554C469.261 391.823 466.707 391.823 464.174 391.554C461.621 391.211 461.088 392.507 461.24 395.707C461.24 396.088 463.907 427.558 461.774 441.427C460.783 447.675 468.746 447.256 474.613 446.989C480.969 446.445 487.367 446.689 493.663 447.713C502.6 448.274 511.572 447.62 520.333 445.77Z" fill="#000001"/>
<path d="M506.158 440.052C506.539 443.29 502.958 443.138 502.348 440.776C501.679 437.004 501.399 433.174 501.51 429.346C501.51 425.955 501.51 397.456 503.301 397.494C508.063 397.456 503.72 419.668 506.158 440.052Z" fill="#000001"/>
<path d="M497.777 382.104C497.828 382.929 497.557 383.741 497.022 384.371C496.487 385.001 495.729 385.4 494.907 385.483C494.085 385.567 493.262 385.33 492.611 384.82C491.96 384.311 491.531 383.57 491.414 382.752C490.691 377.646 498.196 377.723 497.777 382.104Z" fill="#000001"/>
<path d="M485.662 165.39C489.206 153.35 497.092 163.942 494.616 164.932C492.749 165.618 490.806 160.703 489.206 165.123C487.847 168.157 487.448 171.533 488.063 174.8C488.901 176.743 493.054 176.019 493.93 179.982C494.16 181.032 494.024 182.129 493.546 183.092C493.068 184.055 492.276 184.826 491.301 185.278C489.929 185.925 487.986 186.573 487.72 184.973C487.339 182.725 491.187 183.487 491.072 180.934C490.958 178.382 480.9 181.468 485.662 165.39Z" fill="#000001"/>
<path d="M488.747 81.8004C491.262 84.2007 484.937 87.3249 483.49 90.3729C482.804 91.8969 479.984 92.2779 479.984 88.887C479.984 88.887 479.984 88.0488 480.48 87.7821C483.871 85.4961 486.728 80.0097 488.747 81.8004Z" fill="#000001"/>
<path d="M486.5 129.538C486.54 129.834 486.517 130.136 486.431 130.422C486.345 130.709 486.199 130.973 486.002 131.199C485.805 131.424 485.563 131.604 485.29 131.728C485.018 131.852 484.723 131.916 484.424 131.916C484.125 131.916 483.829 131.852 483.557 131.728C483.285 131.604 483.042 131.424 482.845 131.199C482.649 130.973 482.502 130.709 482.417 130.422C482.331 130.136 482.307 129.834 482.347 129.538C482.423 126.528 486.424 126.223 486.5 129.538Z" fill="#000001"/>
<path d="M484.709 142.034C484.196 142.066 483.69 141.9 483.294 141.572C482.898 141.244 482.643 140.777 482.58 140.266C482.517 139.756 482.65 139.241 482.954 138.826C483.258 138.411 483.708 138.127 484.214 138.033C484.727 138.001 485.233 138.166 485.628 138.495C486.024 138.823 486.28 139.29 486.343 139.8C486.406 140.311 486.272 140.826 485.968 141.241C485.665 141.656 485.214 141.939 484.709 142.034Z" fill="#000001"/>
<path d="M481.433 401.307C481.433 434.302 482.881 429.31 482.157 441.16C482.157 443.446 478.918 443.522 478.804 441.502C477.549 427.403 477.307 413.231 478.08 399.097C478.08 397.878 478.842 396.964 480.061 397.154C481.28 397.345 481.395 399.745 481.433 401.307Z" fill="#000001"/>
<path d="M477.203 146.038C477.16 145.784 477.168 145.525 477.228 145.275C477.288 145.025 477.397 144.79 477.55 144.583C477.704 144.377 477.897 144.204 478.119 144.074C478.34 143.944 478.586 143.86 478.841 143.828C479.094 143.79 479.352 143.803 479.599 143.865C479.847 143.926 480.081 144.037 480.286 144.189C480.491 144.341 480.664 144.532 480.796 144.751C480.927 144.971 481.014 145.214 481.051 145.466C481.148 145.742 481.183 146.035 481.153 146.326C481.123 146.616 481.03 146.897 480.879 147.147C480.728 147.397 480.524 147.611 480.281 147.773C480.038 147.935 479.762 148.041 479.473 148.084C479.184 148.127 478.889 148.105 478.61 148.021C478.33 147.937 478.073 147.791 477.856 147.596C477.639 147.4 477.468 147.159 477.355 146.89C477.242 146.621 477.19 146.33 477.203 146.038Z" fill="#000001"/>
<path d="M479.68 123.787C479.68 126.949 475.032 127.102 475.222 123.787C475.293 123.246 475.559 122.749 475.969 122.389C476.379 122.029 476.906 121.831 477.451 121.831C477.997 121.831 478.524 122.029 478.934 122.389C479.344 122.749 479.609 123.246 479.68 123.787Z" fill="#000001"/>
<path d="M477.852 132.778C478.148 132.738 478.45 132.761 478.736 132.847C479.023 132.933 479.287 133.079 479.512 133.276C479.738 133.473 479.918 133.715 480.042 133.988C480.165 134.26 480.229 134.555 480.229 134.854C480.229 135.153 480.165 135.449 480.042 135.721C479.918 135.993 479.738 136.236 479.512 136.433C479.287 136.629 479.023 136.775 478.736 136.861C478.45 136.947 478.148 136.971 477.852 136.931C477.556 136.971 477.254 136.947 476.968 136.861C476.682 136.775 476.417 136.629 476.192 136.433C475.966 136.236 475.786 135.993 475.662 135.721C475.539 135.449 475.475 135.153 475.475 134.854C475.475 134.555 475.539 134.26 475.662 133.988C475.786 133.715 475.966 133.473 476.192 133.276C476.417 133.079 476.682 132.933 476.968 132.847C477.254 132.761 477.556 132.738 477.852 132.778Z" fill="#000001"/>
<path d="M472.441 152.398C472.56 151.984 472.81 151.62 473.153 151.36C473.497 151.101 473.916 150.961 474.346 150.961C474.777 150.961 475.196 151.101 475.54 151.36C475.883 151.62 476.133 151.984 476.251 152.398C476.336 152.693 476.35 153.003 476.294 153.305C476.238 153.606 476.113 153.89 475.928 154.135C475.743 154.38 475.504 154.579 475.23 154.715C474.956 154.852 474.653 154.923 474.346 154.923C474.04 154.923 473.737 154.852 473.463 154.715C473.188 154.579 472.949 154.38 472.765 154.135C472.58 153.89 472.455 153.606 472.399 153.305C472.343 153.003 472.357 152.693 472.441 152.398Z" fill="#000001"/>
<path d="M469.697 140.739C469.712 140.316 469.854 139.907 470.103 139.564C470.351 139.222 470.697 138.961 471.094 138.815C471.492 138.669 471.923 138.645 472.335 138.745C472.746 138.846 473.118 139.066 473.404 139.379C473.69 139.691 473.876 140.082 473.939 140.501C474.002 140.919 473.939 141.347 473.758 141.73C473.577 142.113 473.286 142.433 472.922 142.65C472.559 142.867 472.139 142.971 471.716 142.949C471.157 142.919 470.632 142.671 470.254 142.257C469.876 141.844 469.676 141.299 469.697 140.739Z" fill="#000001"/>
<path d="M470.764 302.237C470.764 304.904 466.954 306.047 465.85 303.38C464.364 298.96 469.355 296.027 470.764 302.237Z" fill="#000001"/>
<path d="M469.774 127.863C472.975 127.863 472.327 132.473 469.774 132.435C469.168 132.435 468.587 132.194 468.158 131.766C467.729 131.337 467.488 130.756 467.488 130.149C467.488 129.543 467.729 128.962 468.158 128.533C468.587 128.104 469.168 127.863 469.774 127.863Z" fill="#000001"/>
<path d="M464.82 121.271C464.82 120.685 465.053 120.123 465.468 119.709C465.882 119.294 466.444 119.062 467.03 119.062C467.616 119.062 468.178 119.294 468.593 119.709C469.007 120.123 469.24 120.685 469.24 121.271C469.24 121.857 469.007 122.419 468.593 122.834C468.178 123.248 467.616 123.481 467.03 123.481C466.444 123.481 465.882 123.248 465.468 122.834C465.053 122.419 464.82 121.857 464.82 121.271Z" fill="#000001"/>
<path d="M453.923 141.505C457.391 143.295 454.457 146.115 452.628 145.962C450.799 145.81 445.656 142.152 437.845 139.371C435.961 138.651 433.884 138.615 431.976 139.269C430.068 139.924 428.451 141.227 427.406 142.953C426.606 145.315 422.148 145.62 423.062 142.533C423.994 140.129 425.657 138.077 427.817 136.669C429.978 135.261 432.526 134.567 435.102 134.685C441.537 136.487 447.828 138.766 453.923 141.505Z" fill="#000001"/>
<path d="M446.265 174.231C447.142 176.86 444.665 181.851 438.112 181.546C434.721 181.318 435.216 178.079 436.435 178.194C437.995 178.446 439.594 178.302 441.084 177.774C441.657 177.533 442.149 177.132 442.5 176.618C442.852 176.105 443.048 175.501 443.065 174.879C443.293 171.678 445.77 172.631 446.265 174.231Z" fill="#000001"/>
<path d="M443.484 662.632C443.865 669.223 435.559 667.775 437.693 661.717C439.064 657.831 443.294 659.508 443.484 662.632Z" fill="#000001"/>
<path d="M441.655 220.101C442.721 221.816 438.149 228.712 434.263 228.026C432.892 227.645 430.758 227.531 431.329 225.435C431.402 225.123 431.595 224.852 431.866 224.681C432.137 224.51 432.464 224.452 432.777 224.521C439.14 225.283 438.721 215.415 441.655 220.101Z" fill="#000001"/>
<path d="M439.446 172.292C439.558 172.822 439.484 173.374 439.237 173.857C438.99 174.339 438.584 174.721 438.089 174.94C437.593 175.159 437.037 175.201 436.514 175.059C435.991 174.916 435.533 174.598 435.217 174.158C433.579 171.796 434.265 169.396 435.484 168.901C436.703 168.405 439.332 169.32 439.446 172.292Z" fill="#000001"/>
<path d="M438.76 467.37C438.785 467.75 438.735 468.131 438.613 468.492C438.49 468.853 438.298 469.186 438.047 469.473C437.796 469.759 437.491 469.994 437.149 470.162C436.807 470.331 436.435 470.431 436.055 470.456C435.675 470.481 435.294 470.431 434.933 470.308C434.572 470.186 434.239 469.993 433.952 469.742C433.665 469.491 433.431 469.186 433.262 468.844C433.094 468.502 432.994 468.131 432.969 467.751C432.944 467.37 432.994 466.989 433.117 466.628C433.239 466.267 433.431 465.934 433.683 465.647C433.934 465.361 434.239 465.126 434.581 464.958C434.922 464.789 435.294 464.689 435.674 464.664C436.055 464.639 436.436 464.69 436.797 464.812C437.158 464.934 437.491 465.127 437.778 465.378C438.064 465.629 438.298 465.934 438.467 466.276C438.636 466.618 438.735 466.989 438.76 467.37Z" fill="#000001"/>
<path d="M432.856 505.93C433.846 504.52 438.38 505.511 437.732 509.054C436.589 515.074 428.855 511.759 432.856 505.93Z" fill="#000001"/>
<path d="M432.778 615.617C433.638 615.586 434.477 615.89 435.117 616.466C435.757 617.042 436.148 617.845 436.207 618.704C436.233 619.132 436.173 619.561 436.031 619.967C435.889 620.372 435.669 620.745 435.381 621.064C435.094 621.383 434.746 621.642 434.358 621.825C433.97 622.009 433.55 622.113 433.121 622.133C428.206 622.399 429.958 615.579 432.778 615.617Z" fill="#000001"/>
<path d="M429.998 577.404C432.284 577.785 433.198 578.585 433.046 580.376C433.046 582.853 431.789 584.186 429.998 584.186C426.721 583.919 426.302 578.433 429.998 577.404Z" fill="#000001"/>
<path d="M429.883 422.904C432.055 423.133 432.97 424.047 432.855 426.067C432.589 430.905 426.607 430.181 426.912 426.257C427.14 423.4 428.398 422.904 429.883 422.904Z" fill="#000001"/>
<path d="M431.901 217.931C433.577 218.693 432.511 221.36 430.987 221.246C404.583 219.189 403.745 224.104 399.364 223.608C396.354 223.265 399.097 218.731 415.442 216.407C422.528 216.598 426.719 215.722 431.901 217.931Z" fill="#000001"/>
<path d="M425.654 384.997C425.685 384.159 426.047 383.366 426.661 382.795C427.276 382.223 428.092 381.919 428.931 381.949C429.77 381.98 430.562 382.342 431.134 382.956C431.705 383.571 432.009 384.387 431.979 385.226C431.949 386.065 431.586 386.857 430.972 387.429C430.357 388 429.541 388.304 428.702 388.274C427.864 388.244 427.071 387.881 426.5 387.267C425.928 386.652 425.624 385.836 425.654 384.997Z" fill="#000001"/>
<path d="M429.769 345.299C430.035 349.909 423.901 350.557 423.749 346.327C423.597 342.098 429.578 342.251 429.769 345.299Z" fill="#000001"/>
<path d="M391.326 132.171C402.146 132.171 402.184 139.791 395.136 137.162C383.325 132.704 375.4 149.087 370.904 148.173C370.18 148.173 369.113 147.83 369.151 146.916C369.223 146.111 369.573 145.356 370.142 144.782C379.972 135.257 384.81 132.247 391.326 132.171Z" fill="#000001"/>
<path d="M389.687 181.924C391.897 181.924 391.097 184.401 390.526 184.858C389.65 185.415 388.655 185.756 387.622 185.856C386.589 185.955 385.548 185.809 384.582 185.43C378.943 183.753 381.305 177.429 383.972 180.743C386.106 183.334 388.278 182.077 389.687 181.924Z" fill="#000001"/>
<path d="M389.382 173.884C390.754 176.208 389.953 178.228 388.506 178.723C387.058 179.218 385.686 177.656 385.267 176.17C384.429 173.16 387.782 171.141 389.382 173.884Z" fill="#000001"/>
<path d="M387.096 304.459C388.658 309.145 382.295 309.831 382.295 305.183C382.295 303.468 382.752 302.706 383.971 302.516C385.8 302.249 386.524 302.706 387.096 304.459Z" fill="#000001"/>
<path d="M265.138 497.321C263.957 522.543 232.372 519.952 228.638 496.521C223.8 466.384 263.995 466.155 265.138 497.321ZM241.364 508.751C249.784 514.504 260.642 509.132 260.909 496.787C259.08 479.223 243.345 474.727 236.754 480.976C230.162 487.224 230.086 500.94 241.364 508.636V508.751Z" fill="#000001"/>
</svg>
