<svg width="284" height="82" viewBox="0 0 284 82" fill="none" xmlns="http://www.w3.org/2000/svg">
<path d="M273.481 82H10.5223C4.7398 82 0.00390625 77.3849 0.00390625 71.75V10.25C0.00390625 4.61506 4.7398 1.90735e-06 10.5223 1.90735e-06H273.481C279.264 1.90735e-06 284 4.61506 284 10.25V71.75C284 77.3849 279.264 82 273.481 82Z" fill="black"/>
<path d="M273.481 1.64256C278.351 1.64256 282.314 5.50425 282.314 10.25V71.75C282.314 76.4958 278.351 80.3574 273.481 80.3574H10.5223C5.65227 80.3574 1.68947 76.4958 1.68947 71.75V10.25C1.68947 5.50425 5.65227 1.64256 10.5223 1.64256H273.481ZM273.481 1.90735e-06H10.5223C4.7398 1.90735e-06 0.00390625 4.61506 0.00390625 10.25V71.75C0.00390625 77.3849 4.7398 82 10.5223 82H273.481C279.264 82 284 77.3849 284 71.75V10.25C284 4.61506 279.264 1.90735e-06 273.481 1.90735e-06Z" fill="#A6A6A6"/>
<path d="M21.958 15.4541C21.34 16.0845 20.9824 17.0659 20.9824 18.3369V63.6727C20.9824 64.9437 21.34 65.9251 21.958 66.5555L22.1105 66.6938L48.1803 41.2995V40.6998L22.1105 15.3055L21.958 15.4541Z" fill="url(#paint0_linear_923_432)"/>
<path d="M56.858 49.7681L48.1777 41.299V40.6994L56.8685 32.2303L57.0631 32.3405L67.3553 38.0472C70.2926 39.6667 70.2926 42.3317 67.3553 43.9614L57.0631 49.6579L56.858 49.7681V49.7681Z" fill="url(#paint1_linear_923_432)"/>
<path d="M57.0627 49.6581L48.1773 40.9994L21.9551 66.5552C22.9307 67.5546 24.5216 67.675 26.3307 66.6756L57.0627 49.6581" fill="url(#paint2_linear_923_432)"/>
<path d="M57.0627 32.3408L26.3307 15.3233C24.5216 14.3341 22.9307 14.4546 21.9551 15.454L48.1773 40.9995L57.0627 32.3408Z" fill="url(#paint3_linear_923_432)"/>
<path d="M99.7549 21.0002C99.7549 22.7119 99.229 24.0829 98.1929 25.1053C97.0017 26.3174 95.4502 26.9272 93.549 26.9272C91.732 26.9272 90.1805 26.3071 88.9078 25.0848C87.6324 23.8445 86.9961 22.3224 86.9961 20.5005C86.9961 18.6785 87.6324 17.1564 88.9078 15.9264C90.1805 14.6939 91.732 14.0737 93.549 14.0737C94.4536 14.0737 95.3161 14.2557 96.1392 14.5939C96.9596 14.9347 97.6275 15.396 98.1114 15.9649L97.0122 17.0462C96.1681 16.075 95.019 15.5959 93.549 15.5959C92.2237 15.5959 91.0746 16.0469 90.099 16.9565C89.134 17.8688 88.6501 19.0501 88.6501 20.5005C88.6501 21.9509 89.134 23.1424 90.099 24.0547C91.0746 24.9541 92.2237 25.4153 93.549 25.4153C94.9559 25.4153 96.1392 24.9541 97.0727 24.0444C97.688 23.4422 98.0378 22.612 98.1298 21.5511H93.549V20.07H99.6602C99.7338 20.3903 99.7549 20.7004 99.7549 21.0002V21.0002Z" fill="white" stroke="white" stroke-width="0.252308" stroke-miterlimit="10"/>
<path d="M109.449 15.8648H103.709V19.7598H108.884V21.2409H103.709V25.1359H109.449V26.6452H102.084V14.3555H109.449V15.8648Z" fill="white" stroke="white" stroke-width="0.252308" stroke-miterlimit="10"/>
<path d="M116.293 26.6452H114.668V15.8648H111.146V14.3555H119.816V15.8648H116.293V26.6452V26.6452Z" fill="white" stroke="white" stroke-width="0.252308" stroke-miterlimit="10"/>
<path d="M126.09 26.6452V14.3555H127.712V26.6452H126.09Z" fill="white" stroke="white" stroke-width="0.252308" stroke-miterlimit="10"/>
<path d="M134.904 26.6452H133.292V15.8648H129.758V14.3555H138.438V15.8648H134.904V26.6452Z" fill="white" stroke="white" stroke-width="0.252308" stroke-miterlimit="10"/>
<path d="M154.854 25.0643C153.61 26.3071 152.069 26.9272 150.231 26.9272C148.382 26.9272 146.841 26.3071 145.597 25.0643C144.356 23.824 143.738 22.3019 143.738 20.5005C143.738 18.699 144.356 17.1769 145.597 15.9367C146.841 14.6939 148.382 14.0737 150.231 14.0737C152.058 14.0737 153.599 14.6939 154.843 15.9469C156.095 17.1974 156.713 18.7093 156.713 20.5005C156.713 22.3019 156.095 23.824 154.854 25.0643ZM146.799 24.0342C147.735 24.9541 148.874 25.4153 150.231 25.4153C151.577 25.4153 152.726 24.9541 153.652 24.0342C154.585 23.1142 155.059 21.9329 155.059 20.5005C155.059 19.068 154.585 17.8867 153.652 16.9668C152.726 16.0469 151.577 15.5856 150.231 15.5856C148.874 15.5856 147.735 16.0469 146.799 16.9668C145.866 17.8867 145.392 19.068 145.392 20.5005C145.392 21.9329 145.866 23.1142 146.799 24.0342V24.0342Z" fill="white" stroke="white" stroke-width="0.252308" stroke-miterlimit="10"/>
<path d="M158.992 26.6452V14.3555H160.964L167.097 23.9136H167.168L167.097 21.551V14.3555H168.719V26.6452H167.026L160.604 16.6156H160.533L160.604 18.9885V26.6452H158.992V26.6452Z" fill="white" stroke="white" stroke-width="0.252308" stroke-miterlimit="10"/>
<path d="M143.339 44.5926C138.398 44.5926 134.361 48.257 134.361 53.3128C134.361 58.3276 138.398 62.0305 143.339 62.0305C148.29 62.0305 152.327 58.3276 152.327 53.3128C152.327 48.257 148.29 44.5926 143.339 44.5926ZM143.339 58.5967C140.628 58.5967 138.295 56.416 138.295 53.3128C138.295 50.1686 140.628 48.0264 143.339 48.0264C146.05 48.0264 148.393 50.1686 148.393 53.3128C148.393 56.416 146.05 58.5967 143.339 58.5967V58.5967ZM123.751 44.5926C118.799 44.5926 114.774 48.257 114.774 53.3128C114.774 58.3276 118.799 62.0305 123.751 62.0305C128.7 62.0305 132.728 58.3276 132.728 53.3128C132.728 48.257 128.7 44.5926 123.751 44.5926ZM123.751 58.5967C121.037 58.5967 118.697 56.416 118.697 53.3128C118.697 50.1686 121.037 48.0264 123.751 48.0264C126.462 48.0264 128.795 50.1686 128.795 53.3128C128.795 56.416 126.462 58.5967 123.751 58.5967ZM100.442 47.2653V50.9707H109.522C109.257 53.0412 108.547 54.5633 107.458 55.6242C106.133 56.9055 104.069 58.3276 100.442 58.3276C94.8545 58.3276 90.4788 53.933 90.4788 48.4876C90.4788 43.0423 94.8545 38.6476 100.442 38.6476C103.464 38.6476 105.662 39.7982 107.285 41.2896L109.964 38.6784C107.695 36.5669 104.676 34.9448 100.442 34.9448C92.7797 34.9448 86.3398 41.0205 86.3398 48.4876C86.3398 55.9548 92.7797 62.0305 100.442 62.0305C104.584 62.0305 107.695 60.7082 110.14 58.2277C112.646 55.7856 113.427 52.3519 113.427 49.5793C113.427 48.7183 113.354 47.9265 113.222 47.2653H100.442ZM195.754 50.1379C195.016 48.1878 192.736 44.5926 188.092 44.5926C183.49 44.5926 179.659 48.1263 179.659 53.3128C179.659 58.197 183.451 62.0305 188.534 62.0305C192.644 62.0305 195.016 59.5884 195.991 58.1662L192.941 56.1854C191.923 57.6358 190.537 58.5967 188.534 58.5967C186.543 58.5967 185.115 57.7075 184.2 55.9548L196.167 51.1296L195.754 50.1379V50.1379ZM183.553 53.0412C183.451 49.6792 186.233 47.9572 188.226 47.9572C189.788 47.9572 191.113 48.7183 191.555 49.8073L183.553 53.0412V53.0412ZM173.826 61.5H177.76V35.875H173.826V61.5ZM167.384 46.535H167.252C166.369 45.5151 164.683 44.5926 162.548 44.5926C158.067 44.5926 153.97 48.4261 153.97 53.341C153.97 58.2277 158.067 62.0305 162.548 62.0305C164.683 62.0305 166.369 61.1003 167.252 60.0496H167.384V61.3001C167.384 64.634 165.556 66.4251 162.608 66.4251C160.205 66.4251 158.714 64.7339 158.099 63.3117L154.678 64.7031C155.664 67.0145 158.275 69.8589 162.608 69.8589C167.221 69.8589 171.113 67.2144 171.113 60.78V45.1231H167.384V46.535V46.535ZM162.885 58.5967C160.173 58.5967 157.904 56.3853 157.904 53.341C157.904 50.2686 160.173 48.0264 162.885 48.0264C165.556 48.0264 167.663 50.2686 167.663 53.341C167.663 56.3853 165.556 58.5967 162.885 58.5967V58.5967ZM214.172 35.875H204.763V61.5H208.687V51.7907H214.172C218.529 51.7907 222.802 48.7183 222.802 43.8316C222.802 38.9475 218.519 35.875 214.172 35.875V35.875ZM214.275 48.2263H208.687V39.4395H214.275C217.204 39.4395 218.876 41.8098 218.876 43.8316C218.876 45.815 217.204 48.2263 214.275 48.2263ZM238.527 44.544C235.693 44.544 232.745 45.7637 231.533 48.4671L235.014 49.8893C235.764 48.4671 237.142 48.0059 238.598 48.0059C240.634 48.0059 242.698 49.1975 242.729 51.3013V51.5703C242.019 51.1706 240.5 50.5786 238.63 50.5786C234.88 50.5786 231.059 52.5902 231.059 56.3443C231.059 59.778 234.131 61.9895 237.583 61.9895C240.223 61.9895 241.68 60.8286 242.595 59.4782H242.729V61.459H246.519V51.6293C246.519 47.086 243.037 44.544 238.527 44.544ZM238.054 58.5865C236.771 58.5865 234.983 57.9663 234.983 56.416C234.983 54.4326 237.213 53.6716 239.143 53.6716C240.87 53.6716 241.68 54.0431 242.729 54.5326C242.422 56.9055 240.326 58.5865 238.054 58.5865V58.5865ZM260.324 45.1051L255.814 56.2136H255.68L251.018 45.1051H246.787L253.792 60.6288L249.795 69.2669H253.895L264.689 45.1051H260.324V45.1051ZM224.959 61.5H228.893V35.875H224.959V61.5Z" fill="white"/>
<defs>
<linearGradient id="paint0_linear_923_432" x1="45.8656" y1="64.1448" x2="11.4732" y2="28.8519" gradientUnits="userSpaceOnUse">
<stop stop-color="#00A0FF"/>
<stop offset="0.0066" stop-color="#00A1FF"/>
<stop offset="0.2601" stop-color="#00BEFF"/>
<stop offset="0.5122" stop-color="#00D2FF"/>
<stop offset="0.7604" stop-color="#00DFFF"/>
<stop offset="1" stop-color="#00E3FF"/>
</linearGradient>
<linearGradient id="paint1_linear_923_432" x1="71.1801" y1="40.9963" x2="20.2778" y2="40.9963" gradientUnits="userSpaceOnUse">
<stop stop-color="#FFE000"/>
<stop offset="0.4087" stop-color="#FFBD00"/>
<stop offset="0.7754" stop-color="#FFA500"/>
<stop offset="1" stop-color="#FF9C00"/>
</linearGradient>
<linearGradient id="paint2_linear_923_432" x1="52.2311" y1="36.2924" x2="5.59219" y2="-11.5676" gradientUnits="userSpaceOnUse">
<stop stop-color="#FF3A44"/>
<stop offset="1" stop-color="#C31162"/>
</linearGradient>
<linearGradient id="paint3_linear_923_432" x1="15.3544" y1="81.6383" x2="36.1808" y2="60.2669" gradientUnits="userSpaceOnUse">
<stop stop-color="#32A071"/>
<stop offset="0.0685" stop-color="#2DA771"/>
<stop offset="0.4762" stop-color="#15CF74"/>
<stop offset="0.8009" stop-color="#06E775"/>
<stop offset="1" stop-color="#00F076"/>
</linearGradient>
</defs>
</svg>
