<svg width="563" height="571" viewBox="0 0 563 571" fill="none" xmlns="http://www.w3.org/2000/svg">
<path d="M282.404 587.813C278.228 583.054 274.515 577.936 271.315 572.525C268.042 566.946 254.608 545.434 253.903 538.278C253.199 531.121 253.116 518.461 251.329 514.856C249.542 511.252 248.93 490.952 249.384 485.118C249.837 479.283 253.472 475.126 251.512 471.681C249.553 468.235 246.741 465.101 247.478 462.031C248.215 458.962 257.427 454.747 263.015 454.201C268.603 453.656 312.9 453.818 333.494 447.863C354.087 441.907 381.93 426.675 381.93 426.675C381.93 426.675 403.735 418.472 407.888 422.122C412.041 425.771 414.983 422.415 415.745 426.648C416.507 430.88 412.599 431.788 413.044 434.878C414.128 438.582 415.012 442.336 415.695 446.126C415.795 449.537 424.4 458.945 424.911 467.234C425.421 475.523 427.694 497.315 427.59 502.669C427.485 508.024 425.213 545.317 416.353 557.494C416.353 557.494 414.281 559.565 418.24 564.505C422.044 568.471 424.535 573.433 425.396 578.76C425.641 583.473 435.436 592.57 435.321 598.259C435.206 603.949 434.706 612.207 441.434 614.765C448.161 617.324 457.845 622.537 458.87 630.505C459.895 638.473 464.853 644.087 466.292 648.337C467.73 652.586 465.572 655.549 453.267 654.181C440.962 652.814 392.455 654.285 380.84 651.962C369.226 649.638 347.28 653.885 331.07 652.776C314.86 651.668 263.828 652.576 255.432 649.987C255.432 649.987 261.045 639.699 262.983 635.832C264.921 631.965 265.378 625.651 268.017 620.987C277.539 604.07 275.687 605.962 282.404 587.813Z" fill="#FF9C9F"/>
<path d="M510.022 487.682C512.1 487.682 511.82 491.079 509.662 490.703C509.484 490.709 509.307 490.682 509.14 490.623C508.973 490.563 508.819 490.473 508.689 490.356C508.558 490.24 508.453 490.1 508.379 489.944C508.304 489.789 508.263 489.621 508.256 489.45C508.251 489.222 508.292 488.996 508.378 488.784C508.463 488.571 508.592 488.378 508.756 488.213C508.92 488.049 509.117 487.917 509.334 487.826C509.551 487.735 509.785 487.686 510.022 487.682Z" fill="#FFB8DF"/>
<path d="M515.382 485.232C517.18 485.301 517.061 488.284 515.055 488.291C514.837 488.281 514.624 488.229 514.428 488.137C514.232 488.045 514.057 487.916 513.915 487.757C513.773 487.599 513.666 487.414 513.601 487.214C513.536 487.014 513.513 486.804 513.536 486.596C513.558 486.388 513.624 486.186 513.73 486.003C513.837 485.82 513.981 485.66 514.153 485.533C514.326 485.405 514.524 485.313 514.735 485.261C514.947 485.209 515.167 485.2 515.382 485.232Z" fill="#B6FFF1"/>
<path d="M558.802 532.693C560.69 533.839 553.829 534.606 547.954 529.33C545.3 526.952 542.635 526.945 539.895 520.976C538.561 518.069 536.3 519.826 536.803 521.031C538.479 525.029 542.797 532.576 541.679 536.567C537.946 533.998 534.487 523.713 531.97 520.817C530.446 519.053 522.11 519.308 548.91 550.67C551.816 554.063 553.923 554.65 551.557 555.955C549.928 555.911 548.366 555.325 547.137 554.298C525.239 535.655 528.881 530.611 523.275 524.804C523.03 524.561 522.702 524.408 522.351 524.373C522 524.338 521.647 524.423 521.354 524.613C521.062 524.803 520.848 525.086 520.751 525.412C520.654 525.738 520.679 526.086 520.823 526.396C520.859 526.472 524.811 533.805 528.536 539.46C533.93 547.652 545.757 557.588 540.856 556.829C532.747 555.572 526.756 544.745 519.744 538.424C514.904 534.057 507.878 518.718 498.169 516.36C496.016 515.751 493.713 515.847 491.623 516.633C489.533 517.418 487.774 518.849 486.623 520.699C482.84 527.815 472.161 536.943 470.442 532.945C469.906 531.713 473.34 531.588 477.856 522.588C479.485 519.336 481.452 518.614 482.668 515.207C483.426 511.907 484.764 508.755 486.623 505.885C489.003 503.23 490.659 500.048 491.442 496.626C491.632 494.071 493.239 494.033 497.13 491.841C501.294 489.5 499.457 495.749 505.12 494.278C513.75 492.044 513.898 490.915 515.476 492.5C519.469 495.724 523.214 499.221 526.681 502.964C530.521 507.049 530.924 509.617 535.717 511.865C540.981 514.34 544.077 523.72 558.802 532.693Z" fill="#FFCEB6"/>
<path d="M515.087 478.349C518.075 478.128 518.226 482.909 515.231 482.723C514.936 482.739 514.641 482.691 514.368 482.584C514.094 482.477 513.849 482.313 513.649 482.104C513.45 481.895 513.301 481.646 513.214 481.375C513.127 481.104 513.103 480.818 513.145 480.538C513.12 480.271 513.15 480.002 513.234 479.746C513.318 479.491 513.455 479.254 513.636 479.051C513.817 478.847 514.039 478.679 514.288 478.559C514.537 478.438 514.809 478.367 515.087 478.349Z" fill="#D3FFB0"/>
<path d="M512.082 483.108C512.142 483.738 511.972 484.369 511.601 484.893C511.23 485.417 510.681 485.801 510.048 485.979C509.416 486.158 508.738 486.12 508.131 485.872C507.524 485.624 507.025 485.181 506.72 484.62C506.454 484.206 506.302 483.734 506.279 483.249C506.255 482.763 506.36 482.28 506.585 481.844C506.809 481.408 507.145 481.035 507.561 480.758C507.978 480.481 508.461 480.311 508.964 480.263C509.372 480.214 509.787 480.253 510.177 480.377C510.568 480.501 510.925 480.706 511.223 480.978C511.521 481.25 511.753 481.582 511.902 481.95C512.05 482.319 512.112 482.714 512.082 483.108Z" fill="#D6B3FF"/>
<path d="M509.755 475.12C510.021 475.1 510.287 475.152 510.524 475.27C510.761 475.388 510.959 475.566 511.097 475.786C511.234 476.005 511.305 476.257 511.302 476.513C511.298 476.769 511.221 477.02 511.078 477.236C510.932 477.491 510.713 477.7 510.447 477.84C510.181 477.979 509.879 478.043 509.577 478.023C509.275 478.003 508.984 477.9 508.741 477.727C508.497 477.554 508.31 477.318 508.202 477.046C508.12 476.818 508.098 476.573 508.139 476.335C508.18 476.096 508.283 475.871 508.437 475.68C508.591 475.489 508.792 475.338 509.022 475.24C509.252 475.142 509.504 475.101 509.755 475.12Z" fill="#B8D7FF"/>
<path d="M502.639 484.511C503.138 484.436 503.648 484.507 504.104 484.714C504.559 484.921 504.94 485.255 505.196 485.672C505.452 486.089 505.571 486.57 505.539 487.053C505.507 487.536 505.324 487.999 505.015 488.381C504.705 488.764 504.284 489.048 503.804 489.197C503.324 489.347 502.809 489.354 502.325 489.219C501.841 489.084 501.41 488.813 501.088 488.44C500.767 488.067 500.569 487.61 500.521 487.128C500.554 485.584 501.201 484.711 502.639 484.511Z" fill="#FFF59E"/>
<path d="M504.769 480.086C504.769 480.608 504.553 481.109 504.169 481.478C503.784 481.847 503.263 482.054 502.72 482.054C502.176 482.054 501.655 481.847 501.27 481.478C500.886 481.109 500.67 480.608 500.67 480.086C500.674 479.639 500.835 479.207 501.125 478.857C501.416 478.508 501.82 478.263 502.274 478.16C502.575 478.076 502.894 478.063 503.202 478.123C503.51 478.182 503.798 478.311 504.043 478.5C504.288 478.689 504.481 478.932 504.608 479.208C504.734 479.484 504.79 479.785 504.769 480.086Z" fill="#D4F2E2"/>
<path d="M496.684 480.928C496.737 481.029 496.765 481.14 496.766 481.253C496.766 481.366 496.739 481.477 496.686 481.578C496.633 481.679 496.556 481.767 496.461 481.834C496.367 481.901 496.257 481.945 496.141 481.964C492.059 483.296 489.197 487.101 488.701 484.684C488.701 484.608 468.805 444.291 464.4 436.627C448.086 408.286 440.502 395.713 438.399 372.889C437.428 362.355 427.23 341.776 429.089 340.561C431.646 338.655 434.614 337.323 437.777 336.663C443.505 335.879 450.657 331.65 457.665 331.008C461.214 330.68 461.29 329.544 462.02 331.995C462.041 332.075 502.189 461.892 505.968 473.198C505.393 473.847 495.238 475.694 496.684 480.928Z" fill="#FFCEB6"/>
<path d="M435.347 333.274C427.019 335.69 426.149 339.253 421.266 340.486C417.533 341.425 412.459 340.323 405.261 346.624C403.825 344.647 402.95 342.346 402.722 339.947C400.838 323.683 400.924 336.26 397.213 310.194C396.853 307.778 391.704 299.664 392.733 298.857C395.372 296.785 392.585 297.244 389.856 271.3C388.187 255.488 386.979 255.218 387.666 254.856C390.018 253.63 389.637 251.376 389.655 243.649C389.989 238.296 389.772 232.925 389.007 227.613C388.443 224.623 386.533 226.018 386.49 222.679C386.832 210.731 387.897 198.811 389.68 186.982C390.064 183.032 391.56 177.115 395.401 178.565C399.216 179.631 402.804 181.339 405.998 183.609C413.754 189.402 416.821 202.542 423.067 211.387C436.598 230.558 436.925 234.628 439.752 247.83C442.377 260.107 449.978 265.03 456.411 286.566C459.065 295.442 463.218 297.4 468.54 310.709C475.994 329.352 478.393 321.856 461.629 326.345C437.853 332.711 445.106 330.439 435.347 333.274Z" fill="#B8D7FF"/>
<path d="M430.849 357.672C431.327 360.375 430.905 363.153 429.644 365.612C428.141 369.514 422.963 370.581 417.886 371.482C417.444 371.622 416.962 371.593 416.543 371.4C416.123 371.207 415.797 370.865 415.635 370.446C414.653 368.029 410.36 353.001 412.988 352.625C422.762 351.219 424.703 351.62 427.235 350.598C428.684 349.997 428.137 350.833 430.849 357.672Z" fill="#8397B7"/>
<path d="M425.165 188.011C427.362 191.702 428.595 211.087 428.355 211.964C425.079 208.007 422.405 203.623 420.411 198.945C418.185 193.237 415.03 187.905 411.062 183.147C407.312 178.818 402.432 177.319 395.855 175.113C393.64 174.371 395.496 172.006 390.429 169.783C385.458 167.994 380.083 167.499 374.848 168.346C369.631 169.382 370.717 172.638 368.078 172.444C366.815 172.355 364.421 172.362 364.82 171.44C365.651 168.9 367.295 166.676 369.518 165.085C371.742 163.494 374.431 162.616 377.204 162.577C381.217 162.208 385.323 159.816 391.555 158.959C393.266 158.721 407.193 156.757 409.376 157.782C415.733 160.772 418.887 163.03 420.922 170.511C424.849 184.918 422.99 182.418 425.165 188.011Z" fill="#8397B7"/>
<path d="M413.781 376.865C414.162 377.746 415.219 377.356 388.761 384.36C383.756 385.683 374.306 388.548 373.018 388.887C366.671 389.764 360.459 391.379 354.518 393.696C314.665 408.886 329.98 398.488 294.579 403.086C268.131 406.521 259.422 394.69 235.496 389.701C232.716 389.121 240.364 385.952 243.543 368.296C244.219 364.544 247.585 361.26 250.897 349.653C252.882 342.687 248.739 339.296 251.375 332.391C252.069 330.565 252.123 334.201 254.971 343.508C256.093 347.188 259.624 346.173 258.099 341.834C255.137 332.845 253.995 323.395 254.733 313.994C255.053 305.238 254.546 305.263 252.382 288.101C251.267 279.249 252.493 275.997 252.544 265.767C252.544 263.875 253.55 263.281 254.27 258.172C255.028 252.807 254.302 250.697 254.964 239.55C255.086 237.509 255.298 235.824 253.824 235.238C251.641 234.374 257.013 214.178 259.505 193.571C259.76 191.44 260.156 189.628 262.108 189.055C262.188 189.031 282.486 178.611 285.841 180.168C285.402 181.021 277.855 182.44 275.733 190.474C260.85 246.803 284.162 244.162 291.371 250.891C294.644 253.939 298.987 253.39 303.669 253.483C318.901 253.78 320.001 249.907 330.199 241.597C335.881 236.971 336.251 240.616 342.288 223.102C348.401 205.364 348.844 212.224 352.964 196.174C353.036 195.897 354.45 186.593 354.45 186.593C354.677 184.993 354.494 183.363 353.918 181.845C353.341 180.328 352.388 178.968 351.141 177.883C346.603 175.442 353.191 176.416 337.607 173.181C336.686 172.991 335.895 170.833 336.855 170.65C340.881 170.567 344.902 170.981 348.818 171.883C374.658 178.142 368.542 171.455 367.29 184.177C367.29 184.253 364.273 217.271 365.424 223.993C365.935 226.983 363.72 226.838 363.328 229.041C361.677 238.31 364.338 238.165 362.81 249.272C362.407 252.182 364.967 255.862 365.388 255.551C365.309 255.779 365.046 257.871 368.452 272.896C368.98 275.227 370.969 299.283 376.042 301.051C380.494 302.597 379.789 314.039 393.716 319.165C394.098 319.263 394.441 319.471 394.698 319.76C394.955 320.049 395.114 320.406 395.154 320.785C395.661 325.349 397.499 329.623 398.452 334.087C399.487 338.92 397.815 342.438 403.36 350.713C404.342 352.177 405.007 352.17 407.114 352.44C409.833 352.85 405.859 358.65 413.781 376.865ZM354.726 304.838C370.084 304.696 366.33 301.769 365.474 301.548C362.764 300.986 359.965 300.94 357.236 301.41C354.68 301.458 351.882 301.085 341.638 300.857C332.81 300.661 320.99 302.618 314.719 301.824C300.246 299.994 309.509 298.896 284.352 298.586C278.898 298.224 273.639 296.487 269.106 293.552C267.25 292.368 265.693 294.298 266.948 295.748C267.912 296.87 268.89 297.218 272.141 298.731C283.051 303.806 284.169 301.22 289.041 301.976C291.558 302.369 293.878 301.631 297.502 302.169C301.299 302.718 308.236 304.241 311.904 304.838C323.378 306.73 329.092 303.557 347.182 304.655C349.699 304.57 352.218 304.631 354.726 304.838ZM346.938 319.645C348.488 319.783 350.077 318.133 348.822 317.128C347.456 316.037 348.423 316.365 336.539 314.491C331.834 313.926 327.068 314.013 322.389 314.75C316.708 314.605 311.093 313.547 305.776 311.622C287.391 307.037 285.791 310.99 280.548 308.812C278.049 307.776 276.718 306.302 275.636 307.731C275.115 308.421 275.179 309.229 276.395 310.148C281.069 313.686 286.125 312.64 292.702 312.595C302.677 312.526 312.224 320.191 329.469 317.867C334.464 317.191 338.002 318.848 346.938 319.645Z" fill="#B8D7FF"/>
<path d="M402.121 416.751C404.387 423.863 404.387 419.071 392.477 427.222C388.195 430.156 383.869 430.053 376.159 434.413C375.081 435.017 373.858 435.349 372.747 435.901C372.542 436.005 372.283 436.16 371.995 435.777C371.533 435.006 371.143 434.197 370.83 433.36C368.741 428.071 367.688 427.367 370.87 426.11C379.492 423.275 387.852 419.754 395.865 415.584C400.992 412.808 400.421 411.42 402.121 416.751Z" fill="#E3B27D"/>
<path d="M398.578 405.295C401.566 404.843 401.951 408.202 400.261 409.714C396.052 412.869 391.417 415.46 386.481 417.416C382.774 419.025 378.754 420.237 374.007 422.091C370.282 423.544 368.419 425.329 367.934 424.508C367.826 424.321 367.096 423.548 368.143 422.191C369.394 420.744 370.943 419.56 372.691 418.712C374.44 417.865 376.352 417.372 378.308 417.264C383.245 416.743 383.493 413.287 387.161 412.683C389.381 412.506 391.451 411.538 392.965 409.969C394.647 408.026 395.597 405.747 398.578 405.295Z" fill="#FF9C9F"/>
<path d="M388.197 151.238C391.164 152.274 399.801 151.666 403.12 154.37C394.759 155.426 393.584 153.679 382.332 157.415C375.198 159.78 370.106 158.226 364.763 164.589C359.729 170.579 361.678 171.352 360.128 171.01C354.261 169.253 348.214 168.108 342.091 167.596C334.806 167.378 335.004 168.683 332.854 154.069C333.317 151.815 333.148 150.9 334.82 151.162C341.196 152.164 340.534 149.909 341.786 149.864C342.188 149.864 342.555 150.669 343.044 150.831C345.536 151.66 346.942 150.662 346.453 152.112C343.386 161.25 343.767 158.671 342.692 162.707C342.185 164.61 344.17 165.625 346.061 165.179C359.855 161.944 363.159 152.088 362.789 155.512C362.562 157.584 364.544 158.14 365.953 157.239C375.867 150.765 372.89 149.298 375.838 149.612C380.004 149.757 384.144 150.301 388.197 151.238Z" fill="#8397B7"/>
<path d="M394.576 313.088C394.465 315.373 394.541 315.733 393.242 315.097C391.002 314.003 389.805 313.889 388.273 312.09C385.568 309.465 383.44 306.345 382.016 302.914C381.297 301.319 381.276 301.857 388.464 300.307C389.614 300.059 389.125 300.452 390.804 303.967C392.648 306.752 393.928 309.847 394.576 313.088Z" fill="#8397B7"/>
<path d="M391.234 399.582C392.985 404.567 393.657 404.698 392.873 405.603C391.892 406.738 392.154 408.019 389.18 409.093C386.127 409.273 383.266 410.582 381.198 412.746C378.274 416.353 371.658 412.908 366.045 421.069C365.676 421.775 365.094 422.358 364.376 422.742C363.658 423.127 362.837 423.296 362.017 423.227C359.838 423.4 357.711 423.962 355.746 424.884C354.186 425.733 353.725 426.572 352.366 426.893C350.385 427.363 349.81 426.348 345.534 427.038C337.282 428.375 339.845 431.83 331.633 432.4C329.439 432.385 327.288 432.985 325.444 434.126C316.904 438.483 318.04 435.017 312.679 436.95C309.655 438.041 306.526 437.296 304.358 438.362C298.177 441.418 294.588 436.588 288.216 439.799C283.064 442.395 283.693 437.599 271.23 440.579C268.281 441.269 264.15 438.894 259.482 439.298C257.821 439.443 257.803 436.398 257.533 433.974C261.064 399.136 259.209 401.891 263.837 403.279C292.866 411.989 288.443 405.554 308.425 405.509C322.345 405.478 325.908 408.696 340.068 402.678C356.57 395.673 371.759 393.25 380.205 390.802C390.414 387.85 386.491 386.09 391.234 399.582ZM298.199 425.82C303.323 430.235 307.753 420.838 301.906 420.496C298.918 420.32 300.27 420.52 300.827 418.663C301.722 415.725 296.807 415.387 296.271 421.701C296.282 422.48 296.459 423.248 296.79 423.959C297.121 424.669 297.601 425.307 298.199 425.834V425.82Z" fill="#FFCEB6"/>
<path d="M390.089 173.533C390.962 173.933 390.089 174.914 388.956 176.609C384.939 182.619 382.688 217.506 382.681 217.585C382.322 225.546 384.317 226.907 382.041 227.114C379.668 227.324 372.404 228.001 370.15 227.873C368.992 227.808 369.351 227.949 368.377 217.14C370.312 195.341 369.984 180.89 372.66 174.675C373.058 173.632 373.809 172.747 374.792 172.161C375.776 171.575 376.935 171.323 378.086 171.444C382.203 171.206 386.32 171.923 390.089 173.533Z" fill="#8397B7"/>
<path d="M387.743 284.362C390.092 298.586 392.727 295.796 381.44 298.057C378.02 298.748 377.186 297.619 376.571 295.862C372.256 283.454 374.011 280.025 371.508 270.155C370.926 267.859 369.372 260.302 369.261 258.545C369.196 257.509 370.149 257.692 373.09 257.764C388.696 258.134 381.382 245.826 387.743 284.362Z" fill="#8397B7"/>
<path d="M373.942 231.096C383.755 230.506 385.895 229.408 385.56 233.047C385.269 236.23 388.246 253.499 383.468 252.587C379.512 253.458 375.492 254.036 371.443 254.314C363.565 254.611 367.682 245.413 366.801 238.519C366.808 236.307 366.981 234.099 367.319 231.911C367.34 230.62 370.889 231.279 373.942 231.096Z" fill="#8397B7"/>
<path d="M361.655 90.4848C362.809 94.9729 375.028 113.246 374.744 130.878C374.861 136.365 373.965 141.828 372.097 147.014C370.907 149.745 368.246 152.984 366.416 153.318C366.437 152.704 367.617 144.542 367.696 141.794C367.998 131.192 365.269 128.982 365.671 124.128C365.937 118.142 364.991 112.162 362.885 106.521C362.219 104.45 362.036 102.724 360.191 103.397C358.106 104.167 362.777 113.716 362.309 122.385C361.925 129.511 366.427 139.899 363.881 144.456C359.925 151.568 361.299 154.009 347.926 161.083C347.739 161.18 347.444 161.083 347.207 161.083C347.196 160.851 347.22 160.618 347.279 160.392C355.013 138.528 349.555 122.924 351.306 117.313C353.38 110.552 353.725 103.409 352.313 96.492C349.238 78.7708 351.705 86.6803 352.079 66.9844C352.144 63.532 351.292 61.5641 352.162 60.3178C353.082 58.999 353.115 58.2463 352.032 57.1347C346.88 51.7696 339.087 49.7845 331.662 48.3518C327.592 47.1899 323.767 45.348 320.364 42.9108C317.734 40.6573 315.769 37.7779 314.668 34.5629C314.78 31.8904 314.32 29.2243 313.316 26.7294C312.924 25.887 313.014 25.6937 313.963 25.6937C315.513 25.6695 316.84 24.4853 326.581 27.2818C333.714 29.951 340.29 33.826 345.999 38.723C350.783 43.1656 354.256 48.745 356.067 54.8941C358.404 61.3777 358.311 69.111 359.861 75.9157C361.18 81.6329 360.044 84.2532 361.655 90.4848Z" fill="#FFA87D"/>
<path d="M369.299 437.512C370.378 440.575 371.924 444.348 369.659 445.377C364.866 447.542 360.781 449.613 360.475 447.082C359.066 435.403 349.537 429.33 358.318 427.179C363.068 426.009 363.877 422.132 369.299 437.512Z" fill="#FF9C9F"/>
<path d="M365.279 14.0002C383.351 33.3992 362.276 56.2126 359.942 57.4175C357.968 49.8222 359.202 51.5484 351.999 40.2177C350.809 38.3465 355.681 34.0413 352.654 28.7488C344.024 13.6515 320.356 22.1409 312.506 22.279C304.236 22.4275 299.964 25.072 276.879 38.4293C272.027 40.1891 267.721 43.1045 264.365 46.9015C257.957 54.3276 257.357 54.6798 254.84 56.223C242.003 64.1152 233.746 71.7208 234.365 82.6822C234.685 88.2854 238.32 87.3325 237.324 91.1543C236.087 95.9014 233.728 97.9038 229.363 104.895C229.004 105.454 228.702 105.634 228.108 105.361C224.23 103.968 220.886 101.474 218.522 98.211C211.787 87.3532 214.279 88.0921 215.469 78.27C216.415 70.4365 232.617 47.8889 254.966 38.8609C261.517 36.2163 260.859 35.6398 279.575 21.6438C281.909 19.9176 290.568 15.9542 294.103 13.8724C296.195 12.6399 303.779 10.5098 306.688 9.28418C324.531 1.79593 351.898 -0.341103 365.279 14.0002Z" fill="#E3B27D"/>
<path d="M355.784 441.694C356.165 442.561 356.589 443.282 353.026 445.129C341.368 450.723 328.936 454.682 316.107 456.885C314.399 457.054 314.816 455.348 313.569 448.706C313.033 445.868 315.025 448.33 334.784 442.084C340.533 440.251 346.208 438.209 351.796 435.963C353.177 435.39 353.029 435.483 355.784 441.694Z" fill="#E3B27D"/>
<path d="M351.733 431.729C351.902 432.35 350.831 433.037 350.223 433.286C345.931 435.366 341.496 437.166 336.951 438.671C330.272 441.094 323.345 442.83 316.286 443.85C314.774 443.86 313.299 444.294 312.042 445.1C311.909 445.208 311.744 445.272 311.569 445.284C311.395 445.295 311.222 445.252 311.075 445.162C309.596 444.3 307.841 443.987 306.138 444.281C299.306 444.81 292.362 445.507 286.487 446.122C285.274 446.335 284.197 446.996 283.484 447.962C282.132 448.107 280.773 447.171 279.648 447.157C277.364 447.13 261.582 447.965 253.664 446.028C249.025 444.896 249.475 442.006 250.37 441.219C251.672 440.073 252.168 439.4 253.607 440.398C257.886 443.387 258.385 441.195 264.308 442.897C270.78 444.765 273.783 442.552 279.353 442.369C284.027 442.217 284.078 444.62 288.198 442.99C296.009 439.904 298.49 443.871 303.693 441.609C307.968 439.759 310.421 440.767 311.942 440.09C316.383 438.119 319.493 440.781 324.053 438.481C328.824 436.065 328.691 435.485 332.237 435.312C336.053 435.088 339.701 433.72 342.665 431.401C343.643 430.742 344.748 430.277 345.916 430.034C347.083 429.79 348.29 429.772 349.464 429.982C350.003 429.943 350.536 430.102 350.957 430.426C351.378 430.75 351.656 431.216 351.733 431.729Z" fill="#FF9C9F"/>
<path d="M347.659 179.556C348.562 180.199 349.322 181.008 349.895 181.937C350.467 182.866 350.841 183.896 350.993 184.965C347.106 209.747 345.523 203.305 340.46 216.406C338.974 221.654 337.137 226.804 334.962 231.825C331.636 237.694 330.55 235.37 326.771 239.275C323.704 242.444 319.245 245.3 318.364 246.225C315.649 249.097 311.054 249.373 305.779 249.677C294.919 250.274 296.145 249.677 286.458 243.939C282.274 242.041 278.831 238.909 276.632 235C274.433 231.091 273.592 226.61 274.232 222.21C275.883 206.854 276.613 185.511 286.124 184.158C286.883 184.051 286.98 184.24 287.483 188.729C288.418 197.076 294.732 197.139 295.297 201.157C295.833 204.955 306.563 209.705 307.026 209.957C307.713 210.327 306.908 211.49 306.347 213.013C300.086 230.04 314.477 230.175 320.867 225.393C323.423 223.48 323.29 217.601 319.475 211.583C319.403 211.466 318.174 210.292 318.878 209.909C324.243 206.995 324.096 207.451 324.833 206.878C331.352 201.806 332.514 201.057 332.83 199.162C333.233 196.745 338.224 195.14 339.504 188.197C341.525 177.087 340.856 181.078 340.518 177.74C340.399 176.656 346.027 178.375 347.659 179.556Z" fill="#FFCEB6"/>
<path d="M344.238 102.258C349.232 98.7158 348.384 93.6063 349.631 103.294C349.547 111.765 347.312 120.089 343.119 127.543C336.73 138.857 332.382 148.492 327.384 153.599C324.263 156.785 322.048 158.553 310.077 156.512C301.756 154.926 294 151.309 287.556 146.01C286.478 145.182 284.827 145.244 285.295 146.939C285.787 148.717 292.026 152.891 294.95 154.879C301.59 158.595 309.058 160.736 316.733 161.125C318.979 161.416 321.265 161.218 323.421 160.547C325.577 159.876 327.548 158.749 329.189 157.248C330.455 155.96 331.872 176.453 336.582 180.517C337.593 181.39 336.855 181.739 336.453 185.167C335.575 192.7 330.203 194.81 329.732 197.157C329.261 199.505 327.078 200.7 324.964 202.198C310.253 212.617 316.722 203.361 310.124 206.396C307.927 207.408 308.092 205.996 304.579 204.891C302.816 204.173 301.233 203.1 299.937 201.746C296.478 198.811 299.577 197.416 294.964 194.972C292.918 193.618 291.34 191.708 290.433 189.486C290.113 188.63 289.243 183.103 288.301 178.225C285.313 162.744 284.637 155.256 279.056 140.362C277.416 135.991 275.6 131.42 272.472 121.115C271.577 118.16 272.414 115.715 269.308 116.679C265.784 117.773 261.735 119.572 258.75 115.298C253.752 108.148 253.134 101.73 254.586 97.6525C255.001 96.4345 255.713 95.3292 256.662 94.4285C257.612 93.5278 258.771 92.8577 260.045 92.4739C263.195 91.5728 266.158 93.2023 269.505 97.4073C271.393 99.7688 271.616 99.8931 272.853 99.4788C274.09 99.0645 273.932 98.1254 274.579 97.0621C274.701 96.8722 275.298 96.8757 275.658 96.924C281.541 97.7629 280.189 98.5294 284.496 94.5073C288.452 109.729 305.14 108.662 310.455 99.2854C312.573 95.5499 310.645 96.275 313.691 91.597C314.134 91.0307 314.707 90.5703 315.366 90.2515C316.025 89.9328 316.752 89.7644 317.489 89.7594C318.227 89.7544 318.956 89.9129 319.619 90.2227C320.283 90.5324 320.863 90.985 321.314 91.5452C323.493 94.3071 323.414 93.1505 323.864 94.9976C324.333 97.0222 325.324 98.9017 326.744 100.465C328.164 102.028 329.969 103.225 331.994 103.947C334.02 104.668 336.201 104.892 338.34 104.597C340.478 104.302 342.506 103.498 344.238 102.258ZM336.151 127.623C339.283 126.587 334.245 117.859 331.749 119.275C329.61 120.49 333.439 122.651 330.591 124.208C329.381 124.872 328.028 125.261 326.636 125.344C322.241 125.548 317.836 125.287 313.5 124.567C297.111 122.43 297.679 120.535 298.614 118.885C299.132 117.97 299.437 116.951 298.614 116.275C297.672 115.505 291.832 118.053 290.742 123.573C290.383 124.906 290.268 127.057 291.774 127.716C293.09 128.286 293.13 126.19 293.731 124.733C294.072 123.904 294.252 123.67 294.985 124.481C298.909 128.81 308.175 152.546 318.671 143.621C323.764 138.442 328.516 132.964 332.9 127.219C334.378 125.389 334.015 128.327 336.151 127.623ZM320.689 112.733C327.679 110.623 329.678 102.772 323.493 100.525C316.755 98.0702 319.962 95.2427 317.74 95.1149C315.439 94.9838 313.763 100.808 321.886 103.594C323.788 104.247 324.525 105.935 321.767 108.02C319.25 109.929 318.348 109.232 316.334 109.056C311.16 108.818 314.191 114.687 320.689 112.733ZM269.987 111.666C270.187 111.331 270.28 110.948 270.256 110.564C270.232 110.179 270.091 109.81 269.851 109.501C269.02 108.189 266.873 109.967 266.478 109.287C266.194 108.786 266.992 107.385 267.326 106.908C267.937 105.061 267.889 103.072 267.192 101.254C266.495 99.4352 265.187 97.8914 263.475 96.8653C259.239 94.383 254.806 98.4431 256.884 103.67C256.997 103.937 257.2 104.161 257.461 104.305C257.721 104.45 258.024 104.507 258.322 104.467C258.62 104.427 258.895 104.293 259.105 104.087C259.315 103.88 259.447 103.612 259.48 103.325C259.646 101.271 259.951 98.7296 261.717 99.9552C262.78 100.569 263.558 101.55 263.892 102.697C264.226 103.844 264.091 105.07 263.515 106.125C259.998 112.118 267.686 115.474 269.987 111.666Z" fill="#FFCEB6"/>
<path d="M346.803 57.1785C348.54 58.2142 348.202 59.1981 348.863 67.6047C347.216 84.1452 347.587 84.9496 346.109 83.465C344.852 82.1805 343.331 81.1607 341.642 80.4704C339.953 79.7801 338.133 79.4344 336.297 79.4552C334.462 79.4759 332.651 79.8628 330.979 80.5911C329.308 81.3194 327.812 82.3733 326.587 83.686C324.311 86.2028 324.541 89.8312 323.024 88.1223C320.341 85.1049 316.145 86.4479 312.387 88.0912C311.38 88.5297 311.121 87.9773 310.589 86.9312C309.671 85.1067 308.33 83.5076 306.67 82.2558C305.01 81.004 303.074 80.1327 301.01 79.7081C298.947 79.2835 296.809 79.317 294.76 79.8059C292.712 80.2949 290.807 81.2264 289.19 82.5294C287.076 84.3588 285.555 86.7345 284.811 89.3721C283.733 90.9389 282.444 92.362 280.977 93.6047C280.647 93.8706 280.246 94.0436 279.82 94.1046C279.393 94.1655 278.958 94.112 278.561 93.95C274.767 92.9142 278.169 93.8119 279.913 79.6398C281.797 64.2973 284.185 60.8346 290.963 55.6732C293.221 53.947 311.405 47.7741 313.617 41.1421C313.951 40.1374 315.242 42.1778 315.814 43.0927C318.155 46.8144 326.695 50.864 331.88 51.9446C337.174 52.6943 342.252 54.4754 346.803 57.1785ZM344.207 74.4888C346.037 75.2828 345.778 73.132 345.379 72.7626C343.633 71.166 341.488 70.0273 339.151 69.456C336.814 68.8847 334.364 68.8998 332.035 69.5001C323.631 71.6854 328.079 76.3117 330.327 75.0239C332.405 73.8167 334.768 73.1345 337.195 73.041C339.622 72.9474 342.034 73.4455 344.207 74.4888ZM308.277 72.4864C308.824 64.9982 287.356 65.3503 284.131 78.2381C284.082 78.5338 284.14 78.8367 284.294 79.097C284.448 79.3574 284.689 79.5598 284.979 79.6713C285.268 79.7828 285.588 79.7967 285.887 79.7106C286.186 79.6246 286.445 79.4439 286.623 79.1979C287.338 77.9207 288.263 76.763 289.363 75.7696C298.755 68.1571 307.943 77.0746 308.277 72.4864Z" fill="#FFCEB6"/>
<path d="M348.206 127.807C348.418 146.709 347.886 148.946 345.283 148.1C344.603 147.879 344.243 146.412 344.035 146.091C341.324 141.886 339.044 150.413 336.124 148.162C335.351 147.568 336.721 146.74 341.158 139.186C344.833 132.91 348.174 125 348.206 127.807Z" fill="#FFA87D"/>
<path d="M345.837 91.9769C345.843 93.1743 345.604 94.3612 345.133 95.4697C344.661 96.5783 343.967 97.5869 343.09 98.4378C342.212 99.2888 341.169 99.9656 340.019 100.429C338.87 100.893 337.636 101.135 336.389 101.141C335.142 101.147 333.906 100.918 332.751 100.465C331.596 100.013 330.546 99.3461 329.66 98.5038C328.773 97.6614 328.068 96.6597 327.585 95.5558C327.102 94.452 326.85 93.2675 326.844 92.0702C326.925 89.6402 327.992 87.337 329.818 85.6517C331.643 83.9664 334.081 83.0325 336.614 83.049C339.049 83.1209 341.363 84.0868 343.079 85.7477C344.795 87.4087 345.782 89.6381 345.837 91.9769ZM343.55 92.3912C344.988 88.5038 331.612 87.1056 330.943 92.1012C330.583 94.7768 333.532 93.2509 335.664 92.7365C339.749 91.756 339.318 92.8608 341.554 93.6203C342.903 93.6583 343.144 93.4891 343.55 92.3912Z" fill="white"/>
<path d="M327.777 128.912C325.281 131.905 325.26 132.592 315.191 131.397C300.448 129.644 301.013 129.568 297.971 124.209C322.685 129.968 330.193 126.012 327.777 128.912Z" fill="white"/>
<path d="M312.602 209.891C314.709 211.772 319.973 215.584 319.178 221.283C318.711 224.615 309.175 226.158 308.326 222.081C307.618 218.705 310.44 207.964 312.602 209.891Z" fill="#D4F2E2"/>
<path d="M316.375 136.626C322.086 136.826 314.739 146.451 307.983 138.266C306.595 136.584 314.506 136.557 316.375 136.626Z" fill="#FF9C9F"/>
<path d="M311.512 455.129C311.669 455.871 311.523 456.643 311.106 457.285C310.689 457.927 310.031 458.391 309.268 458.582C283.439 462.255 285.863 462.504 285.456 451.577C285.334 448.356 288.836 449.019 297.283 448.47C312.695 447.5 310.566 446.191 311.512 455.129Z" fill="white"/>
<path d="M310.622 28.953C311.7 38.1709 311.172 41.4541 305.386 44.9721C302.175 46.9262 297.454 48.3624 290.158 52.3292C279.467 58.143 278.23 70.3645 275.911 82.7344C275.469 85.082 274.775 87.2916 274.217 89.6081C273.617 92.1008 272.243 94.5934 271.236 93.827C269.943 92.5252 268.528 91.3407 267.008 90.2883C256.037 84.4192 243.559 96.9963 255.774 116.844C256.85 118.621 258.49 120.02 260.454 120.836C262.418 121.651 264.603 121.841 266.688 121.377C271.524 120.738 259.884 153.257 270.812 170.84C271.474 171.906 272.092 172.221 266.105 171.413C254.239 169.814 255.533 169.987 248.964 160.572C246.923 156.804 245.32 152.832 244.185 148.727C244.054 147.217 243.813 145.717 243.466 144.239C243.348 143.982 243.146 143.769 242.891 143.633C242.636 143.496 242.341 143.443 242.051 143.482C241.762 143.521 241.494 143.65 241.288 143.849C241.081 144.048 240.949 144.306 240.909 144.584C239.259 157.075 253.462 170.846 251.337 170.577C247.442 169.719 243.785 168.067 240.612 165.733C237.44 163.4 234.828 160.439 232.952 157.051C223.674 138.95 229.834 128.465 227.288 128.703C225.72 128.852 225.257 132.256 225.066 133.561C224.492 140.437 225.547 147.349 228.151 153.778C229.047 155.394 229.516 157.195 229.518 159.025C229.518 160.061 228.133 159.402 227.551 158.939C225.329 157.706 223.464 155.958 222.125 153.855C220.787 151.753 220.018 149.362 219.888 146.901C219.248 140.659 215.141 128.068 225.713 118.039C232.905 111.203 228.813 110.575 236.069 101.298C244.771 90.1743 238.162 82.7413 245.976 68.3932C249.845 61.2985 255.62 63.3043 266.713 49.6432C270.37 45.1551 274.951 43.2494 285.501 37.8291C288.903 36.0787 303.984 25.9701 309.104 26.1669C310.014 26.2014 310.525 28.2936 310.622 28.953ZM298.155 37.2905C300.528 36.531 302.829 35.8025 302.678 34.0625C302.678 32.9198 302.287 32.5745 301.219 32.6816C298.572 32.9785 290.205 37.5149 289.158 40.1387C288.759 41.1434 289.104 41.3643 289.223 41.4748C289.838 42.0341 290.1 41.7268 290.942 41.2297C293.128 39.5886 295.552 38.2616 298.137 37.2905H298.155ZM275.782 53.0714C278.022 51.2348 279.604 50.2715 279.568 49.1081C279.46 45.4313 276.332 49.26 274.487 50.5581C270.606 53.6507 267.549 57.5871 265.569 62.0408C264.131 64.668 263.412 67.6923 260.83 81.9645C260.571 83.4145 260.967 84.4365 262.495 84.2293C265.498 84.2017 262.847 63.6841 275.764 53.0714H275.782ZM257.457 155.687C257.238 152.982 256.756 150.303 256.019 147.684C254.581 139.33 255.411 137.02 257.026 127.723C257.04 127.359 256.913 127.003 256.671 126.723C256.43 126.443 256.089 126.258 255.714 126.204C255.339 126.15 254.957 126.23 254.64 126.429C254.323 126.628 254.093 126.933 253.994 127.284C252.628 131.189 250.305 148.617 255.792 156.284C256.325 157.027 257.339 156.333 257.457 155.687ZM246.296 111.579C245.976 108.541 243.825 109.301 242.97 111.044C238 121.142 234.998 125.154 236.803 134.641C237.054 135.977 237.112 135.957 238.543 136.108C238.975 136.153 239.291 136.16 239.295 135.563C239.395 123.203 239.381 126.5 246.296 111.579Z" fill="#FFA87D"/>
<path d="M308.719 92.1258C308.714 94.8434 307.603 97.4514 305.623 99.3935C303.643 101.336 300.951 102.458 298.122 102.521C284.634 102.442 284.864 82.4798 298.553 82.8734C301.144 82.9219 303.622 83.8975 305.503 85.609C307.383 87.3206 308.53 89.6447 308.719 92.1258ZM305.705 93.8037C306.162 92.3986 305.288 91.9152 303.188 91.3663C300.481 90.7242 297.624 91.0137 295.116 92.1845C290.082 95.1674 292.48 97.4702 294.695 96.2756C295.693 95.4919 296.868 94.9429 298.126 94.6726C299.384 94.4022 300.69 94.418 301.941 94.7186C304.005 95.3538 305.141 95.5368 305.705 93.8037Z" fill="white"/>
<path d="M293.039 2.80513C300.317 2.07667 308.915 6.12634 307.534 6.72015C295.592 11.8297 289.515 10.5419 265.596 28.8155C258.048 34.5914 260.278 34.3773 252.701 37.5052C246.427 40.0336 240.481 43.2557 234.984 47.1063C231.27 36.4936 256.905 6.43015 293.039 2.80513Z" fill="#E3B27D"/>
<path d="M284.568 175.205C284.816 176.517 284.039 176.21 280.997 177.346C273.646 179.809 266.511 182.832 259.66 186.384C259.019 186.75 258.469 185.493 256.617 185.141C254.46 184.73 254.859 185.386 254.539 182.918C254.59 181.673 254.915 180.452 255.493 179.337C256.072 178.222 256.89 177.237 257.894 176.448C259.861 174.414 258.797 173.755 262.975 174.301C270.167 175.243 280.005 176.955 275.172 171.193C273.219 168.87 268.818 160.173 270.961 160.936C277.243 163.17 275.755 160.546 277.329 158.558C279.918 163.298 281.598 160.712 282.267 163.284C283.266 167.213 284.034 171.193 284.568 175.205Z" fill="#8397B7"/>
<path d="M282.803 457.721C283.019 459.178 281.635 460.021 277.704 459.686C273.774 459.351 266.683 458.505 260.354 458.043C251.246 457.376 252.501 456.969 252.221 453.209C252.221 445.673 254.418 451.787 280.085 450.637C283.515 450.503 281.732 450.523 282.803 457.721Z" fill="#E3B27D"/>
<path d="M270.944 128.295C271.545 128.817 281.117 156.008 280.614 157.503C279.841 156.812 278.51 152.003 275.619 155.041C273.541 157.227 274.637 158.79 272.153 158.148C269.531 157.458 269.636 157.496 269.409 155.072C269.244 146.123 269.757 137.173 270.944 128.295Z" fill="#FFA87D"/>
<path d="M249.447 189.913C259.796 190.102 258.962 178.092 250.504 226.032C248.555 237.079 250.691 237.362 248.25 237.625C245.566 237.892 242.866 237.979 240.17 237.887C237.966 237.832 237.318 237.511 237.318 236.361C237.311 226.833 241.04 189.757 249.447 189.913Z" fill="#8397B7"/>
<path d="M248.107 314.704C251.703 314.918 251.567 314.504 251.567 316.82C251.455 317.59 251.926 318.433 251.042 318.961C249.717 317.792 248.71 316.331 248.107 314.704Z" fill="#8397B7"/>
<path d="M248.84 240.87C251.667 240.525 251.102 242.22 251.084 244.961C251.023 254.797 251.652 260.718 248.441 260.728C235.737 260.756 230.89 263.145 233.393 248.175C235.51 235.522 231.512 242.952 248.84 240.87Z" fill="#8397B7"/>
<path d="M248.817 265.307C247.584 303.87 254.179 311.569 250.022 311.172C242.863 310.481 239.051 295.121 239.148 289.321C239.274 281.726 234.966 276.876 235.513 265.269C235.617 263.021 236.397 265.414 243.823 264.364C245.138 264.261 246.459 264.23 247.778 264.271C248.569 264.247 248.839 264.578 248.817 265.307Z" fill="#8397B7"/>
<path d="M240.436 193.77C241.378 193.77 241.015 193.694 239.195 200.506C231.745 228.422 235.423 232.613 232.388 235.03C231.374 235.845 231.108 239.152 231.015 240.416C230.576 246.24 227.041 258.247 231.245 262.466C232.396 263.619 231.935 263.902 232.029 270.062C232.104 275.078 234.427 272.823 223.758 273.859C215.607 274.65 210.551 274.715 204.891 277.805C201.784 279.5 196.98 279.718 187.75 281.703C176.516 284.12 170.227 289.029 171.403 286.06C174.305 278.717 171.043 271.453 171.259 260.488C171.892 227.953 168.972 245.601 159.184 210.145C158.857 208.964 156.283 207.898 162.683 207.891C180.598 207.863 190.292 200.019 205.441 201.359C212.813 201.994 227.663 193.67 240.436 193.77Z" fill="#B8D7FF"/>
<path d="M166.39 238.506C168.091 243.222 168.188 247.72 167.39 260.57C167.239 263.07 150.155 261.502 136.264 263.056C132.269 263.501 119.468 265.234 112.97 263.401C111.438 262.973 101.19 262.421 96.9832 246.484C88.9321 215.996 75.9835 132.538 73.3442 121.96C72.7329 119.505 74.3438 120.852 76.3251 120.272C81.0357 118.891 69.903 116.964 66.2568 111.458C58.3891 99.6022 57.8281 98.8289 56.7566 94.831C54.7213 87.2358 51.6001 89.8113 40.5753 73.7714C38.6858 71.2804 37.0665 68.6105 35.7425 65.8033C35.4405 64.8573 35.8108 63.7077 36.8428 63.7077C38.4861 63.8043 39.2556 65.0369 48.3495 75.5287C50.7329 77.9353 53.2539 80.2128 55.9008 82.3506C56.0822 82.553 56.219 82.7886 56.3031 83.0431C56.3871 83.2977 56.4166 83.5659 56.3898 83.8317C57.4146 87.077 55.2427 85.3922 72.7005 74.8762C79.0148 71.0786 81.0249 70.2603 81.8088 69.7597C82.3517 69.4145 82.8875 68.724 82.6969 68.3028C82.5064 67.8816 81.7836 67.8678 81.1687 67.9576C76.9904 68.617 78.7631 71.0199 75.6707 58.7224C72.6142 46.5631 68.5833 36.382 67.8497 31.1032C67.634 29.5497 68.2093 28.7349 69.378 28.5726C71.3197 28.2999 71.4959 30.5198 73.4448 35.5016C92.5531 84.3219 79.5973 55.0974 91.273 77.9661C92.4165 80.2032 81.3197 89.6559 84.1856 97.5066C84.2431 97.6736 84.3524 97.8197 84.4987 97.9254C84.6451 98.0312 84.8216 98.0914 85.0046 98.0982C85.1876 98.1049 85.3684 98.0579 85.5228 97.9633C85.6772 97.8686 85.7978 97.731 85.8685 97.5688C86.0866 94.1193 87.2205 90.7808 89.1623 87.871C92.2655 83.3207 95.3039 81.6153 94.8832 72.4871C94.0395 66.686 93.5054 60.8473 93.2831 54.9938C93.2963 53.9507 93.6358 52.9355 94.2576 52.08C94.9408 51.1444 96.5409 50.7612 97.1342 51.9557C98.1087 53.9443 97.6233 55.7534 99.0688 61.3566C101.072 65.6412 102.312 70.2182 102.737 74.8969C102.765 78.1732 105.419 86.8111 102.586 93.4708C101.593 97.4853 101.091 101.597 101.09 105.723C100.658 110.678 97.2888 114.03 98.2381 120.544C99.546 127.596 101.413 134.542 103.822 141.321C112.266 167.114 117.72 178.262 121.003 186.447C142.219 239.383 134.887 225.905 137.458 230.003C137.656 230.308 137.96 230.536 138.317 230.646C138.674 230.756 139.059 230.74 139.405 230.602C139.751 230.464 140.034 230.212 140.205 229.891C140.375 229.571 140.421 229.203 140.335 228.853C137.62 217.909 136.099 218.123 139.454 218.24C145.075 217.994 150.672 217.371 156.203 216.376C157.609 215.993 157.131 217.319 158.623 221.396C161.367 228.853 164.689 233.793 166.39 238.506ZM86.9868 111.012C88.0116 110.408 87.5621 109.262 87.3464 107.712C86.8375 104.165 85.1941 100.857 82.643 98.2455C79.8311 95.0594 75.9664 92.8953 71.6937 92.114C63.826 90.626 63.4233 92.946 65.757 93.5191C73.8979 95.5008 78.2453 94.2476 85.0234 109.117C85.4154 109.997 86.1238 111.52 86.9868 111.012ZM82.1036 73.44C81.4168 73.15 81.4132 72.5562 78.8853 73.8715C75.6922 75.5214 72.6287 77.3929 69.7196 79.4713C60.694 85.9549 61.9669 86.093 63.1248 87.657C63.7253 87.2599 81.4312 74.638 82.1036 73.44Z" fill="#FFCEB6"/>
<path d="M55.6294 29.0007C56.7513 31.0031 75.7301 69.7701 74.7197 70.4053C68.3586 74.4205 68.7218 74.5482 68.1788 73.1914C59.0238 50.4505 54.3421 37.8699 53.0188 32.9537C52.5765 31.3173 51.3719 29.0939 53.5762 28.0893C53.9744 27.9499 54.4139 27.9675 54.7986 28.1382C55.1834 28.309 55.4821 28.6191 55.6294 29.0007Z" fill="#FFCEB6"/>
<path d="M60.7094 66.1422C65.6681 75.9711 66.8619 74.963 65.5135 75.8917C60.4577 79.3786 59.9291 81.0703 58.7605 79.0541C57.7572 77.3279 57.0345 75.947 56.4987 74.8111C54.7547 71.1343 43.0431 45.5797 42.4749 43.4703C41.9068 41.3608 41.8025 40.5771 43.1042 40.0489C44.28 39.5725 44.9776 41.0846 46.1966 43.0353C46.5274 43.5704 59.2171 63.18 60.7094 66.1422Z" fill="#FFCEB6"/>
<path d="M417.655 493.195C417.888 494.386 417.234 494.921 415.979 495.19C414.724 495.459 406.63 495.78 404.832 495.829C385.199 496.329 379.251 488.644 373.106 487.488C366.299 486.207 366.939 483.559 364.325 481.843C361.089 479.501 358.614 476.323 357.191 472.68C356.928 471.375 358.302 469.718 359.524 471.3C361.322 473.623 367.953 482.644 373.268 483.828C384.965 486.431 373.746 485.789 394.275 491.185C406.317 494.344 416.936 489.476 417.655 493.195Z" fill="#000001"/>
<path d="M415.9 503.409C416.304 503.496 416.663 503.72 416.91 504.039C417.157 504.359 417.277 504.753 417.247 505.15C417.217 505.547 417.039 505.92 416.746 506.202C416.453 506.484 416.065 506.655 415.652 506.685C379.744 509.054 396.094 508.567 369.463 501.054C367.691 500.346 366.168 499.163 365.076 497.647C363.217 495.206 355.429 494.695 352.02 483.471C351.739 482.543 353.027 481.528 353.818 482.536C355.406 485.452 357.47 488.106 359.931 490.397C362.527 492.617 364.756 493 366.349 494.412C368.233 496.083 368.625 497.461 371.613 498.161C383.03 500.844 385.03 505.315 401.66 504.124C403.519 504.211 405.38 503.985 407.158 503.457C410.066 503.218 412.989 503.202 415.9 503.409Z" fill="#000001"/>
<path d="M365.476 301.549C366.332 301.77 370.086 304.698 354.728 304.839C352.218 304.632 349.696 304.571 347.177 304.656C329.087 303.558 323.373 306.728 311.898 304.839C308.231 304.235 301.294 302.719 297.497 302.17C293.873 301.646 291.56 302.371 289.036 301.977C284.171 301.221 283.053 303.807 272.136 298.732C268.899 297.22 267.907 296.871 266.943 295.749C265.696 294.299 267.253 292.369 269.101 293.553C273.634 296.489 278.893 298.225 284.347 298.587C309.518 298.898 300.241 299.995 314.714 301.825C320.985 302.619 332.805 300.662 341.632 300.859C351.877 301.086 354.675 301.459 357.231 301.411C359.963 300.94 362.764 300.987 365.476 301.549Z" fill="#000001"/>
<path d="M348.824 317.129C350.079 318.134 348.489 319.784 346.939 319.646C338.004 318.849 334.466 317.191 329.471 317.868C312.211 320.198 302.678 312.527 292.703 312.596C286.127 312.641 281.067 313.687 276.396 310.149C275.181 309.23 275.116 308.422 275.638 307.732C276.716 306.303 278.05 307.777 280.55 308.812C285.792 310.991 287.382 307.038 305.778 311.623C311.095 313.548 316.71 314.605 322.391 314.751C327.07 314.014 331.835 313.926 336.54 314.492C348.425 316.366 347.457 316.038 348.824 317.129Z" fill="#000001"/>
<path d="M345.377 72.7686C345.777 73.1311 346.035 75.282 344.205 74.4948C342.033 73.4505 339.621 72.9512 337.194 73.0436C334.767 73.1359 332.404 73.8169 330.325 75.023C328.085 76.3246 323.63 71.6984 332.033 69.4992C334.363 68.8999 336.814 68.8858 339.151 69.4583C341.488 70.0309 343.632 71.1708 345.377 72.7686Z" fill="#000001"/>
<path d="M330.94 92.1035C331.609 87.1079 344.989 88.5061 343.547 92.3935C343.141 93.4914 342.9 93.6605 341.551 93.6226C339.315 92.863 339.754 91.7583 335.662 92.7387C333.529 93.2531 330.581 94.7791 330.94 92.1035Z" fill="#000001"/>
<path d="M331.737 119.276C334.232 117.861 339.27 126.585 336.138 127.624C334.013 128.315 334.376 125.401 332.902 127.21C328.518 132.955 323.766 138.433 318.673 143.612C308.177 152.537 298.896 128.801 294.987 124.472C294.268 123.661 294.074 123.896 293.732 124.724C293.132 126.181 293.092 128.277 291.776 127.707C290.27 127.058 290.399 124.907 290.744 123.564C291.845 117.985 297.702 115.517 298.615 116.266C299.439 116.956 299.133 117.961 298.615 118.876C297.673 120.526 297.112 122.414 313.502 124.558C317.837 125.282 322.243 125.543 326.638 125.335C328.029 125.252 329.382 124.863 330.593 124.199C333.427 122.653 329.597 120.491 331.737 119.276ZM327.781 128.912C330.194 126.015 322.833 129.999 297.99 124.21C301 129.513 300.413 129.637 315.21 131.398C325.239 132.592 325.279 131.905 327.774 128.912H327.781ZM308.004 138.264C314.761 146.45 322.107 136.825 316.397 136.625C314.502 136.555 306.591 136.583 307.979 138.264H308.004Z" fill="#000001"/>
<path d="M323.477 100.53C329.651 102.781 327.662 110.629 320.672 112.738C314.2 114.689 311.161 108.816 316.332 109.047C318.346 109.237 319.241 109.935 321.765 108.012C324.523 105.94 323.786 104.238 321.884 103.586C313.761 100.8 315.437 94.9755 317.738 95.1067C319.946 95.2413 316.735 98.0688 323.477 100.53Z" fill="#000001"/>
<path d="M306.991 466.021C307.419 464.664 309.785 464.471 309.746 466.052C309.746 466.128 305.693 495.705 306.869 503.908C307.997 512.908 308.278 521.988 307.707 531.037C307.347 533.55 304.902 533.267 304.726 530.798C304.661 529.884 304.758 530.039 304.888 530.039C305.381 502.579 302.274 513.419 303.903 491.117C304.363 485.089 302.856 479.12 306.991 466.021Z" fill="#000001"/>
<path d="M284.132 78.2362C287.368 65.3484 308.825 64.9963 308.278 72.4845C307.944 77.0727 298.746 68.1552 289.364 75.7677C288.264 76.7612 287.339 77.9188 286.624 79.196C286.446 79.442 286.187 79.6227 285.888 79.7088C285.589 79.7948 285.269 79.7809 284.98 79.6694C284.69 79.558 284.449 79.3555 284.295 79.0951C284.141 78.8348 284.083 78.5319 284.132 78.2362Z" fill="#000001"/>
<path d="M303.19 91.3655C305.29 91.9144 306.163 92.4012 305.707 93.8029C305.142 95.5291 304.006 95.3357 301.942 94.7178C300.691 94.4172 299.385 94.4014 298.127 94.6717C296.869 94.9421 295.694 95.491 294.696 96.2748C292.481 97.4693 290.076 95.17 295.117 92.1837C297.625 91.0126 300.482 90.723 303.19 91.3655Z" fill="#000001"/>
<path d="M302.659 34.0657C302.803 35.7919 300.501 36.5342 298.135 37.2937C295.543 38.2676 293.113 39.5993 290.922 41.2467C290.08 41.7439 289.818 42.0511 289.203 41.4919C289.084 41.3814 288.739 41.1466 289.138 40.1558C290.185 37.532 298.552 32.9955 301.199 32.6986C302.267 32.5778 302.652 32.923 302.659 34.0657Z" fill="#000001"/>
<path d="M301.909 420.512C307.756 420.857 303.322 430.255 298.201 425.836C297.607 425.31 297.13 424.674 296.8 423.966C296.469 423.258 296.293 422.493 296.281 421.717C296.817 415.403 301.733 415.741 300.837 418.679C300.273 420.536 298.921 420.336 301.909 420.512Z" fill="#000001"/>
<path d="M292.671 511.037C292.976 511.797 296.924 527.985 294.727 532.597C294.619 532.791 294.454 532.95 294.252 533.054C294.05 533.157 293.821 533.201 293.593 533.18C293.366 533.158 293.149 533.073 292.972 532.933C292.795 532.794 292.665 532.607 292.599 532.397C292.312 526.775 291.489 521.19 290.139 515.712C287.053 500.273 286.195 484.499 287.59 468.835C287.587 468.471 287.732 468.12 287.994 467.857C288.256 467.594 288.615 467.439 288.994 467.425C289.373 467.411 289.742 467.54 290.025 467.783C290.307 468.026 290.479 468.365 290.506 468.728C290.513 468.804 289.618 503.425 292.671 511.037Z" fill="#000001"/>
<path d="M279.55 49.0929C279.586 50.2564 278.003 51.2196 275.763 53.0563C271.301 56.9948 268.13 62.0956 266.637 67.7359C264.163 76.2426 264.159 84.228 262.477 84.2452C260.948 84.4524 260.553 83.4305 260.812 81.9805C263.383 67.7083 264.102 64.684 265.551 62.0567C267.531 57.603 270.588 53.6666 274.469 50.574C276.324 49.2621 279.442 45.4334 279.55 49.0929Z" fill="#000001"/>
<path d="M269.833 109.509C270.074 109.818 270.215 110.187 270.239 110.572C270.263 110.956 270.17 111.339 269.97 111.674C267.687 115.471 259.999 112.126 263.497 106.119C264.074 105.064 264.209 103.838 263.875 102.691C263.541 101.544 262.762 100.563 261.7 99.9494C259.934 98.7238 259.628 101.265 259.463 103.319C259.43 103.606 259.298 103.874 259.088 104.081C258.878 104.288 258.603 104.421 258.305 104.461C258.007 104.501 257.704 104.444 257.443 104.3C257.183 104.155 256.98 103.932 256.867 103.664C254.788 98.4373 259.222 94.3772 263.458 96.8595C265.17 97.8856 266.478 99.4294 267.175 101.248C267.872 103.066 267.919 105.056 267.309 106.903C266.975 107.379 266.176 108.781 266.46 109.281C266.856 109.968 269.003 108.19 269.833 109.509Z" fill="#000001"/>
<path d="M256.004 147.687C256.741 150.306 257.223 152.985 257.442 155.689C257.324 156.335 256.317 157.029 255.774 156.273C250.276 148.619 252.599 131.191 253.976 127.273C254.074 126.921 254.304 126.617 254.621 126.418C254.938 126.219 255.321 126.139 255.695 126.193C256.07 126.247 256.411 126.432 256.653 126.712C256.895 126.992 257.021 127.348 257.007 127.711C255.393 137.022 254.566 139.332 256.004 147.687Z" fill="#000001"/>
<path d="M242.971 111.045C243.826 109.302 245.977 108.542 246.297 111.58C239.382 126.501 239.396 123.204 239.296 135.564C239.296 136.161 238.976 136.154 238.544 136.109C237.106 135.958 237.055 135.978 236.804 134.642C234.999 125.155 237.987 121.143 242.971 111.045Z" fill="#000001"/>
<path d="M131.191 66.8561C132.46 64.1494 136.225 68.3648 135.714 71.7171C135.441 81.3838 130.378 82.9132 126.782 84.7292C122.427 86.9284 127.771 87.5912 126.667 94.9794C126.689 96.2933 126.327 97.587 125.623 98.714C124.919 99.8409 123.901 100.756 122.683 101.356C113.948 107.805 123.841 105.154 117.246 117.582C116.297 119.371 115.617 119.308 112.819 121.242C110.63 122.744 109.687 120.282 110.719 119.239C112.877 117.037 114.028 117.565 115.002 115.718C117.336 111.292 117.088 111.482 116.775 109.303C116.033 107.722 115.883 105.943 116.351 104.268C116.819 102.593 117.876 101.125 119.342 100.113C121.798 98.1694 123.837 97.7793 123.833 95.1865C124.217 92.9895 123.819 90.7324 122.704 88.7789C122.19 87.8108 122.058 86.6963 122.335 85.6423C122.611 84.5883 123.277 83.6665 124.207 83.0479C128.163 80.8383 132.187 80.9177 133.276 72.4628C133.79 68.427 130.407 68.5202 131.191 66.8561Z" fill="#000001"/>
<path d="M114.288 57.4628C116.978 59.7104 116.694 62.5103 116.468 68.5105C116.388 70.651 114.08 70.5509 113.807 69.4185C113.465 67.2172 113.471 64.9791 113.825 62.7795C113.943 60.2179 112.25 59.9486 110.549 57.5699C107.672 53.5271 110.725 52.5018 112.778 47.7651C113.436 46.2495 113.857 44.8512 112.778 44.0606C111.747 42.6837 110.321 41.6243 108.674 41.0114C107.027 40.3984 105.229 40.2584 103.501 40.6082C92.0339 42.0444 101.904 37.8118 95.4966 36.0511C94.2748 35.8663 93.161 35.271 92.3536 34.3713C91.5463 33.4716 91.0978 32.3259 91.0882 31.1383C91.9548 20.2391 85.9245 21.4716 85.3744 20.3289C84.0547 17.6153 93.67 16.5312 93.7491 30.2269C93.7671 33.12 95.2701 33.1234 97.8807 33.9244C102.221 35.257 99.862 37.9292 101.908 37.7531C105.488 37.0905 109.195 37.798 112.239 39.7244C114.076 41.3988 116.619 43.0767 116.148 45.2275C116.205 53.2716 109.031 53.0852 114.288 57.4628Z" fill="#000001"/>
<path d="M87.3181 107.714C87.5482 109.264 87.9977 110.41 86.9585 111.014C86.0955 111.522 85.3872 109.999 84.9844 109.119C78.235 94.2493 73.8877 95.5025 65.7431 93.5208C63.395 92.9478 63.8121 90.6277 71.6798 92.1157C75.9578 92.8941 79.8279 95.0585 82.6435 98.2472C85.1841 100.862 86.8174 104.17 87.3181 107.714Z" fill="#000001"/>
<path d="M559.76 529.418C553.011 525.441 555.934 526.152 550.983 522.368C543.708 516.81 543.359 511.78 536.847 508.473C531.943 505.983 536.43 506.77 518.149 490.454C516.79 489.243 520.152 489.377 520.378 486.098C520.583 483.125 519.627 480.612 516.952 474.494C516.368 473.516 515.452 472.761 514.357 472.355C513.263 471.949 512.056 471.917 510.939 472.264C508.519 472.668 510.781 476.306 494.632 425.76C486.419 400.053 488.472 408.222 484.679 394.574C483.072 388.795 481.694 383.634 480.116 378.669C472.169 353.695 465.635 338.038 468.012 336.913C484.679 329.02 481.126 331.827 471.507 308.195C465.844 294.289 462.651 293.858 460.047 285.634C449.184 251.31 451.036 274.949 441.079 236.669C438.476 226.657 436.639 226.747 433.916 220.605C431.399 214.926 431.701 191.912 427.804 185.435C424.463 179.884 426.128 166.792 419.396 160.84C405.268 148.349 398.933 149.416 387.588 147.283C374.226 144.769 375.071 148.902 376.703 141.728C380.727 124.076 374.186 109.541 365.876 93.3942C362.212 86.2823 364.506 83.2891 362.665 75.6765C361.809 72.033 361.327 68.3177 361.227 64.584C361.184 63.203 360.885 61.8842 361.388 61.1316C364.181 58.1312 366.741 54.9384 369.048 51.5788C375.16 41.4011 376.707 38.0799 375.002 26.6559C374.397 22.5109 372.74 18.5723 370.177 15.1871C363.208 6.07964 354.405 1.79177 340.881 1.6226C334.994 1.65756 329.117 2.09249 323.294 2.92415C314.614 4.51226 313.15 6.14179 310.709 4.48464C305.887 1.20401 300.025 -0.357708 294.132 0.0690197C281.669 0.0690197 267.613 6.18667 255.962 13.3504C252.945 15.2043 238.954 25.1058 234.948 34.631C232.514 39.2522 231.354 44.3954 231.579 49.5695C231.809 50.9297 229.831 52.4074 226.221 56.2223C221.838 60.419 218.17 65.2516 215.351 70.5428C212.629 75.5246 213.125 76.1495 211.302 84.96C210.881 88.8593 211.565 92.7953 213.28 96.3529C214.089 97.7751 215.053 99.1106 216.156 100.337C223.19 111.178 233.513 105.574 223.747 114.858C210.558 127.393 216.196 140.771 216.437 145.767C216.476 150.518 218.317 155.092 221.615 158.634C229.86 165.646 230.676 165.815 232.266 162.432C247.048 179.825 258.447 171.339 253.905 176.331C252.654 177.652 251.75 179.24 251.267 180.964C250.784 182.688 250.737 184.498 251.129 186.243C250.47 186.379 249.8 186.456 249.126 186.474C243.326 186.547 244.071 191.653 241.848 191.094C230.263 188.183 215.671 198.437 205.433 197.822C187.062 196.718 197.724 199.656 170.888 203.736C164.186 204.772 158.99 203.167 152.359 206.153C150.942 206.788 150.637 207.482 148.921 213.179C148.662 214.038 148.666 213.955 139.702 214.846C134.117 215.398 138.77 219.182 121.036 176.777C113.271 159.608 106.873 141.9 101.895 123.803C99.5936 116.256 101.812 114.412 102.726 110.877C105.376 100.63 103.085 99.9987 105.897 92.141C106.665 88.0811 106.751 83.9296 106.152 79.8436C105.793 75.4075 105.113 71.0009 104.117 66.6554C102.952 62.5125 101.334 62.7197 100.424 54.9173C100.289 53.513 100.008 52.1252 99.5864 50.7744C99.2268 49.7387 98.5077 48.6477 95.951 48.7478C87.2851 49.0931 92.0567 65.1847 92.5386 72.6246C92.6105 73.7984 92.4559 74.1126 91.9021 73.1252C84.3976 59.7264 91.2441 72.0066 73.9949 30.5433C73.6353 29.6561 72.348 25.2853 68.1444 26.4764C66.2746 27.0081 64.9477 28.7032 65.6921 31.8104C68.3386 42.8822 72.4055 53.2394 71.6827 55.7286C71.6 55.6146 65.6921 43.7108 61.2908 34.9866C58.015 28.4857 57.2095 27.0046 56.1164 26.2693C55.663 26.0034 55.1551 25.8349 54.6275 25.7754C54.0999 25.7158 53.5651 25.7665 53.0599 25.924C52.0149 26.2201 51.1351 26.9024 50.6139 27.8211C50.0927 28.7397 49.9727 29.8194 50.2803 30.823C51.7886 36.7795 53.619 42.6565 55.764 48.4302C61.7438 64.8049 60.1509 60.4238 50.4026 45.4922C48.9477 42.8207 47.1343 40.3438 45.0088 38.1248C44.3927 37.7568 43.6685 37.5915 42.9458 37.6538C42.223 37.7161 41.5411 38.0026 41.0031 38.47C40.473 38.8279 40.0742 39.3373 39.8637 39.9257C39.6532 40.5141 39.6417 41.1513 39.8308 41.7464C41.9488 50.2772 52.0063 70.6947 53.9481 76.077C53.9748 76.1523 53.9769 76.2337 53.9541 76.3101C53.9313 76.3866 53.8847 76.4546 53.8206 76.505C53.7564 76.5553 53.6777 76.5856 53.5951 76.5918C53.5125 76.598 53.4299 76.5798 53.3584 76.5396C49.5745 72.9369 45.9893 69.1468 42.6176 65.1847C41.2779 63.5463 39.5063 62.2817 37.4863 61.5217C36.9684 61.3161 36.4037 61.2432 35.8476 61.3101C35.2915 61.377 34.763 61.5814 34.3139 61.9033C33.8648 62.2252 33.5104 62.6536 33.2856 63.1465C33.0607 63.6394 32.973 64.1799 33.0311 64.7152C34.4263 73.6085 52.3587 92.2411 52.8801 94.2504C53.5665 97.4971 54.846 100.601 56.6593 103.42C62.5457 111.678 63.7611 114.872 69.2196 118.631C69.9783 119.484 70.061 119.912 75.8755 152.151C78.0654 164.282 80.4422 181.783 82.7579 194.909C87.188 220.028 90.8953 239.444 91.8985 243.211C96.7205 261.36 103.261 264.533 107.433 266.073C124.053 272.211 152.884 261.585 155.002 267.799C157.134 274.058 160.755 293.903 171.464 290.768C172.902 290.347 180.291 287.699 180.388 287.661C190.522 283.784 190.583 285.7 203.434 282.292C210.266 280.476 206.527 278.719 227.005 277.31C233.118 276.893 232.952 276.889 233.2 277.811C234.671 281.91 235.497 286.197 235.653 290.53C235.545 300.766 243.621 312.656 243.65 312.735C244.862 316.786 247.367 320.37 250.813 322.982C251.028 323.151 251.184 323.379 251.26 323.636C251.335 323.893 251.326 324.166 251.234 324.418C251.108 324.915 249.436 326.973 248.382 329.428C244.545 338.525 248.95 342.032 247.329 348.164C244.761 357.858 241.316 361.628 240.27 365.547C238.925 370.58 238.091 377.285 234.182 382.495C227.3 391.643 231 396.142 255.182 411.042C257.052 412.195 256.124 410.904 254.423 429.457C253.783 436.421 255.045 437.239 253.56 436.953C245.728 435.44 243.959 445.024 248.623 446.965C249.364 447.275 249.493 447.703 249.267 448.47C247.904 453.148 249.723 457.329 248.447 458.061C246.965 458.906 244.466 459.925 244.053 462.348C243.714 464.235 243.844 466.172 244.433 468.001C245.022 469.83 246.052 471.5 247.44 472.875C249.723 475.599 245.822 476.127 246.128 487.751C246.663 508.12 246.128 505.441 246.361 508.075C247.109 516.627 250.842 521.861 250.971 526.877C251.507 547.716 259.306 552.028 264.995 564.816C274.812 586.856 280.942 588.085 280.385 590.104C276.451 604.325 276.351 605.799 270.63 616.588C264.074 628.947 266.246 629.341 263.438 635.89C262.528 638.017 262.046 637.837 256.005 649.983C253.175 655.676 259.853 655.883 259.601 653.162C260.312 649.588 261.737 646.18 263.797 643.126C268.03 636.422 268.084 632.5 270.119 626.582C271.464 622.674 276.929 613.401 279.396 607.021C281.467 601.656 283.186 593.519 283.895 591.43C290.507 571.931 291.28 580.037 293.434 567.654C294.934 559.057 298.235 562.699 299.547 545.606H299.382C299.382 536.357 296.732 540.428 314.754 537.697C315.61 537.569 319.508 534.062 309.274 534.935C283.201 537.162 294.783 533.823 273.186 538.715C270.604 539.299 270.957 542.368 273.826 541.823C291.043 538.557 282.503 539.665 294.988 539.33C295.322 539.33 295.962 539.53 295.962 539.644C296.013 540.271 295.922 540.901 295.696 541.491C295.559 541.778 281.608 544.125 283.359 548.396C284.348 550.813 295.718 542.486 295.847 545.979C296.074 552.08 295.013 553.951 291.845 560.455C288.742 566.832 290.64 570.812 286.451 575.57C284.046 578.294 283.237 586.341 281.449 584.394C271.176 573.198 269.526 562.568 262.773 552.432C252.632 537.21 257.62 532.539 251.985 515.553C249.666 508.548 248.709 484.596 251.324 477.629C254.714 468.597 239.68 465.797 252.043 460.17C252.233 460.17 266.066 461.551 266.908 461.679C282.481 464.334 282.87 461.623 284.549 462.97C287.483 465.314 311.877 462.124 312.359 461.264C313.078 459.959 314.053 460.229 319.828 459.5C331.735 457.108 343.254 453.193 354.078 447.862C356.099 446.875 357.314 452.412 363.035 451.439C366.18 450.491 369.214 449.233 372.09 447.686C374.301 446.595 373.866 444.355 373.247 441.886C372.442 438.665 372.194 439.649 379.72 435.81C385.355 432.934 389.526 433.29 395.351 429.157C398.72 426.582 402.633 424.744 406.818 423.771C409.008 423.547 410.932 423.927 411.389 426.16C411.643 427.309 411.651 428.494 411.411 429.645C411.172 430.796 410.691 431.888 409.997 432.855C409.49 433.931 409.287 435.117 409.41 436.293C409.532 437.469 409.975 438.593 410.695 439.552C412.906 443.35 412.014 446.174 413.571 448.853C416.391 453.404 418.729 458.214 420.551 463.212C426.153 478.992 422.147 480.474 424.344 499.303C428.922 538.491 403.877 577.12 400.274 586.597C397.311 594.396 397.275 600.714 395.24 606.924C389.846 623.306 392.403 613.37 390.371 621.359C382.636 651.806 380.155 648.478 380.662 654.737C380.813 656.649 383.898 656.211 384.024 654.616C384.193 652.627 384.905 651.057 388.436 642.615C392.91 631.93 392.69 623.789 396.308 616.464C399.544 609.904 401.471 593.529 404.251 587.446C411.083 572.525 412.316 573.343 415.013 566.266C416.225 563.089 415.207 562.275 418.836 565.427C421.32 567.591 423.722 577.244 423.988 578.418C425.725 586.172 429.742 587.301 433.647 595.925C435.891 600.89 431.896 611.299 447.832 617.582C449.918 618.404 450.044 618.366 454.632 623.551C459.45 628.992 459.051 631.685 461.856 638.245C470.155 657.647 471.353 648.498 470.878 647.435C467.71 642.219 465.143 636.688 463.223 630.939C461.483 625.504 458.273 620.609 453.92 616.753C450.644 613.211 449.368 615.027 442.733 609.966C435.718 604.622 442.086 598.656 431.86 585.651C423.906 575.542 429.645 571.62 419.778 561.27C417.261 558.632 417.124 559.647 418.3 556.281C422.714 544.106 425.728 531.503 427.289 518.699C429.062 502.631 426.365 501.267 426.811 480.222C427.207 461.416 415.923 448.622 415.725 445.062C415.366 438.416 411.791 436.956 413.208 434.16C414.938 430.766 417.35 428.342 413.021 422.014C412.331 420.999 409.087 419.694 408.084 420.288C405.894 421.576 405.793 414.764 403.539 411.595C403.354 411.366 403.247 411.087 403.232 410.797C403.218 410.507 403.298 410.22 403.46 409.976C404.711 408.046 404.567 402.57 400.119 402.505C397.688 402.467 396.66 403.565 396.034 402.028C392.586 393.549 392.374 395.945 397.969 393.152C401.107 391.54 404.331 390.088 407.627 388.802C419.569 381.041 418.71 381.062 417.66 375.935C416.991 372.683 428.271 377.157 433.528 366.689C434.445 368.923 436.818 384.728 436.829 384.804C439.17 404.576 462.867 439.58 469.389 453.507C470.943 456.821 482.784 481.364 485.725 486.305C486.915 488.314 485.092 488.766 485.427 489.995C485.836 492.117 486.884 494.077 488.44 495.633C490.134 497.138 483.942 501.126 480.105 512.674C478.764 516.717 476.894 517.038 475.607 519.755C472.072 527.233 468.49 528.69 467.113 531.814C465.204 536.154 474.916 545.348 489.454 522.002C490.539 520.685 492.06 519.764 493.766 519.393C495.472 519.021 497.258 519.222 498.828 519.962C512.133 529.494 508.178 531.821 517.383 540.783C524.104 547.319 525.973 551.286 531.504 555.757C543.251 565.261 544.715 556.861 546.524 557.9C551.357 560.662 555.513 559.312 556.092 556.758C557.211 551.838 553.809 552.245 547.236 543.252C546.088 539.271 545.3 535.203 544.88 531.093C545.6 531.417 547.067 532.86 548.915 534.138C558.203 540.611 568.332 534.466 559.76 529.418ZM517.379 480.96C517.349 481.243 517.257 481.517 517.108 481.762C516.96 482.008 516.758 482.221 516.517 482.387C516.277 482.552 516.002 482.667 515.712 482.722C515.422 482.778 515.122 482.774 514.834 482.711C514.31 482.637 513.838 482.367 513.521 481.96C513.204 481.553 513.068 481.042 513.144 480.539C513.125 480.239 513.175 479.939 513.289 479.66C513.404 479.38 513.58 479.128 513.806 478.921C514.032 478.713 514.302 478.555 514.598 478.458C514.894 478.361 515.208 478.326 515.52 478.357C515.831 478.388 516.131 478.484 516.4 478.637C516.669 478.79 516.9 478.998 517.076 479.246C517.253 479.493 517.372 479.775 517.424 480.071C517.477 480.367 517.461 480.671 517.379 480.96ZM515.053 488.293C514.835 488.283 514.622 488.231 514.426 488.139C514.23 488.047 514.056 487.918 513.913 487.759C513.771 487.601 513.664 487.416 513.599 487.216C513.534 487.017 513.512 486.806 513.534 486.598C513.556 486.39 513.622 486.188 513.729 486.005C513.835 485.822 513.979 485.662 514.151 485.535C514.324 485.407 514.522 485.315 514.734 485.263C514.945 485.211 515.165 485.202 515.38 485.234C517.178 485.3 517.059 488.29 515.053 488.293ZM509.753 475.129C510.019 475.11 510.285 475.162 510.522 475.28C510.759 475.397 510.957 475.576 511.094 475.795C511.232 476.015 511.303 476.267 511.299 476.523C511.296 476.779 511.219 477.029 511.076 477.246C510.93 477.5 510.711 477.71 510.445 477.849C510.179 477.989 509.877 478.052 509.574 478.032C509.272 478.012 508.982 477.91 508.738 477.737C508.495 477.564 508.308 477.327 508.199 477.056C508.113 476.827 508.088 476.58 508.128 476.34C508.167 476.099 508.268 475.872 508.423 475.679C508.578 475.486 508.781 475.333 509.013 475.235C509.246 475.138 509.5 475.097 509.753 475.119V475.129ZM509.505 480.249C509.869 480.275 510.225 480.369 510.552 480.526C510.878 480.683 511.169 480.901 511.409 481.166C511.648 481.432 511.83 481.74 511.945 482.073C512.06 482.406 512.106 482.758 512.079 483.108C512.139 483.738 511.969 484.369 511.598 484.893C511.227 485.417 510.678 485.801 510.046 485.979C509.413 486.158 508.735 486.12 508.128 485.872C507.521 485.624 507.023 485.181 506.718 484.62C506.425 484.168 506.268 483.648 506.266 483.116C506.264 482.584 506.416 482.062 506.705 481.608C506.994 481.155 507.409 480.787 507.904 480.547C508.398 480.307 508.953 480.204 509.505 480.249ZM511.418 489.267C511.423 489.478 511.379 489.689 511.289 489.882C511.199 490.075 511.065 490.247 510.897 490.384C510.73 490.522 510.532 490.622 510.319 490.677C510.106 490.732 509.883 490.741 509.666 490.703C509.47 490.709 509.275 490.674 509.094 490.601C508.913 490.527 508.751 490.418 508.618 490.279C508.485 490.14 508.385 489.975 508.325 489.796C508.264 489.616 508.245 489.426 508.268 489.239C508.469 487.32 511.486 486.988 511.418 489.274V489.267ZM439.756 247.83C442.381 260.107 449.983 265.03 456.416 286.566C459.066 295.442 463.223 297.4 468.544 310.709C476.002 329.352 478.401 321.857 461.633 326.345C445.128 330.764 440.846 331.799 441.626 331.454L435.344 333.274C427.02 335.69 426.146 339.253 421.263 340.486C417.53 341.428 412.46 340.323 405.258 346.624C403.822 344.648 402.948 342.347 402.719 339.947C400.835 323.683 400.921 336.26 397.21 310.194C396.869 307.778 391.701 299.665 392.73 298.857C395.373 296.785 392.582 297.244 389.853 271.3C388.185 255.488 386.976 255.218 387.663 254.856C390.015 253.63 389.634 251.376 389.652 243.649C389.986 238.297 389.77 232.925 389.004 227.613C388.436 224.623 386.531 226.018 386.487 222.68C386.829 210.731 387.894 198.812 389.677 186.982C390.065 183.032 391.554 177.118 395.398 178.565C399.213 179.631 402.801 181.339 405.995 183.609C413.755 189.398 416.815 202.542 423.064 211.387C436.603 230.555 436.93 234.628 439.756 247.83ZM366.8 238.533C366.806 236.321 366.979 234.113 367.318 231.925C367.343 230.624 370.892 231.28 373.941 231.097C383.755 230.506 385.894 229.408 385.56 233.047C385.272 236.23 388.249 253.499 383.467 252.588C379.51 253.455 375.49 254.032 371.442 254.314C363.56 254.625 367.681 245.431 366.8 238.533ZM382.054 227.116C379.68 227.327 372.417 228.003 370.162 227.875C369.004 227.806 369.364 227.951 368.39 217.142C370.324 195.347 369.997 180.892 372.672 174.677C373.07 173.634 373.821 172.748 374.804 172.162C375.788 171.577 376.948 171.324 378.098 171.446C382.214 171.205 386.33 171.916 390.101 173.517C390.971 173.918 390.101 174.898 388.969 176.594C384.952 182.604 382.705 217.494 382.694 217.57C382.334 225.549 384.333 226.912 382.054 227.116ZM373.089 257.766C388.695 258.136 381.381 245.828 387.742 284.35C390.09 298.574 392.723 295.781 381.439 298.045C378.023 298.736 377.189 297.61 376.57 295.85C372.233 283.445 374.01 280.014 371.507 270.143C370.925 267.847 369.371 260.29 369.26 258.533C369.195 257.504 370.148 257.694 373.089 257.766ZM388.461 300.307C389.612 300.058 389.123 300.452 390.802 303.966C392.646 306.752 393.926 309.846 394.574 313.088C394.463 315.373 394.538 315.732 393.24 315.097C390.997 314.002 389.806 313.888 388.271 312.09C385.564 309.466 383.436 306.345 382.014 302.913C381.295 301.318 381.273 301.857 388.461 300.307ZM409.382 157.781C415.739 160.775 418.893 163.029 420.928 170.51C424.848 184.917 422.989 182.418 425.164 188.011C427.361 191.701 428.591 211.09 428.354 211.963C425.077 208.007 422.403 203.623 420.41 198.944C418.182 193.238 415.027 187.905 411.061 183.146C407.307 178.817 402.431 177.319 395.855 175.112C393.639 174.37 395.495 172.005 390.428 169.782C385.457 167.995 380.082 167.5 374.848 168.346C369.63 169.382 370.716 172.634 368.077 172.444C366.815 172.351 364.42 172.361 364.819 171.439C365.65 168.899 367.294 166.675 369.517 165.084C371.741 163.493 374.43 162.616 377.203 162.577C381.216 162.207 385.322 159.815 391.554 158.959C393.273 158.72 407.199 156.76 409.382 157.781ZM375.837 149.596C380.003 149.746 384.143 150.297 388.195 151.239C391.162 152.275 399.803 151.667 403.118 154.37C394.758 155.427 393.586 153.68 382.331 157.415C375.196 159.777 370.105 158.227 364.761 164.59C359.727 170.579 361.676 171.356 360.126 171.011C354.259 169.254 348.212 168.109 342.09 167.597C334.801 167.379 335.002 168.684 332.852 154.07C333.316 151.816 333.15 150.901 334.819 151.163C341.194 152.161 340.533 149.907 341.784 149.865C342.187 149.865 342.553 150.669 343.042 150.832C345.534 151.657 346.94 150.663 346.451 152.113C343.384 161.251 343.765 158.672 342.69 162.708C342.183 164.61 344.168 165.622 346.059 165.18C359.853 161.945 363.158 152.088 362.787 155.513C362.561 157.585 364.542 158.14 365.952 157.239C375.865 150.749 372.888 149.268 375.837 149.596ZM340.504 177.698C340.396 176.663 346.027 178.389 347.67 179.556C348.573 180.199 349.333 181.008 349.906 181.938C350.478 182.867 350.852 183.896 351.004 184.966C347.117 209.747 345.531 203.305 340.471 216.407C338.985 221.654 337.148 226.804 334.973 231.825C331.651 237.694 330.561 235.371 326.782 239.275C323.715 242.445 319.256 245.296 318.375 246.225C315.66 249.097 311.065 249.374 305.79 249.677C294.93 250.275 296.156 249.677 286.469 243.939C282.285 242.042 278.842 238.91 276.643 235.001C274.444 231.092 273.603 226.61 274.243 222.21C275.89 206.85 276.624 185.511 286.135 184.158C286.894 184.051 286.991 184.244 287.494 188.729C288.429 197.077 294.74 197.139 295.308 201.157C295.844 204.955 306.574 209.705 307.037 209.958C307.724 210.327 306.919 211.49 306.358 213.013C300.097 230.04 314.492 230.175 320.878 225.393C323.434 223.481 323.301 217.601 319.486 211.584C319.414 211.466 318.184 210.292 318.889 209.909C324.254 206.995 324.103 207.451 324.844 206.878C331.363 201.806 332.521 201.057 332.841 199.162C333.244 196.745 338.235 195.14 339.515 188.197C341.511 177.046 340.842 181.037 340.504 177.698ZM312.6 209.892C314.707 211.77 319.972 215.581 319.177 221.285C318.709 224.616 309.177 226.156 308.325 222.082C307.616 218.706 310.443 207.965 312.6 209.892ZM336.459 185.18C335.581 192.716 330.209 194.822 329.738 197.17C329.267 199.517 327.084 200.712 324.97 202.21C310.259 212.63 316.728 203.374 310.13 206.408C307.933 207.42 308.098 206.008 304.585 204.903C302.821 204.185 301.238 203.113 299.943 201.758C296.484 198.827 299.583 197.429 294.97 194.984C292.925 193.629 291.348 191.719 290.439 189.499C290.119 188.639 289.249 183.115 288.307 178.237C285.315 162.756 284.643 155.268 279.062 140.374C277.422 136.004 275.606 131.433 272.478 121.127C271.579 118.172 272.42 115.728 269.313 116.691C265.786 117.782 261.737 119.584 258.756 115.31C253.758 108.16 253.143 101.742 254.592 97.6648C255.008 96.4471 255.719 95.3421 256.669 94.4415C257.618 93.5409 258.777 92.8706 260.051 92.4862C263.201 91.5852 266.164 93.2147 269.511 97.4197C271.399 99.7846 271.615 99.9054 272.859 99.4912C274.103 99.0769 273.938 98.1378 274.585 97.0745C274.707 96.8846 275.304 96.888 275.664 96.9364C281.546 97.7753 280.194 98.5418 284.502 94.5197C288.458 109.738 305.146 108.675 310.461 99.2978C312.579 95.5623 310.651 96.2873 313.697 91.6093C314.14 91.0431 314.713 90.5826 315.372 90.2639C316.031 89.9452 316.757 89.7768 317.495 89.7718C318.233 89.7667 318.962 89.9253 319.625 90.235C320.289 90.5448 320.869 90.9974 321.32 91.5575C323.503 94.3195 323.42 93.1629 323.87 95.0099C324.337 97.0357 325.325 98.917 326.744 100.482C328.162 102.047 329.967 103.246 331.992 103.97C334.017 104.694 336.199 104.92 338.338 104.627C340.478 104.333 342.507 103.53 344.24 102.291C349.234 98.7489 348.386 93.6359 349.634 103.327C349.549 111.798 347.314 120.122 343.122 127.576C336.732 138.89 332.388 148.526 327.386 153.632C324.265 156.818 322.05 158.586 310.079 156.545C301.757 154.961 294.001 151.344 287.559 146.043C286.48 145.215 284.833 145.273 285.297 146.972C285.79 148.75 292.025 152.924 294.952 154.913C301.592 158.629 309.06 160.77 316.735 161.158C318.981 161.449 321.267 161.251 323.423 160.58C325.579 159.909 327.55 158.781 329.191 157.281C330.457 155.993 331.874 176.487 336.584 180.55C337.588 181.403 336.868 181.751 336.459 185.18ZM280.612 157.498C279.835 156.808 278.508 151.995 275.617 155.037C273.539 157.222 274.635 158.786 272.151 158.144C269.529 157.453 269.633 157.491 269.407 155.068C269.241 146.123 269.754 137.178 270.942 128.305C271.543 128.823 281.133 156.01 280.612 157.498ZM326.584 83.6861C324.308 86.2029 324.538 89.8313 323.021 88.1224C320.335 85.105 316.142 86.448 312.384 88.0913C311.378 88.5298 311.119 87.9774 310.586 86.9313C309.668 85.1068 308.327 83.5077 306.667 82.2559C305.007 81.0041 303.072 80.1328 301.008 79.7082C298.944 79.2836 296.806 79.3171 294.758 79.806C292.709 80.295 290.804 81.2265 289.188 82.5295C287.073 84.3589 285.553 86.7346 284.808 89.3722C283.731 90.9397 282.442 92.3629 280.975 93.6048C280.645 93.8715 280.244 94.0449 279.817 94.1059C279.391 94.1668 278.955 94.1129 278.558 93.9501C274.765 92.9143 278.166 93.812 279.91 79.6399C281.798 64.2974 284.182 60.8347 290.96 55.6733C293.215 53.9471 311.399 47.7742 313.614 41.1422C313.949 40.1375 315.239 42.1779 315.811 43.0928C318.152 46.8179 326.696 50.8641 331.877 51.9447C337.161 52.6917 342.231 54.4669 346.775 57.1613C348.512 58.197 348.174 59.181 348.835 67.5875C347.188 84.128 347.559 84.9324 346.081 83.4479C344.831 82.1555 343.313 81.1288 341.624 80.4342C339.936 79.7395 338.114 79.3922 336.278 79.4147C334.441 79.4371 332.629 79.8288 330.96 80.5645C329.29 81.3002 327.8 82.3635 326.584 83.6861ZM336.588 101.01C334.09 100.97 331.7 100.028 329.894 98.3711C328.087 96.7147 326.997 94.4656 326.84 92.072C326.921 89.642 327.988 87.3388 329.813 85.6535C331.639 83.9682 334.077 83.0343 336.61 83.0508C339.045 83.1227 341.359 84.0886 343.075 85.7495C344.791 87.4105 345.778 89.6399 345.833 91.9787C345.709 94.3093 344.7 96.5154 342.996 98.1797C341.293 99.8441 339.013 100.851 336.588 101.01ZM298.113 102.522C284.625 102.446 284.855 82.4812 298.544 82.8748C301.135 82.9225 303.614 83.8978 305.494 85.6095C307.375 87.3212 308.522 89.6458 308.709 92.1272C308.705 94.8435 307.595 97.4506 305.617 99.3925C303.638 101.334 300.948 102.458 298.12 102.522H298.113ZM345.276 148.094C344.596 147.873 344.236 146.406 344.028 146.085C341.316 141.88 339.037 150.407 336.117 148.156C335.344 147.559 336.714 146.734 341.151 139.18C344.833 132.91 348.174 125.001 348.206 127.787C348.418 146.703 347.886 148.94 345.283 148.094H345.276ZM361.647 90.4838C362.798 94.972 375.02 113.246 374.736 130.877C374.853 136.364 373.957 141.827 372.09 147.013C370.899 149.744 368.238 152.983 366.408 153.317C366.43 152.713 367.609 144.541 367.688 141.793C367.99 131.191 365.261 128.982 365.664 124.127C365.93 118.141 364.984 112.161 362.877 106.52C362.212 104.449 362.029 102.723 360.184 103.396C358.098 104.166 362.769 113.715 362.302 122.384C361.913 129.51 366.419 139.898 363.873 144.455C359.918 151.571 361.295 154.011 347.918 161.082C347.731 161.179 347.44 161.082 347.199 161.082C347.189 160.85 347.213 160.617 347.271 160.391C355.006 138.527 349.547 122.923 351.299 117.312C353.373 110.551 353.718 103.408 352.305 96.491C349.231 78.7699 351.698 86.6793 352.072 66.9834C352.14 63.531 351.284 61.5631 352.154 60.3168C353.071 58.998 353.107 58.2454 352.025 57.1337C346.872 51.7687 339.08 49.7835 331.654 48.3508C327.585 47.1867 323.761 45.345 320.356 42.9098C317.726 40.6564 315.762 37.777 314.661 34.5619C314.773 31.8895 314.313 29.2233 313.309 26.7284C312.917 25.886 313.006 25.71 313.956 25.6927C315.506 25.6685 316.832 24.4844 326.574 27.2808C333.706 29.9501 340.283 33.8251 345.991 38.7221C350.776 43.1641 354.25 48.7436 356.059 54.8931C358.397 61.3767 358.303 69.1101 359.853 75.9147C361.18 81.6319 360.044 84.2523 361.655 90.4838H361.647ZM293.032 2.79296C300.31 2.06451 308.907 6.11762 307.526 6.70798C295.585 11.8175 289.508 10.5298 265.588 28.8033C258.037 34.5723 260.266 34.3582 252.694 37.4861C246.419 40.013 240.473 43.2353 234.977 47.0872C231.27 36.4953 256.901 6.43179 293.039 2.80677L293.032 2.79296ZM218.501 98.2172C211.766 87.3594 214.261 88.0982 215.448 78.2762C216.433 70.1251 232.658 49.4763 254.596 40.5104C261.137 37.8348 258.612 38.363 277.332 24.3704C279.662 22.6442 288.12 17.987 291.658 15.9052C293.747 14.6727 302.658 11.9694 305.574 10.7438C323.427 3.25213 351.895 -0.341815 365.265 13.9994C383.337 33.4019 362.262 56.2119 359.929 57.4168C357.954 49.8215 359.188 51.5477 351.985 40.2169C350.795 38.3457 355.667 34.0406 352.64 28.7481C344.01 13.6508 320.342 22.1402 312.492 22.2783C304.222 22.4233 299.95 25.0713 276.865 38.4286C272.013 40.1884 267.707 43.1038 264.351 46.9008C257.943 54.3269 257.343 54.679 254.826 56.2223C241.989 64.1144 233.733 71.7201 234.351 82.6814C234.668 88.2812 238.307 87.3318 237.311 91.1536C236.074 95.9041 233.715 97.903 229.349 104.894C228.99 105.453 228.688 105.633 228.094 105.36C224.215 103.97 220.868 101.479 218.501 98.2172ZM248.943 160.574C246.904 156.806 245.302 152.833 244.164 148.729C244.031 147.219 243.791 145.72 243.445 144.241C243.327 143.984 243.125 143.771 242.87 143.635C242.615 143.498 242.32 143.446 242.031 143.485C241.741 143.524 241.473 143.653 241.267 143.851C241.061 144.05 240.928 144.308 240.888 144.586C239.238 157.077 253.438 170.849 251.316 170.579C247.424 169.719 243.77 168.066 240.602 165.733C237.433 163.399 234.823 160.439 232.949 157.053C223.754 139.121 229.777 128.471 227.285 128.705C225.718 128.854 225.254 132.258 225.063 133.563C224.487 140.439 225.542 147.351 228.148 153.78C229.044 155.396 229.513 157.198 229.515 159.028C229.515 160.063 228.13 159.404 227.548 158.941C225.326 157.707 223.462 155.96 222.123 153.857C220.785 151.754 220.016 149.364 219.885 146.903C219.241 140.658 215.139 128.07 225.71 118.041C232.902 111.205 228.81 110.577 236.066 101.3C244.768 90.1766 238.159 82.7401 245.973 68.3954C249.842 61.3007 255.617 63.3066 266.71 49.6454C270.371 45.1573 274.948 43.2551 285.498 37.8313C288.9 36.081 303.981 25.9724 309.101 26.1691C310.018 26.2037 310.54 28.2924 310.612 28.9552C311.69 38.1731 311.162 41.4564 305.376 44.9744C302.165 46.9284 297.444 48.3646 290.148 52.3314C279.454 58.1452 278.22 70.3667 275.901 82.7367C275.459 85.0843 274.765 87.2904 274.207 89.6104C273.607 92.103 272.226 94.606 271.226 93.8292C269.938 92.523 268.522 91.338 266.998 90.2905C255.966 84.3938 243.625 97.0918 255.764 116.846C256.839 118.623 258.48 120.022 260.444 120.838C262.408 121.654 264.593 121.844 266.678 121.379C271.511 120.741 259.874 153.259 270.802 170.842C271.464 171.909 272.082 172.223 266.095 171.415C254.2 169.816 255.513 169.989 248.943 160.574ZM257.893 176.455C259.86 174.422 258.796 173.763 262.974 174.308C270.166 175.247 280.004 176.966 275.171 171.201C273.219 168.877 268.817 160.184 270.96 160.944C277.242 163.178 275.754 160.554 277.329 158.565C279.918 163.309 281.597 160.719 282.266 163.291C283.264 167.218 284.033 171.196 284.567 175.206C284.815 176.518 284.038 176.21 280.996 177.346C273.555 179.798 266.338 182.84 259.421 186.44C259.421 186.44 259.335 184.745 256.793 184.862C256.177 184.891 255.56 184.885 254.945 184.845C254.742 184.218 254.607 183.572 254.542 182.918C254.592 181.674 254.917 180.453 255.494 179.338C256.072 178.223 256.89 177.238 257.893 176.449V176.455ZM249.446 189.92C259.795 190.11 258.961 178.099 250.504 226.039C248.555 237.086 250.691 237.37 248.249 237.632C245.565 237.897 242.866 237.985 240.169 237.894C237.965 237.839 237.318 237.518 237.318 236.368C237.311 226.829 241.043 189.761 249.446 189.913V189.92ZM53.0168 32.9531C52.5781 31.3167 51.3699 29.0933 53.5741 28.0887C53.9724 27.9511 54.4111 27.9696 54.7954 28.1402C55.1796 28.3108 55.4785 28.6197 55.6273 29.0001C56.7492 31.0025 75.7281 69.7695 74.7176 70.4047C68.3602 74.4164 68.7198 74.5476 68.1768 73.1908C58.9966 50.474 54.34 37.8693 53.0168 32.9531ZM42.4702 43.4691C41.902 41.3528 41.7977 40.576 43.0994 40.0478C44.2753 39.5714 44.9729 41.0835 46.1919 43.0341C46.5263 43.5692 59.2196 63.1788 60.7119 66.141C65.6633 75.9734 66.8643 74.9619 65.5159 75.8906C60.4601 79.3775 59.9315 81.0692 58.7629 79.053C57.7561 77.3268 57.0369 75.9458 56.5011 74.81C54.7571 71.1332 43.0347 45.5854 42.4702 43.4691ZM167.389 260.573C167.235 263.076 150.151 261.505 136.264 263.059C132.269 263.504 119.468 265.237 112.97 263.404C111.438 262.976 101.19 262.424 96.983 246.487C88.932 215.999 75.9869 132.541 73.344 121.963C72.7327 119.508 74.3437 120.855 76.325 120.275C81.0355 118.894 69.9028 116.967 66.2566 111.461C58.3889 99.6051 57.828 98.8317 56.7564 94.8339C54.7212 87.2386 51.5964 89.8141 40.5752 73.7743C38.6848 71.2838 37.0654 68.6138 35.7424 65.8061C35.4403 64.8602 35.8143 63.7105 36.8427 63.7105C38.432 63.8037 39.0757 64.836 48.3494 75.5315C50.7328 77.9381 53.2538 80.2156 55.9006 82.3535C56.0818 82.556 56.2186 82.7915 56.3026 83.0461C56.3867 83.3006 56.4163 83.5688 56.3896 83.8345C57.4109 87.0798 55.2426 85.395 72.7004 74.879C79.0147 71.0814 81.0247 70.2632 81.8086 69.7626C82.3516 69.4173 82.8874 68.7268 82.6968 68.3056C82.5062 67.8845 81.7906 67.8707 81.1686 67.9604C76.983 68.6198 78.7558 70.9951 75.6705 58.7252C72.8694 47.5706 68.5831 36.371 67.8496 31.1061C67.6374 29.5525 68.2092 28.7377 69.3778 28.5755C71.3196 28.2993 71.4958 30.5226 73.4447 35.5044C92.553 84.3248 79.5972 55.1037 91.2729 77.9689C92.4163 80.2095 81.3196 89.6587 84.1855 97.5095C84.243 97.6764 84.3522 97.8226 84.4986 97.9283C84.6449 98.034 84.8214 98.0943 85.0044 98.101C85.1874 98.1078 85.3683 98.0607 85.5226 97.9661C85.677 97.8715 85.7976 97.7338 85.8683 97.5716C86.0841 94.1217 87.2182 90.7827 89.1621 87.8738C92.2293 83.3857 95.3146 81.6008 94.8831 72.49C94.0365 66.6892 93.5024 60.8503 93.2829 54.9967C93.2946 53.9533 93.6343 52.9377 94.2574 52.0828C94.9406 51.1472 96.5443 50.764 97.1341 51.9586C98.1085 53.9471 97.6231 55.7562 99.0686 61.3594C101.072 65.644 102.312 70.221 102.736 74.8997C102.765 78.176 105.415 86.8139 102.585 93.4736C101.594 97.4884 101.092 101.6 101.089 105.726C100.658 110.68 97.2887 114.033 98.238 120.547C99.5458 127.599 101.413 134.545 103.822 141.324C112.265 167.117 117.72 178.265 121.003 186.45C142.219 239.386 134.887 225.911 137.458 230.006C137.656 230.311 137.96 230.539 138.317 230.649C138.673 230.758 139.059 230.743 139.405 230.605C139.751 230.466 140.034 230.215 140.204 229.894C140.375 229.574 140.421 229.206 140.334 228.856C137.62 217.912 136.099 218.126 139.453 218.243C145.075 217.998 150.672 217.375 156.203 216.379C157.609 215.996 157.131 217.321 158.623 221.399C161.352 228.846 164.671 233.779 166.375 238.498C168.08 243.218 168.17 247.723 167.389 260.573ZM232.388 235.025C231.374 235.84 231.108 239.148 231.014 240.411C230.576 246.235 227.041 258.243 231.244 262.462C232.391 263.615 231.935 263.894 232.028 270.057C232.104 275.073 234.423 272.819 223.758 273.854C215.606 274.645 210.55 274.711 204.89 277.801C201.784 279.496 196.98 279.713 187.749 281.698C176.512 284.115 170.227 289.024 171.402 286.055C174.304 278.712 171.043 271.448 171.259 260.483C171.891 227.948 168.972 245.597 159.184 210.141C158.857 208.96 156.282 207.893 162.683 207.886C180.597 207.858 190.291 200.011 205.441 201.354C212.801 202.007 227.67 193.679 240.443 193.783C241.385 193.783 241.021 193.707 239.202 200.519C231.744 228.424 235.423 232.609 232.388 235.039V235.025ZM233.391 248.144C235.509 235.498 231.489 242.921 248.853 240.839C251.683 240.494 251.115 242.189 251.097 244.93C251.039 254.766 251.665 260.687 248.454 260.697C235.736 260.756 230.892 263.142 233.391 248.176V248.144ZM239.144 289.29C239.27 281.695 234.962 276.844 235.509 265.237C235.613 262.99 236.394 265.382 243.819 264.333C245.135 264.23 246.455 264.199 247.774 264.24C248.551 264.215 248.824 264.547 248.799 265.275C247.483 303.839 254.161 311.537 250.004 311.14C242.862 310.471 239.062 295.121 239.148 289.321L239.144 289.29ZM251.036 318.932C249.713 317.763 248.706 316.302 248.102 314.676C251.697 314.893 251.561 314.475 251.561 316.792C251.453 317.593 251.917 318.435 251.039 318.964L251.036 318.932ZM277.699 459.656C273.776 459.31 266.678 458.475 260.349 458.012C251.241 457.349 252.496 456.939 252.215 453.179C252.215 445.642 254.412 451.757 280.079 450.607C283.506 450.452 281.723 450.476 282.798 457.674C283.017 459.179 281.633 460.018 277.703 459.687L277.699 459.656ZM309.263 458.565C283.431 462.241 285.858 462.487 285.452 451.56C285.329 448.339 288.832 449.002 297.278 448.453C312.694 447.455 310.561 446.16 311.507 455.098C311.677 455.846 311.539 456.629 311.122 457.281C310.704 457.933 310.039 458.404 309.267 458.596L309.263 458.565ZM312.036 445.069C311.902 445.177 311.737 445.242 311.563 445.253C311.389 445.264 311.215 445.222 311.068 445.131C309.59 444.268 307.834 443.955 306.131 444.251C299.299 444.776 292.356 445.477 286.48 446.091C285.267 446.304 284.189 446.964 283.477 447.931C282.125 448.076 280.77 447.141 279.641 447.127C277.354 447.099 261.575 447.935 253.657 445.998C249.019 444.866 249.464 441.976 250.363 441.189C251.665 440.043 252.179 439.369 253.6 440.367C257.879 443.353 258.379 441.165 264.301 442.867C270.773 444.734 273.776 442.521 279.346 442.338C284.02 442.19 284.071 444.589 288.192 442.96C296.002 439.873 298.483 443.84 303.686 441.579C307.962 439.728 310.414 440.736 311.935 440.06C316.376 438.089 319.486 440.75 324.046 438.451C328.817 436.034 328.684 435.454 332.23 435.282C336.047 435.059 339.694 433.69 342.658 431.37C343.636 430.712 344.741 430.247 345.909 430.003C347.076 429.76 348.283 429.742 349.457 429.951C349.99 429.916 350.517 430.073 350.935 430.393C351.352 430.712 351.63 431.171 351.712 431.677C351.881 432.299 350.806 432.986 350.202 433.234C345.909 435.315 341.475 437.115 336.93 438.62C330.251 441.043 323.324 442.778 316.264 443.799C314.76 443.831 313.298 444.283 312.057 445.1L312.036 445.069ZM257.544 433.946C261.075 399.107 259.22 401.862 263.848 403.25C292.877 411.961 288.451 405.529 308.436 405.481C322.356 405.453 325.919 408.667 340.08 402.65C356.581 395.648 371.77 393.221 380.216 390.773C390.414 387.822 386.495 386.061 391.237 399.553C392.989 404.538 393.661 404.669 392.877 405.574C391.892 406.71 392.158 407.99 389.184 409.064C386.131 409.244 383.27 410.553 381.201 412.717C378.278 416.325 371.662 412.879 366.049 421.041C365.68 421.746 365.099 422.329 364.381 422.714C363.663 423.099 362.841 423.268 362.021 423.198C359.842 423.372 357.715 423.934 355.75 424.855C354.193 425.705 353.729 426.544 352.37 426.865C350.389 427.334 349.813 426.319 345.538 427.01C337.286 428.346 339.849 431.802 331.637 432.371C329.443 432.357 327.292 432.956 325.448 434.098C316.908 438.454 318.044 434.988 312.683 436.922C309.662 438.013 306.53 437.267 304.362 438.334C298.181 441.389 294.592 436.559 288.22 439.77C283.068 442.366 283.697 437.571 271.234 440.55C268.285 441.241 264.15 438.865 259.486 439.269C257.836 439.445 257.818 436.404 257.548 433.977L257.544 433.946ZM353.021 445.1C341.362 450.69 328.93 454.648 316.102 456.856C314.394 457.021 314.812 455.319 313.564 448.677C313.255 447.034 313.945 447.154 317.221 446.536C329.085 444.105 340.669 440.553 351.806 435.934C353.172 435.361 353.025 435.454 355.761 441.665C356.164 442.563 356.588 443.284 353.025 445.131L353.021 445.1ZM369.641 445.345C364.848 447.51 360.766 449.582 360.457 447.051C359.04 435.371 349.519 429.299 358.3 427.148C363.071 425.981 363.88 422.1 369.303 437.481C370.382 440.574 371.924 444.348 369.644 445.376L369.641 445.345ZM392.471 427.193C388.188 430.127 383.862 430.024 376.153 434.384C375.074 434.988 373.852 435.32 372.741 435.872C372.536 435.972 372.277 436.131 371.989 435.748C371.526 434.977 371.136 434.168 370.824 433.331C368.738 428.042 367.681 427.338 370.863 426.081C379.491 423.261 387.853 419.739 395.858 415.555C400.989 412.793 400.418 411.391 402.115 416.722C404.384 423.868 404.384 419.073 392.474 427.224L392.471 427.193ZM398.584 405.267C401.572 404.814 401.957 408.173 400.267 409.686C396.058 412.84 391.422 415.431 386.487 417.388C382.78 418.993 378.76 420.209 374.013 422.062C370.288 423.516 368.426 425.301 367.94 424.479C367.832 424.293 367.102 423.519 368.149 422.163C369.4 420.716 370.949 419.532 372.698 418.684C374.446 417.836 376.358 417.344 378.314 417.236C383.251 416.715 383.496 413.259 387.167 412.655C389.38 412.486 391.447 411.529 392.963 409.972C394.646 408.028 395.588 405.753 398.577 405.298L398.584 405.267ZM388.767 384.331C383.762 385.657 374.312 388.519 373.025 388.857C366.677 389.734 360.465 391.349 354.524 393.666C314.671 408.857 329.986 398.462 294.585 403.057C268.138 406.492 259.429 394.661 235.502 389.672C232.722 389.092 240.371 385.923 243.549 368.267C244.225 364.514 247.591 361.231 250.903 349.624C252.891 342.657 248.745 339.267 251.381 332.362C252.075 330.536 252.129 334.171 254.977 343.479C257.242 350.922 259.856 346.741 258.702 343.479C255.246 334.016 253.898 323.962 254.747 313.968C255.063 305.213 254.56 305.237 252.395 288.075C251.28 279.223 252.507 275.967 252.557 265.741C252.557 263.849 253.56 263.256 254.283 258.146C255.038 252.781 254.315 250.672 254.977 239.524C255.099 237.483 255.311 235.799 253.837 235.212C251.654 234.349 257.027 214.152 259.518 193.545C259.774 191.415 260.169 189.602 262.122 189.029C262.201 189.005 282.499 178.586 285.854 180.143C285.416 180.995 277.868 182.414 275.746 190.448C260.863 246.777 284.175 244.136 291.385 250.865C294.657 253.917 299.001 253.364 303.682 253.458C318.914 253.758 320.015 249.881 330.213 241.571C335.894 236.945 336.261 240.591 342.302 223.077C348.415 205.338 348.857 212.202 352.978 196.148C353.05 195.872 354.463 186.568 354.463 186.568C354.69 184.967 354.507 183.337 353.931 181.819C353.355 180.302 352.402 178.942 351.155 177.857C346.617 175.416 353.204 176.39 337.62 173.155C336.699 172.965 335.908 170.807 336.868 170.624C340.895 170.541 344.916 170.955 348.832 171.857C374.671 178.116 368.555 171.429 367.304 184.151C367.304 184.227 364.287 217.249 365.437 223.967C365.948 226.961 363.733 226.812 363.341 229.015C361.69 238.284 364.351 238.139 362.823 249.246C362.42 252.163 365.002 255.833 365.401 255.526C365.319 255.754 365.06 257.846 368.465 272.871C368.994 275.201 370.982 299.257 376.056 301.025C380.508 302.572 379.803 314.013 393.729 319.14C394.112 319.238 394.454 319.445 394.711 319.734C394.968 320.023 395.127 320.381 395.168 320.759C395.675 325.323 397.512 329.597 398.465 334.061C399.501 338.894 397.829 342.412 403.373 350.688C404.355 352.151 405.017 352.145 407.127 352.414C409.846 352.759 405.876 358.566 413.794 376.781C414.179 377.761 415.229 377.354 388.76 384.362L388.767 384.331ZM429.648 365.574C428.142 369.476 422.967 370.546 417.89 371.443C417.448 371.584 416.966 371.555 416.547 371.362C416.127 371.169 415.801 370.827 415.639 370.408C414.657 367.991 410.364 352.963 412.992 352.586C422.766 351.181 424.708 351.582 427.239 350.56C428.677 349.98 428.142 350.815 430.835 357.651C431.319 360.357 430.901 363.141 429.641 365.605L429.648 365.574ZM488.706 484.641C488.706 484.565 468.81 444.248 464.406 436.583C448.091 408.243 440.504 395.669 438.404 372.845C437.433 362.312 427.235 341.732 429.094 340.517C431.651 338.611 434.619 337.279 437.782 336.619C443.51 335.835 450.662 331.61 457.671 330.964C461.216 330.64 461.295 329.5 462.025 331.951C462.047 332.031 502.194 461.848 505.973 473.154C505.398 473.845 495.243 475.678 496.689 480.912C496.743 481.013 496.771 481.124 496.771 481.237C496.772 481.35 496.744 481.461 496.691 481.562C496.638 481.663 496.562 481.751 496.467 481.818C496.372 481.885 496.262 481.929 496.146 481.948C492.054 483.284 489.195 487.088 488.699 484.672L488.706 484.641ZM502.658 484.482C503.031 484.433 503.411 484.465 503.77 484.575C504.129 484.685 504.458 484.87 504.733 485.117C505.008 485.363 505.223 485.666 505.362 486.002C505.5 486.338 505.559 486.7 505.535 487.061C505.463 487.645 505.171 488.185 504.715 488.578C504.258 488.971 503.668 489.19 503.055 489.195C502.442 489.199 501.848 488.989 501.385 488.603C500.922 488.217 500.622 487.682 500.54 487.099C500.551 485.587 501.198 484.713 502.637 484.513L502.658 484.482ZM500.677 480.056C500.683 479.779 500.747 479.507 500.867 479.255C500.986 479.003 501.157 478.777 501.37 478.59C501.582 478.403 501.833 478.26 502.105 478.169C502.377 478.078 502.665 478.041 502.953 478.06C503.209 478.076 503.46 478.14 503.69 478.249C503.921 478.358 504.126 478.51 504.296 478.695C504.465 478.88 504.595 479.096 504.677 479.329C504.759 479.563 504.793 479.81 504.776 480.056C504.78 480.579 504.568 481.082 504.186 481.454C503.804 481.827 503.284 482.039 502.739 482.043C502.194 482.047 501.671 481.843 501.282 481.476C500.894 481.109 500.674 480.61 500.67 480.087L500.677 480.056ZM547.944 529.322C545.29 526.939 542.629 526.936 539.886 520.967C538.552 518.06 536.29 519.817 536.793 521.022C538.469 525.02 542.788 532.567 541.669 536.558C537.937 533.989 534.478 523.704 531.961 520.808C530.436 519.04 522.101 519.303 548.901 550.661C551.806 554.055 553.913 554.641 551.547 555.946C549.918 555.903 548.356 555.317 547.128 554.289C525.229 535.646 528.872 530.606 523.266 524.795C523.02 524.552 522.693 524.399 522.341 524.364C521.99 524.329 521.637 524.414 521.345 524.604C521.052 524.794 520.838 525.077 520.741 525.403C520.644 525.729 520.67 526.077 520.813 526.387C520.849 526.463 524.801 533.796 528.527 539.451C533.92 547.643 545.743 557.579 540.846 556.82C532.737 555.563 526.743 544.737 519.735 538.415C514.895 534.048 507.868 518.709 498.16 516.351C496.006 515.743 493.704 515.84 491.614 516.625C489.524 517.411 487.765 518.841 486.613 520.691C482.831 527.806 472.151 536.934 470.432 532.936C469.896 531.704 473.33 531.579 477.847 522.579C479.476 519.323 481.443 518.602 482.658 515.198C483.417 511.898 484.754 508.746 486.613 505.876C488.994 503.221 490.65 500.039 491.432 496.617C491.622 494.062 493.23 494.024 497.121 491.832C501.284 489.491 499.447 495.74 505.11 494.269C513.74 492.036 513.888 490.91 515.466 492.491C519.46 495.714 523.205 499.212 526.671 502.956C530.511 507.04 530.914 509.608 535.707 511.856C540.965 514.317 544.057 523.698 558.786 532.67C560.688 533.844 553.83 534.607 547.944 529.322Z" fill="#000001"/>
<path d="M78.8869 73.8745C81.4039 72.5591 81.4039 73.1529 82.1051 73.4429C81.4363 74.634 63.7268 87.2525 63.1263 87.653C61.9684 86.089 60.6955 85.9509 69.7211 79.4673C72.6305 77.3913 75.6939 75.5221 78.8869 73.8745Z" fill="#000001"/>
<path d="M61.3156 126.041C62.0995 130.561 62.4267 130.454 61.0603 130.975C58.9999 131.759 58.6151 127.723 58.7266 126.832C58.8884 125.544 58.2376 125.071 54.052 123.034C51.2545 121.681 51.0567 119.675 50.5856 117.604C49.7658 113.992 46.6302 117.852 41.7003 114.434C39.8053 113.126 37.6011 109.777 39.773 109.059C42.0995 108.289 40.413 113.509 47.5076 113.292C50.7043 113.195 52.2505 112.853 52.9014 115.301C53.6421 118.063 53.7248 119.385 54.2929 119.737C61.125 124.008 61.5457 122.834 61.3156 126.041Z" fill="#000001"/>
<path d="M40.3231 97.0505C41.6571 98.3417 39.3522 100.503 38.0074 98.8837C36.4683 97.0159 36.4971 95.3174 34.692 94.3058C30.0174 91.6924 25.9793 88.9097 26.3784 83.6862C26.4979 82.8918 26.3001 82.0833 25.8245 81.4231C25.349 80.7629 24.631 80.2998 23.8146 80.1268C20.9883 79.4916 16.1339 75.2106 16.702 72.4625C16.7991 66.5106 19.8016 67.6291 18.838 66.0548C17.8652 64.0888 17.6747 61.8492 18.3022 59.7577C18.4836 59.1391 18.8025 58.5657 19.2371 58.0769C19.6716 57.5882 20.2114 57.1957 20.8193 56.9267C22.9768 55.5975 19.3809 53.8679 20.7473 49.8769C21.2773 48.7197 22.2216 47.7832 23.4091 47.2372C24.5966 46.6912 25.9486 46.5719 27.2198 46.9009C28.6114 47.2047 29.3989 49.3936 28.5683 49.4074C26.4108 49.4419 20.7078 47.1115 24.1346 55.3766C24.8933 57.2098 25.0444 57.6552 21.9196 59.3814C20.1217 60.3722 20.8121 61.8912 20.6646 62.9339C20.341 65.2746 25.3392 66.5071 21.4413 68.6338C20.6336 69.123 20.0125 69.8502 19.671 70.7064C19.3294 71.5627 19.2857 72.5022 19.5463 73.3843C23.3939 76.9161 18.4244 74.1818 26.7955 78.701C30.8013 80.8622 27.5579 83.6552 30.3338 87.5288C32.1318 90.0628 34.3935 90.5945 36.9214 92.3621C39.514 94.1539 38.4353 95.2276 40.3231 97.0505Z" fill="#000001"/>
<path d="M30.8291 113.654C34.0977 114.586 32.8571 116.834 30.1099 116.388C29.7323 116.326 29.3907 116.043 29.0311 115.95C28.0605 115.725 27.196 115.195 26.5745 114.444C25.9531 113.694 25.6104 112.766 25.6007 111.807C25.0829 108.154 19.8078 114.168 13.4396 106.974C12.0824 105.467 11.2669 103.58 11.1141 101.593C10.9612 99.6064 11.4791 97.6252 12.591 95.9431C13.8891 94.0098 0.0882515 91.3963 6.11847 78.5569C7.21879 76.2161 5.39931 78.7467 1.37916 73.6855C-0.519441 71.2965 -0.692041 65.7968 2.35363 66.4907C5.4928 67.2019 0.843378 68.3447 3.55823 72.2217C6.16522 75.933 11.1742 74.193 9.38349 78.436C8.56172 79.6107 8.00864 80.9393 7.76071 82.3342C7.51279 83.7291 7.57565 85.1586 7.94516 86.5284C8.49172 89.3456 12.1954 91.8866 14.7772 92.9292C17.9092 94.1928 15.7769 96.4748 14.8564 97.8627C11.7064 102.613 16.8377 108.607 22.3752 108.013C32.8463 106.88 24.6766 111.928 30.8291 113.654Z" fill="#000001"/>
</svg>
