<?xml version="1.0" standalone="no"?><svg xmlns="http://www.w3.org/2000/svg" viewBox="0 0 1440 320"><path fill="#ffffff" fill-opacity="1" d="M0,320L26.7,298.7C53.3,277,107,235,160,234.7C213.3,235,267,277,320,288C373.3,299,427,277,480,272C533.3,267,587,277,640,256C693.3,235,747,181,800,165.3C853.3,149,907,171,960,160C1013.3,149,1067,107,1120,96C1173.3,85,1227,107,1280,106.7C1333.3,107,1387,85,1413,74.7L1440,64L1440,320L1413.3,320C1386.7,320,1333,320,1280,320C1226.7,320,1173,320,1120,320C1066.7,320,1013,320,960,320C906.7,320,853,320,800,320C746.7,320,693,320,640,320C586.7,320,533,320,480,320C426.7,320,373,320,320,320C266.7,320,213,320,160,320C106.7,320,53,320,27,320L0,320Z"></path></svg>